<svg xmlns="http://www.w3.org/2000/svg" xml:space="preserve" viewBox="0 0 601 601">
  <g fill-rule="evenodd">
    <path d="M300.532 0c55.293 0 102.31 12.592 150.2 40.239 47.925 27.681 82.35 62.105 110.03 110.03 27.647 47.89 40.24 94.936 40.24 150.263 0 55.293-12.593 102.314-40.24 150.234-27.68 47.891-62.104 82.349-110.03 109.995-47.89 27.648-94.907 40.24-150.2 40.24-55.327 0-102.373-12.592-150.297-40.24-47.891-27.646-82.349-62.104-109.996-109.995C12.593 402.846 0 355.825 0 300.532 0 245.21 12.592 198.16 40.239 150.27c27.647-47.925 62.105-82.354 109.996-110.03C198.159 12.592 245.205 0 300.533 0zm0 .497c-55.248 0-102.192 12.564-150.048 40.177-47.828 27.641-82.208 61.987-109.815 109.843C13.06 198.345.503 245.284.503 300.532c0 55.22 12.558 102.13 40.166 149.985 27.607 47.823 61.987 82.203 109.815 109.81 47.856 27.608 94.8 40.17 150.048 40.17 55.216 0 102.13-12.562 149.952-40.17 47.856-27.607 82.201-61.987 109.844-109.81 27.612-47.856 40.175-94.765 40.175-149.985 0-55.248-12.563-102.187-40.176-150.015-27.642-47.856-61.987-82.202-109.843-109.843C402.66 13.06 355.748.497 300.533.497z"/>
    <path fill="#fff" d="M.503 300.532c0-55.248 12.558-102.187 40.166-150.015 27.607-47.856 61.987-82.202 109.815-109.843C198.345 13.06 245.284.497 300.532.497c55.22 0 102.13 12.564 149.952 40.177 47.856 27.641 82.206 61.987 109.849 109.843 27.607 47.828 40.17 94.767 40.17 150.015 0 55.22-12.563 102.13-40.17 149.98-27.643 47.828-61.993 82.208-109.85 109.815-47.822 27.608-94.73 40.17-149.95 40.17-55.25 0-102.188-12.562-150.05-40.17C102.657 532.72 68.277 498.34 40.67 450.512 13.06 402.662.503 355.752.503 300.532Z"/>
    <path fill="#154889" d="M14.503 300.497c0-52.626 11.977-97.392 38.325-142.968 26.313-45.605 59.1-78.393 104.677-104.707 45.571-26.347 90.366-38.325 143.028-38.325 52.63 0 97.362 12.012 142.933 38.325 45.612 26.348 78.365 59.102 104.713 104.707 26.314 45.576 38.325 90.342 38.325 142.968 0 52.662-11.978 97.428-38.325 143-26.314 45.575-59.101 78.363-104.713 104.677-45.571 26.347-90.302 38.325-142.933 38.325-52.662 0-97.457-11.978-143.028-38.325-45.576-26.314-78.364-59.102-104.677-104.678-26.348-45.571-38.325-90.337-38.325-142.999z"/>
    <path fill="#fff" d="m350.727 69.057-.136 8.525.269-8.338 89.214 89.135-.108 64.828-64.375-63.173.185 371.91-51.44-.054.083-86.406c-5.069-35.728-24.805-60.372-67.959-69.322l-93.975-.107 62.691 63.55-65.66.185-88.545-89.775 8.526.131-8.34-.239 89.135-89.213 64.805.077-62.48 62.666 90.313-.615c28.179 2.207 51.537 10.195 71.596 22.14l.161-184.39-63.55 62.69-.19-65.66 89.78-88.545z"/>
  </g>
</svg>
