<svg xmlns="http://www.w3.org/2000/svg" xml:space="preserve" viewBox="0 0 601 601">
  <g fill-rule="evenodd">
    <path d="M300.469 0c-55.293 0-102.31 12.592-150.2 40.239-47.925 27.681-82.349 62.105-110.03 110.03C12.593 198.159 0 245.205 0 300.532c0 55.293 12.592 102.314 40.239 150.234 27.681 47.891 62.105 82.349 110.03 109.995 47.89 27.648 94.907 40.24 150.2 40.24 55.327 0 102.372-12.592 150.297-40.24 47.891-27.646 82.349-62.104 109.995-109.995 27.648-47.92 40.24-94.941 40.24-150.234 0-55.322-12.592-102.373-40.24-150.263-27.646-47.925-62.103-82.354-109.995-110.03C402.841 12.592 355.796 0 300.47 0zm0 .497c55.249 0 102.192 12.564 150.049 40.177 47.827 27.641 82.207 61.987 109.815 109.843 27.607 47.828 40.165 94.767 40.165 150.015 0 55.22-12.558 102.13-40.166 149.985-27.607 47.823-61.987 82.203-109.815 109.81-47.856 27.608-94.8 40.17-150.048 40.17-55.215 0-102.129-12.562-149.951-40.17-47.857-27.607-82.203-61.987-109.844-109.81C13.06 402.661.498 355.752.498 300.532c0-55.248 12.563-102.187 40.176-150.015 27.641-47.856 61.987-82.202 109.844-109.843C198.34 13.06 245.254.497 300.467.497z"/>
    <path fill="#fff" d="M600.498 300.532c0-55.248-12.558-102.187-40.165-150.015-27.608-47.856-61.988-82.202-109.815-109.843C402.656 13.06 355.718.497 300.468.497c-55.22 0-102.128 12.564-149.95 40.177C102.66 68.315 68.31 102.66 40.668 150.517 13.062 198.345.499 245.284.499 300.532c0 55.22 12.563 102.13 40.17 149.98 27.642 47.828 61.993 82.208 109.85 109.815 47.822 27.608 94.73 40.17 149.95 40.17 55.25 0 102.188-12.562 150.05-40.17 47.827-27.607 82.207-61.987 109.815-109.815 27.607-47.85 40.165-94.76 40.165-149.98z"/>
    <path fill="#154889" d="M586.499 300.497c0-52.626-11.978-97.392-38.325-142.968-26.314-45.605-59.102-78.393-104.678-104.707-45.571-26.347-90.366-38.325-143.027-38.325-52.632 0-97.364 12.012-142.935 38.325C111.924 79.17 79.17 111.924 52.823 157.53c-26.314 45.576-38.325 90.342-38.325 142.968 0 52.662 11.977 97.428 38.325 143 26.313 45.575 59.1 78.363 104.71 104.677 45.572 26.347 90.305 38.325 142.936 38.325 52.661 0 97.456-11.978 143.027-38.325 45.577-26.314 78.364-59.102 104.678-104.678 26.347-45.571 38.325-90.337 38.325-142.999z"/>
    <path fill="#fff" d="m250.279 69.057.131 8.525-.269-8.338-89.213 89.135.107 64.828 64.375-63.173-.185 371.91 51.44-.054-.083-86.406c5.068-35.728 24.804-60.372 67.96-69.322l93.974-.107-62.691 63.55 65.66.185 88.544-89.775-8.525.131 8.34-.239-89.137-89.213-64.803.077 62.48 62.666-90.313-.615c-28.179 2.207-51.534 10.195-71.596 22.14l-.161-184.39 63.55 62.69.19-65.66-89.775-88.545z"/>
  </g>
</svg>
