<svg xmlns="http://www.w3.org/2000/svg" xml:space="preserve" viewBox="0 0 602.3 602.3">
  <path fill-rule="evenodd" d="M513.53 88.829c39.097 39.096 63.438 81.245 77.754 134.657 14.316 53.463 14.316 102.144 0 155.605-14.312 53.414-38.676 95.586-77.798 134.708-39.096 39.096-81.25 63.442-134.687 77.778-53.433 14.292-102.144 14.312-155.576-.025-53.418-14.316-95.567-38.657-134.663-77.753-39.121-39.122-63.486-81.294-77.823-134.732-14.316-53.413-14.316-102.143 0-155.556 14.337-53.432 38.677-95.586 77.78-134.682 39.114-39.122 81.293-63.488 134.7-77.804 53.438-14.335 102.15-14.316 155.587-.024 53.432 14.34 95.605 38.701 134.726 77.828zm-.351.351c-39.068-39.068-81.143-63.379-134.506-77.695-53.365-14.273-101.964-14.298-155.323.024-53.345 14.297-95.415 38.603-134.482 77.671-39.044 39.047-63.335 81.099-77.652 134.457-14.292 53.34-14.292 101.96.005 155.298 14.317 53.365 38.628 95.44 77.695 134.507 39.043 39.043 81.099 63.33 134.434 77.627 53.364 14.317 101.958 14.292 155.323.025 53.363-14.317 95.415-38.604 134.462-77.647 39.068-39.067 63.374-81.142 77.666-134.487 14.296-53.384 14.296-101.958 0-155.341-14.287-53.34-38.58-95.397-77.622-134.439z"/>
  <path fill="#fff" fill-rule="evenodd" d="M88.867 89.18c39.068-39.068 81.138-63.374 134.483-77.671 53.359-14.322 101.957-14.297 155.322-.024 53.364 14.321 95.44 38.627 134.507 77.695 39.047 39.042 63.335 81.099 77.622 134.439 14.296 53.383 14.296 101.962.005 155.346-14.297 53.34-38.604 95.415-77.671 134.482-39.048 39.043-81.099 63.33-134.459 77.647-53.363 14.272-101.962 14.292-155.326-.025-53.335-14.297-95.386-38.579-134.434-77.627C49.85 474.375 25.543 432.3 11.221 378.935c-14.297-53.339-14.297-101.958 0-155.303C25.532 170.28 49.824 128.227 88.867 89.18z"/>
  <path fill="#154889" fill-rule="evenodd" d="M98.794 99.057c37.212-37.21 77.333-60.4 128.194-73.993 50.853-13.643 97.22-13.643 148.056-.025 50.855 13.593 91.001 36.802 128.237 74.038 37.216 37.217 60.351 77.34 73.97 128.17 13.618 50.883 13.618 97.202.005 148.08-13.623 50.835-36.782 90.982-73.995 128.193-37.241 37.236-77.362 60.425-128.217 74.019-50.835 13.618-97.203 13.618-148.061-.024-50.856-13.594-90.953-36.759-128.17-73.97-37.236-37.241-60.444-77.383-74.033-128.238-13.622-50.835-13.622-97.202 0-148.037 13.589-50.854 36.778-90.976 74.014-128.213z"/>
  <path fill="#fff" d="M304.204 133.847c0 13.522-10.938 24.473-24.453 24.473-13.506 0-24.458-10.951-24.458-24.473 0-13.5 10.952-24.452 24.458-24.452 13.515 0 24.453 10.951 24.453 24.452zM271.6 260.215l32.525-16.309-12.984-23.115-33.965 17.016 14.424 22.408zM133.007 451.797v-85.606l62.29-40.761-3.26-7.525a73.397 73.397 0 0 1-2.642-51.211l-23.77-43.159-57.07 12.226-12.226-12.226 48.906-57.07v-24.454l16.307 16.309a81.52 81.52 0 0 1 68.556 37.407l15.986 24.85 35.074-17.583-2.35-4.17c-6.615-11.773-2.427-26.685 9.346-33.302 11.787-6.61 26.7-2.426 33.311 9.347l33.164 59.057c5.02 8.965 2.607 20.268-5.659 26.366l29.521-5.205a65.375 65.375 0 0 1 47.422 9.908l10.83-10.83c19.102-19.101 50.078-19.101 69.175 0a48.664 48.664 0 0 1 12.65 21.904l7.8 28.99-30.567 16.308-6.523-37.182c-2.52-14.41-16.245-24.058-30.66-21.529a26.504 26.504 0 0 0-14.17 7.359l-5.928 5.932a65.183 65.183 0 0 1 12.653 65.488l32.4 53.521-12.24 77.441-23.12 7.935 12.212-77.44-57.71-45.026 7.48 57.251-36.694 69.297h-24.458l36.7-69.297-36.153-63.955a244.36 244.36 0 0 1-112.377.664l38.47 112.198-4.082 20.39h-20.385l4.077-20.39-48.907-112.999L153.4 382.5v57.07"/>
</svg>
