<svg xmlns="http://www.w3.org/2000/svg" xml:space="preserve" viewBox="0 0 602.021 602.023">
  <path fill-rule="evenodd" d="M513.53 88.552c39.095 39.093 63.44 81.245 77.751 134.656 14.318 53.464 14.318 102.147 0 155.604-14.308 53.417-38.672 95.59-77.797 134.71-39.093 39.098-81.25 63.442-134.687 77.78-53.433 14.286-102.141 14.307-155.573-.026-53.417-14.317-95.568-38.656-134.667-77.755-39.12-39.12-63.484-81.292-77.817-134.73-14.319-53.416-14.319-102.146 0-155.556 14.333-53.432 38.672-95.59 77.776-134.683 39.115-39.12 81.29-63.49 134.703-77.807 53.437-14.333 102.145-14.313 155.584-.021 53.432 14.339 95.604 38.703 134.728 77.828zm-.353.35c-39.068-39.069-81.141-63.375-134.505-77.694-53.365-14.276-101.964-14.296-155.323.021-53.344 14.298-95.417 38.604-134.485 77.672C49.823 127.948 25.531 170 11.214 223.36c-14.293 53.339-14.293 101.957.005 155.296 14.317 53.365 38.63 95.443 77.698 134.51 39.042 39.042 81.099 63.329 134.432 77.626 53.364 14.317 101.958 14.292 155.323.025 53.364-14.317 95.416-38.604 134.464-77.645 39.067-39.068 63.375-81.145 77.667-134.49 14.296-53.385 14.296-101.958 0-155.343-14.287-53.34-38.584-95.396-77.626-134.438z"/>
  <path fill="#fff" fill-rule="evenodd" d="M88.864 88.901c39.068-39.068 81.141-63.374 134.485-77.672 53.359-14.317 101.958-14.297 155.323-.021 53.364 14.319 95.437 38.625 134.505 77.693 39.047 39.042 63.339 81.099 77.626 134.438 14.296 53.385 14.296 101.964.004 155.349-14.296 53.339-38.604 95.416-77.671 134.484-39.048 39.041-81.1 63.328-134.459 77.645-53.365 14.27-101.964 14.292-155.328-.025-53.333-14.297-95.385-38.579-134.432-77.625C49.85 474.099 25.541 432.02 11.22 378.656c-14.298-53.339-14.298-101.957 0-155.301C25.53 170 49.823 127.948 88.864 88.9z"/>
  <path fill="#154889" fill-rule="evenodd" d="M98.792 98.781c37.213-37.213 77.333-60.401 128.197-73.994 50.85-13.642 97.219-13.642 148.052-.027 50.86 13.595 91.006 36.803 128.24 74.043 37.214 37.213 60.35 77.338 73.97 128.166 13.618 50.886 13.618 97.203.004 148.083-13.624 50.833-36.782 90.98-73.995 128.193-37.239 37.234-77.359 60.422-128.219 74.015-50.833 13.62-97.202 13.62-148.057-.02-50.859-13.595-90.953-36.761-128.172-73.975-37.233-37.238-60.443-77.38-74.03-128.233-13.626-50.839-13.626-97.204 0-148.037 13.587-50.854 36.775-90.98 74.01-128.214z"/>
  <path fill="#fff" d="M50.14 311.057h501.745v9.995H50.14Z"/>
  <path fill="#fff" d="M362.76 160.817c0-9.328-7.557-16.885-16.885-16.885-9.328 0-16.886 7.557-16.886 16.885 0 9.328 7.558 16.886 16.886 16.886s16.885-7.558 16.885-16.886zm-82.01-98.89c0 10.66-8.646 19.292-19.297 19.292-10.646 0-19.297-8.631-19.297-19.292 0-10.651 8.65-19.296 19.297-19.296 10.651 0 19.298 8.645 19.298 19.296zm-38.594 98.422 3.385-3.322a4.822 4.822 0 0 0 1.443-3.443v-36.177a2.414 2.414 0 1 0-4.828 0zm-28.943 55.948a97.523 97.523 0 0 1 23.104-49.818 33.773 33.773 0 0 1-8.629-22.547v-19.296c0-18.641 15.124-33.767 33.765-33.767a33.81 33.81 0 0 1 29.964 18.172l20.036 38.516c2.902 5.568 1.88 12.396-2.546 16.855l19.9 16.733a26.559 26.559 0 0 0 24.365 5.188l3.563-1.016a9.601 9.601 0 0 1 10.088 3.142l24.546 29.822c4.172 5.068 3.516 12.547-1.473 16.812l-22.312-26.036 7.233 36.183-9.233 1.364 5.536 35.073a6.025 6.025 0 0 1-11.865 2.094l-6.859-35.208-7.812 1.15L341.021 288c-.302 3.328-3.245 5.765-6.552 5.448-3.229-.303-5.662-3.11-5.464-6.355l4.807-82.858-34.343-32.48a12.078 12.078 0 0 1 .578-14.776l-21.391-41.083c-.344-.713-1.244-.984-1.959-.62-.468.256-.77.74-.77 1.287v37.016c0 1.29.516 2.53 1.437 3.442l4.281 4.219a97.501 97.501 0 0 1 28.048 55.052zm50.651 4.823h14.475v65.125c0 3.99-3.23 7.234-7.235 7.234-3.99 0-7.24-3.244-7.24-7.234zm-19.296 0h14.473v50.65c0 3.99-3.229 7.24-7.234 7.24-3.99 0-7.239-3.25-7.239-7.24"/>
  <path fill="#fff" d="M406.812 515.781c-24.515 7.282-50.285-6.693-57.583-31.202a22.87 22.87 0 0 1-.432-1.626h47.724a5.774 5.774 0 0 0 5.782-5.776c0-.817-.172-1.625-.5-2.365l-21.36-47.817c24.516-7.282 50.292 6.688 57.573 31.204 7.281 24.514-6.693 50.29-31.21 57.588zm-36.968-84.136 17.765 39.735h-40.276c0-16.281 8.536-31.375 22.511-39.735zM335.74 471.38h-11.573l28.942-77.187 11.984 26.823a57.885 57.885 0 0 0-29.353 50.364zm-23.71-.625-72.483-80.416h102.641zm-61.451 19.75c-10.558 23.287-38 33.62-61.303 23.058-23.287-10.574-33.615-38-23.057-61.298 8.734-19.27 29.396-30.161 50.224-26.49l-13.574 43.886a5.803 5.803 0 0 0 3.803 7.256c3.068.938 6.312-.761 7.255-3.824l13.573-43.905c23.303 10.577 33.636 38.015 23.073 61.317zm198.088-37.073c-9.907-30.385-42.583-47-72.984-37.093l-16.776-37.574 4.338-11.588h13.015v-11.562h-49.197c-1.334 0-2.516.912-2.818 2.213-.385 1.552.594 3.11 2.135 3.49l24.484 5.854-4.323 11.588h-103.41l4.64-15a11.567 11.567 0 0 1 11.057-8.145h19.027v-11.58h-19.027c-10.145 0-19.115 6.6-22.115 16.298l-16.812 54.308c-26.984-5.464-54.078 8.828-64.817 34.176-12.459 29.443 1.301 63.412 30.75 75.866 29.442 12.468 63.406-1.303 75.863-30.735 12.47-29.443-1.301-63.412-30.733-75.864l4.593-14.881 68.432 75.922a11.537 11.537 0 0 0 8.59 3.823h24.333c.437 2.156 1 4.281 1.681 6.375 9.907 30.4 42.584 47.01 72.986 37.089 30.385-9.907 46.994-42.584 37.088-72.985"/>
</svg>
