<svg xmlns="http://www.w3.org/2000/svg" xml:space="preserve" viewBox="0 0 602.022 602.024">
  <path fill-rule="evenodd" d="M513.53 88.552c39.1 39.093 63.44 81.245 77.757 134.656 14.312 53.464 14.312 102.147 0 155.604-14.314 53.417-38.678 95.59-77.798 134.71-39.098 39.098-81.254 63.442-134.692 77.78-53.433 14.291-102.141 14.313-155.573-.026-53.417-14.317-95.568-38.656-134.667-77.755-39.12-39.12-63.484-81.292-77.817-134.73-14.319-53.416-14.319-102.146 0-155.556 14.333-53.432 38.672-95.59 77.776-134.683 39.115-39.12 81.296-63.49 134.703-77.807 53.437-14.333 102.145-14.313 155.584-.021 53.432 14.339 95.609 38.703 134.728 77.828zm-.353.35c-39.062-39.069-81.141-63.375-134.505-77.694-53.365-14.276-101.964-14.296-155.323.021-53.344 14.298-95.412 38.604-134.48 77.672C49.823 127.948 25.531 170 11.213 223.36c-14.292 53.339-14.292 101.957.006 155.296 14.317 53.365 38.63 95.443 77.698 134.51 39.042 39.042 81.099 63.329 134.432 77.626 53.364 14.317 101.958 14.292 155.323.025 53.364-14.317 95.416-38.604 134.464-77.645 39.067-39.068 63.375-81.145 77.667-134.49 14.296-53.385 14.296-101.958 0-155.338C576.516 170 552.224 127.943 513.177 88.9z"/>
  <path fill="#fff" fill-rule="evenodd" d="M88.87 88.901c39.067-39.068 81.135-63.374 134.48-77.672 53.358-14.317 101.957-14.297 155.322-.021 53.364 14.319 95.443 38.625 134.505 77.693 39.052 39.042 63.339 81.099 77.626 134.443 14.296 53.38 14.296 101.959.004 155.344-14.296 53.339-38.604 95.416-77.671 134.484-39.048 39.041-81.1 63.328-134.459 77.645-53.365 14.27-101.964 14.292-155.328-.025-53.333-14.297-95.385-38.579-134.432-77.625C49.85 474.099 25.541 432.02 11.22 378.656c-14.298-53.339-14.298-101.957 0-155.301C25.53 170 49.823 127.948 88.869 88.9z"/>
  <path fill="#154889" fill-rule="evenodd" d="M98.792 98.781c37.213-37.213 77.333-60.401 128.197-73.994 50.855-13.642 97.219-13.642 148.058-.027 50.854 13.595 91 36.803 128.234 74.043 37.219 37.213 60.355 77.338 73.97 128.166 13.618 50.886 13.618 97.203.004 148.083-13.619 50.833-36.782 90.98-73.995 128.193-37.239 37.234-77.359 60.422-128.213 74.015-50.839 13.62-97.203 13.62-148.063-.02-50.859-13.595-90.953-36.761-128.172-73.97-37.233-37.243-60.443-77.385-74.03-128.238-13.626-50.833-13.626-97.204 0-148.037 13.587-50.854 36.775-90.98 74.01-128.214z"/>
  <path fill="#fff" d="M280.943 50.13h9.994v501.74h-9.994z"/>
  <path fill="#fff" d="M217.13 293.787c0-9.334-7.557-16.886-16.885-16.886-9.328 0-16.885 7.552-16.885 16.886 0 9.312 7.557 16.864 16.885 16.864 9.328 0 16.886-7.552 16.886-16.864zm-82.01-98.896c0 10.65-8.647 19.297-19.297 19.297-10.646 0-19.296-8.647-19.296-19.297 0-10.651 8.65-19.298 19.296-19.298 10.65 0 19.297 8.647 19.297 19.298zm-38.593 98.42 3.385-3.332a4.768 4.768 0 0 0 1.443-3.427v-36.183a2.41 2.41 0 0 0-2.412-2.41 2.41 2.41 0 0 0-2.416 2.41zM67.584 349.26a97.508 97.508 0 0 1 23.104-49.817 33.784 33.784 0 0 1-8.63-22.542v-19.297c0-18.661 15.125-33.77 33.765-33.77a33.805 33.805 0 0 1 29.964 18.177l20.036 38.516a14.474 14.474 0 0 1-2.547 16.853l19.901 16.719a26.53 26.53 0 0 0 24.364 5.188l3.563-1.016c3.688-1.047 7.647.213 10.09 3.156l24.546 29.824c4.172 5.066 3.515 12.53-1.475 16.806l-22.312-26.03 7.235 36.18-9.25 1.366 5.551 35.072c.527 3.276-1.718 6.37-5.01 6.902-3.198.5-6.25-1.626-6.854-4.807l-6.844-35.23-7.828 1.173-3.562 38.292c-.303 3.322-3.246 5.744-6.568 5.442a6.017 6.017 0 0 1-5.448-6.354l4.813-82.86-34.35-32.495a12.054 12.054 0 0 1 .58-14.76l-21.391-41.079c-.344-.713-1.24-.984-1.954-.624a1.472 1.472 0 0 0-.776 1.29v37.012a4.75 4.75 0 0 0 1.443 3.428l4.276 4.233a97.507 97.507 0 0 1 28.052 55.052zm50.65 4.824h14.474v65.124c0 3.99-3.23 7.224-7.235 7.224-3.994 0-7.238-3.233-7.238-7.224zm-19.297 0h14.475v50.64c0 4-3.245 7.25-7.235 7.25-3.989 0-7.24-3.245-7.24-7.25"/>
  <path fill="#fff" d="M528.901 382.073c-20.828 6.192-42.745-5.688-48.937-26.532-.125-.457-.256-.91-.385-1.37h40.577a4.912 4.912 0 0 0 4.917-4.911c0-.697-.172-1.38-.433-2.015L506.484 306.6c20.828-6.187 42.75 5.693 48.937 26.52 6.194 20.845-5.686 42.766-26.53 48.954zm-31.417-71.51 15.1 33.78h-34.24a39.37 39.37 0 0 1 19.14-33.78zm-28.99 33.78h-9.827l24.588-65.624 10.182 22.802a49.248 49.248 0 0 0-24.942 42.823zm-20.145-.526-61.62-68.358h87.26zm-52.245 16.762c-8.979 19.812-32.297 28.582-52.093 19.604-19.814-8.97-28.579-32.287-19.615-52.1 7.432-16.38 25-25.635 42.703-22.51l-11.542 37.302a4.921 4.921 0 0 0 3.246 6.16c2.577.804 5.337-.655 6.161-3.227l11.541-37.319c19.798 8.98 28.568 32.298 19.599 52.095zm168.375-31.491c-8.422-25.837-36.198-39.957-62.015-31.541l-14.276-31.932 3.687-9.844h11.073v-9.844h-41.823a2.458 2.458 0 0 0-2.396 1.896 2.467 2.467 0 0 0 1.818 2.958l20.813 4.99-3.683 9.844h-87.896l3.943-12.755a9.84 9.84 0 0 1 9.39-6.933h16.189v-9.834h-16.188a19.656 19.656 0 0 0-18.782 13.855l-14.306 46.161c-22.923-4.645-45.964 7.506-55.079 29.047-10.588 25.032 1.104 53.901 26.12 64.49 25.03 10.589 53.901-1.105 64.505-26.12 10.588-25.031-1.125-53.917-26.141-64.505l3.912-12.62 58.167 64.53a9.853 9.853 0 0 0 7.306 3.246h20.662c.39 1.839.854 3.646 1.442 5.416 8.423 25.834 36.183 39.943 62.032 31.527 25.834-8.421 39.959-36.199 31.52-62.032"/>
</svg>
