<svg xmlns="http://www.w3.org/2000/svg" xml:space="preserve" viewBox="0 0 602.021 602.023">
  <path fill-rule="evenodd" d="M513.53 88.552c39.095 39.093 63.44 81.245 77.751 134.656 14.318 53.464 14.318 102.147 0 155.604-14.308 53.417-38.672 95.59-77.797 134.71-39.093 39.098-81.25 63.442-134.687 77.78-53.433 14.286-102.141 14.307-155.573-.026-53.417-14.317-95.568-38.656-134.667-77.755-39.12-39.12-63.484-81.292-77.817-134.73-14.319-53.416-14.319-102.146 0-155.556 14.333-53.432 38.672-95.59 77.776-134.683 39.115-39.12 81.29-63.49 134.703-77.807 53.437-14.333 102.145-14.313 155.584-.021 53.432 14.339 95.604 38.703 134.728 77.828zm-.353.35c-39.068-39.069-81.141-63.375-134.505-77.694-53.365-14.276-101.964-14.296-155.323.021-53.344 14.298-95.417 38.604-134.485 77.672C49.823 127.948 25.531 170 11.214 223.36c-14.293 53.339-14.293 101.957.005 155.296 14.317 53.365 38.63 95.443 77.698 134.51 39.042 39.042 81.099 63.329 134.432 77.626 53.364 14.317 101.958 14.292 155.323.025 53.364-14.317 95.416-38.604 134.464-77.645 39.067-39.068 63.375-81.145 77.667-134.49 14.296-53.385 14.296-101.958 0-155.343-14.287-53.34-38.584-95.396-77.626-134.438z"/>
  <path fill="#fff" fill-rule="evenodd" d="M88.864 88.901c39.068-39.068 81.141-63.374 134.485-77.672 53.359-14.317 101.958-14.297 155.323-.021 53.364 14.319 95.437 38.625 134.505 77.693 39.047 39.042 63.339 81.099 77.626 134.438 14.296 53.385 14.296 101.964.004 155.349-14.296 53.339-38.604 95.416-77.671 134.484-39.048 39.041-81.1 63.328-134.459 77.645-53.365 14.27-101.964 14.292-155.328-.025-53.333-14.297-95.385-38.579-134.432-77.625C49.85 474.099 25.541 432.02 11.22 378.656c-14.298-53.339-14.298-101.957 0-155.301C25.53 170 49.823 127.948 88.864 88.9z"/>
  <path fill="#154889" fill-rule="evenodd" d="M98.792 98.781c37.213-37.213 77.333-60.401 128.197-73.994 50.85-13.642 97.219-13.642 148.052-.027 50.86 13.595 91.006 36.803 128.24 74.043 37.214 37.213 60.35 77.338 73.97 128.166 13.618 50.886 13.618 97.203.004 148.083-13.624 50.833-36.782 90.98-73.995 128.193-37.239 37.234-77.359 60.422-128.219 74.015-50.833 13.62-97.202 13.62-148.057-.02-50.859-13.595-90.953-36.761-128.172-73.975-37.233-37.238-60.443-77.38-74.03-128.233-13.626-50.839-13.626-97.204 0-148.037 13.587-50.854 36.775-90.98 74.01-128.214z"/>
  <path fill="none" stroke="#fff" stroke-miterlimit="10" stroke-width="10.028" d="M316.068 551.839V50.15"/>
  <path fill="#fff" d="M252.99 382.057c-20.845 6.188-42.75-5.688-48.954-26.53-.13-.46-.26-.912-.385-1.371h40.578a4.914 4.914 0 0 0 4.916-4.91c0-.7-.129-1.38-.432-2.022l-18.156-40.64c20.844-6.188 42.746 5.692 48.938 26.52 6.188 20.844-5.688 42.761-26.516 48.953zm-31.433-71.51 15.094 33.78h-34.239a39.363 39.363 0 0 1 19.145-33.78zm-28.989 33.78h-9.828l24.588-65.624 10.193 22.802a49.199 49.199 0 0 0-24.953 42.823zm-20.147-.524-61.618-68.355h87.254zm-52.244 16.76c-8.964 19.812-32.297 28.582-52.109 19.598-19.797-8.962-28.563-32.281-19.599-52.093 7.432-16.365 25-25.636 42.703-22.51L79.625 342.86a4.928 4.928 0 0 0 3.25 6.161c2.594.802 5.338-.656 6.156-3.25l11.548-37.302c19.796 8.984 28.577 32.296 19.598 52.094zm168.386-31.49c-8.432-25.838-36.194-39.958-62.047-31.541l-14.256-31.933 3.683-9.844h11.073v-9.834h-41.823a2.464 2.464 0 0 0-2.396 1.882 2.467 2.467 0 0 0 1.823 2.957l20.812 4.995-3.687 9.844H113.85l3.943-12.76a9.841 9.841 0 0 1 9.405-6.918h16.172v-9.842h-16.172a19.69 19.69 0 0 0-18.806 13.848L94.1 296.104c-22.938-4.656-45.963 7.495-55.083 29.037-10.604 25.03 1.11 53.91 26.124 64.504 25.027 10.574 53.896-1.124 64.5-26.14 10.59-25.03-1.119-53.912-26.135-64.49l3.912-12.635 58.162 64.532a9.845 9.845 0 0 0 7.312 3.25h20.677c.385 1.833.85 3.64 1.427 5.417 8.417 25.817 36.198 39.942 62.032 31.52 25.833-8.416 39.957-36.192 31.536-62.031"/>
  <path fill="#fff" d="M513.125 293.77c0-9.333-7.568-16.885-16.885-16.885-9.328 0-16.885 7.552-16.885 16.886 0 9.313 7.557 16.865 16.885 16.865 9.317 0 16.885-7.552 16.885-16.865zm-82.01-98.895c0 10.666-8.646 19.297-19.298 19.297-10.645 0-19.296-8.63-19.296-19.297 0-10.651 8.651-19.296 19.296-19.296 10.652 0 19.298 8.645 19.298 19.296zm-38.594 98.422 3.386-3.333a4.776 4.776 0 0 0 1.442-3.432v-36.177a2.41 2.41 0 0 0-2.412-2.412 2.41 2.41 0 0 0-2.416 2.412zm-28.942 55.948a97.489 97.489 0 0 1 23.088-49.818 33.763 33.763 0 0 1-8.615-22.542v-19.297c0-18.661 15.11-33.77 33.765-33.77a33.805 33.805 0 0 1 29.964 18.177l20.036 38.516a14.452 14.452 0 0 1-2.562 16.854l19.922 16.728a26.54 26.54 0 0 0 24.359 5.178l3.552-1.016c3.688-1.047 7.663.214 10.105 3.157l24.531 29.823c4.172 5.068 3.536 12.53-1.459 16.806l-22.312-26.03 7.219 36.182-9.24 1.364 5.552 35.074c.532 3.29-1.73 6.374-5.005 6.905-3.198.496-6.25-1.624-6.859-4.812l-6.839-35.208-7.828 1.15-3.562 38.293c-.303 3.322-3.251 5.749-6.574 5.448a6.038 6.038 0 0 1-5.457-6.36l4.807-82.86-34.328-32.48a12.054 12.054 0 0 1 .578-14.775l-21.39-41.077a1.468 1.468 0 0 0-1.959-.626c-.47.26-.787.746-.787 1.292v37.015c0 1.292.531 2.532 1.459 3.428l4.276 4.23a97.482 97.482 0 0 1 28.052 55.051zm50.656 4.823h14.468v65.125c0 3.99-3.23 7.224-7.234 7.224a7.22 7.22 0 0 1-7.234-7.224zm-19.298 0h14.47v50.64c0 4-3.246 7.235-7.251 7.235-3.973 0-7.219-3.23-7.219-7.235"/>
</svg>
