<svg xmlns="http://www.w3.org/2000/svg" xmlns:xlink="http://www.w3.org/1999/xlink" xml:space="preserve" width="600.996" height="600.996" viewBox="0 0 600.996 600.996">
  <path fill="#fff" d="M600.498 300.498c0 165.688-134.312 300-300 300s-300-134.312-300-300 134.312-300 300-300 300 134.312 300 300z"/>
  <path d="M300.498 0C134.54 0 0 134.541 0 300.498s134.541 300.498 300.498 300.498 300.498-134.541 300.498-300.498S466.455 0 300.497 0zm0 .498c165.688 0 300 134.312 300 300s-134.312 300-300 300-300-134.312-300-300 134.312-300 300-300z"/>
  <path fill="#c1121c" d="M300.498 10.503c-159.683 0-290 130.312-290 289.995s130.317 290 290 290 289.996-130.317 289.996-290S460.18 10.503 300.498 10.503zm0 80.396c116.236 0 209.605 93.364 209.605 209.599 0 116.236-93.37 209.605-209.606 209.605-116.235 0-209.598-93.37-209.598-209.605 0-116.235 93.363-209.6 209.598-209.6z"/>
  <path d="M29.761 30.356h.064v.059h-.064v-.059zm208.828 191.05V332.29H468.28V221.406H238.59zm-15.83 27.705L154.11 253.4a7.918 7.918 0 0 0-6.909 5.131l-17.486 46.593c-1.332 3.558-1.986 7.333-1.986 11.122v43.75c0 4.38 3.525 7.93 7.9 7.93h3.975c0-19.687 15.951-35.635 35.639-35.635 19.687 0 35.635 15.948 35.635 35.635h142.569a35.707 35.707 0 0 1 13.227-27.735H222.759v-91.079zm-27.734 13.892v39.59l-52.579 6.172c-.151.014-.297.049-.449.049a3.972 3.972 0 0 1-3.975-3.975c0-.469.098-.958.26-1.396l13.275-35.397c.543-1.468 1.895-2.45 3.453-2.557l40.015-2.486zm-19.781 77.187c-15.313 0-27.734 12.423-27.734 27.735 0 15.308 12.421 27.71 27.734 27.71 15.307 0 27.705-12.402 27.705-27.71 0-15.312-12.398-27.735-27.705-27.735zm213.813 0c-15.307 0-27.71 12.423-27.71 27.735 0 15.308 12.403 27.71 27.71 27.71 15.313 0 27.735-12.402 27.735-27.71 0-15.312-12.422-27.735-27.735-27.735zm22.432 0a35.707 35.707 0 0 1 13.227 27.735h19.81l23.755-7.93V340.19H411.49z"/>
</svg>
