<svg xmlns="http://www.w3.org/2000/svg" xmlns:xlink="http://www.w3.org/1999/xlink" xml:space="preserve" width="600.995" height="600.995" viewBox="0 0 600.995 600.995">
  <path fill="#fff" d="M600.498 300.497c0 165.69-134.312 300-300 300s-300-134.31-300-300c0-165.687 134.312-300 300-300s300 134.313 300 300z"/>
  <path d="M300.498 0C134.54 0 0 134.541 0 300.497c0 165.958 134.541 300.5 300.498 300.5s300.498-134.542 300.498-300.5C600.996 134.541 466.455 0 300.497 0zm0 .497c165.688 0 300 134.313 300 300 0 165.69-134.312 300-300 300s-300-134.31-300-300c0-165.687 134.312-300 300-300z"/>
  <path fill="#c1121c" d="M300.498 10.497c-159.683 0-290 130.318-290 290 0 159.684 130.317 290 290 290s290-130.316 290-290c0-159.682-130.317-290-290-290zm0 80.402c116.236 0 209.6 93.363 209.6 209.598 0 116.237-93.364 209.6-209.6 209.6-116.235 0-209.6-93.363-209.6-209.6 0-116.235 93.365-209.598 209.6-209.598z"/>
  <path fill="none" stroke="#000" stroke-width="15.286" d="M252.154 341.109c0 33.984-27.544 61.527-61.529 61.527-33.98 0-61.529-27.543-61.529-61.527 0-33.98 27.549-61.529 61.529-61.529 33.985 0 61.529 27.549 61.529 61.529zm219.746-1.148c0 33.984-27.55 61.528-61.529 61.528-33.985 0-61.529-27.544-61.529-61.528 0-33.98 27.544-61.528 61.53-61.528 33.978 0 61.528 27.548 61.528 61.528z"/>
  <path fill-rule="evenodd" d="M272.593 190.717c-50.66.494-42.07-5.233-69.327 82.36-22.201 69.99-19.785 62.358-19.902 67.27-.083 3.813 2.999 6.835 6.866 7.094 8.046-.815 4.663.869 32.558-85.751 101.928 107.524 63.687 90.087 118.54 92.27 72.095-.694 77.955 3.755 78.808-6.816-.097-3.584-1.776-5.728-51.255-115.84l4.742-13.038 16.295-.292-.592-13.628H328.59c-5.366 7.339 2.172 7.304 29.331 13.33l-4.741 13.33-121.173.298c8.165-28.507 3.555-26.729 40.294-26.665l.293-13.922zm-44.087 55.2 118.569-.21-34.267 92.08-84.302-91.87zm132.867 5.464-33.638 88.296 73.579.215-39.941-88.51z"/>
</svg>
