<svg xmlns="http://www.w3.org/2000/svg" xmlns:xlink="http://www.w3.org/1999/xlink" xml:space="preserve" width="600.995" height="600.995" viewBox="0 0 600.995 600.995">
  <path fill="#fff" d="M600.498 300.497c0 165.69-134.312 300-300 300s-300-134.31-300-300c0-165.687 134.312-300 300-300s300 134.313 300 300z"/>
  <path d="M300.498 0C134.54 0 0 134.541 0 300.497c0 165.958 134.541 300.5 300.498 300.5s300.498-134.542 300.498-300.5C600.996 134.541 466.455 0 300.497 0zm0 .497c165.688 0 300 134.313 300 300 0 165.69-134.312 300-300 300s-300-134.31-300-300c0-165.687 134.312-300 300-300z"/>
  <path fill="#c1121c" d="M300.498 10.497c-159.683 0-290 130.318-290 290 0 159.684 130.317 290 290 290s290-130.316 290-290c0-159.682-130.317-290-290-290zm0 80.402c116.236 0 209.6 93.363 209.6 209.598 0 116.237-93.364 209.6-209.6 209.6-116.235 0-209.6-93.363-209.6-209.6 0-116.235 93.365-209.598 209.6-209.598z"/>
  <path d="M29.761 30.356h.064v.059h-.064v-.059zm173.984 312.969c0 16.162-13.105 29.262-29.262 29.262-16.163 0-29.263-13.1-29.263-29.262 0-16.158 13.1-29.258 29.263-29.258 16.157 0 29.262 13.1 29.262 29.258z"/>
  <path fill-rule="evenodd" d="M267.838 231.577c1.557-1.807 3.33-3.355 6.61-3.155h141.563l70.351 55.865c.777 1.64 1.172 2.895 1.368 3.96l.268 49.502c-1.308 2.837-2.847 5.258-5.59 5.512h-16.33c0-48.397-71.547-48.495-71.547 0H210.7c0-48.212-72.09-48.397-72.09 0h-19.923c-1.699-.795-3.227-.057-5.469-5.761l-.22-35.6c1.158-3.238 2.603-4.474 4.044-5.728l103.477-17.192 47.32-47.403z"/>
  <path d="M459.263 343.315c0 16.162-13.1 29.264-29.258 29.264-16.162 0-29.262-13.102-29.262-29.264 0-16.161 13.1-29.263 29.262-29.263 16.158 0 29.258 13.102 29.258 29.263z"/>
  <path fill="#fff" fill-rule="evenodd" d="m235.015 279.531 35.264-34.795c.79-.674 1.42-1.606 2.802-1.401h62.7v42.617H237.7c-3.735-1.47-4.237-3.7-2.685-6.42zm198.184-4.355-30.215-30.435c-.796-.674-1.421-1.601-2.803-1.401h-52.75v42.622h89.898c4.254-.85-1.343-6.592-4.13-10.786z"/>
</svg>
