<svg xmlns="http://www.w3.org/2000/svg" xmlns:xlink="http://www.w3.org/1999/xlink" xml:space="preserve" width="600.995" height="600.995" viewBox="0 0 600.995 600.995">
  <path fill="#fff" d="M600.498 300.497c0 165.69-134.312 300-300 300s-300-134.31-300-300c0-165.687 134.312-300 300-300s300 134.313 300 300z"/>
  <path d="M300.498 0C134.54 0 0 134.541 0 300.497c0 165.958 134.541 300.5 300.498 300.5s300.498-134.542 300.498-300.5C600.996 134.541 466.455 0 300.497 0zm0 .497c165.688 0 300 134.313 300 300 0 165.69-134.312 300-300 300s-300-134.31-300-300c0-165.687 134.312-300 300-300z"/>
  <path fill="#c1121c" d="M300.498 10.502c-159.683 0-290 130.313-290 289.995 0 159.684 130.317 289.997 290 289.997S590.494 460.18 590.494 300.497c0-159.682-130.313-289.995-289.996-289.995zm0 80.397c116.236 0 209.605 93.363 209.605 209.598 0 116.237-93.37 209.605-209.606 209.605-116.235 0-209.598-93.368-209.598-209.605 0-116.235 93.363-209.598 209.598-209.598z"/>
  <path d="M29.761 30.356h.064v.059h-.064v-.059zm72.895 265.141V285.47H498.33v10.028H102.656zm212.856-158.535c-6.903-4.36-15.78-4.013-22.305.894l-5.8 4.38-7.315 1.045v-11.45l13.37-1.909v-9.54l-13.506 1.923c2.09-10.63 12.403-17.539 23.033-15.45 10.615 2.11 17.539 12.422 15.434 23.052a19.614 19.614 0 0 1-2.91 7.055zm19.493 116.035c-41.645-1.225-63.301 2.047-67.485-18.412l-.845-3.891c-4.893-17.828-21.9-29.552-40.313-27.764-6.528-13.233-13.07-27.134 31.045-40.45a28.468 28.468 0 0 0-.806 7.076l38.575-29.077c7.206-5.44 17.46-3.999 22.88 3.207l20.386 27.066-21.67 16.323-22.402-29.711-34.194 25.776a28.672 28.672 0 0 0 18.901 14.067 8.167 8.167 0 0 1 8.15-7.51h31.498l21.685-16.342 7.984 10.585a16.266 16.266 0 0 1 2.769 5.757h32.06c2.256 0 4.072 2.92 4.072 6.524 0 3.623-1.816 6.543-4.072 6.543h-12.265c-20.978 0-38 16.992-38 37.983 0 4.165.7 8.3 2.047 12.25zm58.427-12.25c0-12.402-10.072-22.46-22.475-22.46-12.402 0-22.46 10.058-22.46 22.46 0 12.403 10.058 22.46 22.46 22.46 12.403 0 22.475-10.057 22.475-22.46zm12.252 0c0 19.17-15.556 34.712-34.726 34.712-19.175 0-34.728-15.542-34.728-34.712 0-19.175 15.553-34.727 34.727-34.727 19.17 0 34.727 15.552 34.727 34.727zm-153.169 0c0-12.402-10.074-22.46-22.476-22.46-12.403 0-22.456 10.058-22.456 22.46 0 12.403 10.053 22.46 22.456 22.46 12.402 0 22.476-10.057 22.476-22.46zm12.251 0c0 19.17-15.552 34.712-34.727 34.712-19.17 0-34.706-15.542-34.706-34.712 0-19.175 15.536-34.727 34.706-34.727 19.175 0 34.727 15.552 34.727 34.727m-23.882 79.804c-4.756 0-9.038 2.784-10.933 7.144l-18.882 43.374a42.605 42.605 0 0 1-4.995 8.613l-2.862 3.81a14.302 14.302 0 0 0-2.885 8.588v31.001c0 6.586 5.337 11.924 11.924 11.924H388.75c6.572 0 11.929-5.338 11.929-11.924V392.08c0-3.1-1.016-6.104-2.866-8.589l-2.887-3.809a43.647 43.647 0 0 1-5.014-8.613l-18.862-43.374a11.904 11.904 0 0 0-10.928-7.144H240.884zm2.886 11.9h113.461a4.837 4.837 0 0 1 4.405 2.866l16.371 37.695H222.994l16.401-37.695a4.793 4.793 0 0 1 4.375-2.866zm-17.203 52.461c7.905 0 14.317 6.435 14.317 14.34 0 7.892-6.411 14.317-14.316 14.317-7.906 0-14.317-6.425-14.317-14.317 0-7.905 6.411-14.34 14.316-14.34zm147.867 0c7.905 0 14.316 6.435 14.316 14.34 0 7.892-6.411 14.317-14.316 14.317-7.905 0-14.311-6.425-14.311-14.317 0-7.905 6.406-14.34 14.31-14.34zM212.25 439.785v26.221c0 3.95 3.193 7.168 7.149 7.168h14.316c3.95 0 7.168-3.218 7.168-7.168v-26.221H212.25zm147.872 0v26.221c0 3.95 3.192 7.168 7.143 7.168h14.317c3.95 0 7.167-3.218 7.167-7.168v-26.221h-28.627z"/>
</svg>
