<svg xmlns="http://www.w3.org/2000/svg" xml:space="preserve" width="601" height="601" viewBox="0 0 601 601">
  <path fill="#fff" d="M36.499.498C.42.479.497 36.504.497 36.504v527.998S.42 600.532 36.5 600.498h528.004c36.312.039 35.995-35.996 35.995-35.996V36.504S600.796.38 564.503.498H36.499z"/>
  <path fill="#154889" d="M36.499 12.5c-13.252 0-23.999 10.747-23.999 24v528.003c0 13.262 10.748 24 23.999 24h528.004c13.25 0 23.998-10.738 23.998-24V36.499c0-13.252-10.747-23.999-23.998-23.999H36.499z"/>
  <path d="M36.499 0C18.29-.01 9.072 9.145 4.52 18.272-.029 27.398 0 36.509 0 36.509v527.993s-.025 9.11 4.521 18.232c4.551 9.126 13.77 18.281 31.978 18.268h528.004c18.32.018 27.543-9.142 32.065-18.268 4.516-9.121 4.433-18.227 4.433-18.232V36.504c0-.005.078-9.136-4.443-18.266C592.036 9.102 582.813-.058 564.503 0H36.499zm0 .498h528.004c36.293-.118 35.995 36.006 35.995 36.006v527.998s.317 36.035-35.995 35.996H36.499C.42 600.533.497 564.502.497 564.502V36.504S.42.479 36.5.498z"/>
  <g transform="matrix(1.25 0 0 -1.25 0 601)">
    <path fill="#fff" d="M80.453 448.523V32.676h319.895v415.847H80.453z"/>
  </g>
  <path fill="#0c0b09" fill-rule="evenodd" d="M163.038 545.415h-19.99v-99.971h19.99v99.971zm0-129.956h-19.99v-99.966h19.99v99.966zm0-129.966h-19.99v-99.951h19.99v99.95zm0-129.936h-19.99v-99.97h19.99v99.97zm169.946 278.896h-30v-65.971h30v65.97zm0-100.966h-30v-65.973h30v65.973zm0-100.968h-30v-65.971h30v65.971zm-30 312.896V475.45l124.97-64.985V190.537l-124.97-64.985V55.587h30v51.762l124.956 64.97v256.348l-124.956 64.97v51.778h-30"/>
</svg>
