<?xml version="1.0" encoding="UTF-8" standalone="no"?>
<!-- Created with Inkscape (http://www.inkscape.org/) -->
<svg xmlns:dc="http://purl.org/dc/elements/1.1/" xmlns:cc="http://web.resource.org/cc/" xmlns:rdf="http://www.w3.org/1999/02/22-rdf-syntax-ns#" xmlns:svg="http://www.w3.org/2000/svg" xmlns="http://www.w3.org/2000/svg" xmlns:sodipodi="http://sodipodi.sourceforge.net/DTD/sodipodi-0.dtd" xmlns:inkscape="http://www.inkscape.org/namespaces/inkscape" width="451" height="451" id="svg2" sodipodi:version="0.32" inkscape:version="0.44" version="1.0" sodipodi:docbase="C:\Documents and Settings\ltljltlj\Desktop\Signs\Guide Signs" sodipodi:docname="Hospital sign (Outline).svg">
  <defs id="defs4"/>
  <sodipodi:namedview id="base" pagecolor="#ffffff" bordercolor="#666666" borderopacity="1.0" gridtolerance="10000" guidetolerance="10" objecttolerance="10" inkscape:pageopacity="0.0" inkscape:pageshadow="2" inkscape:zoom="1.7155556" inkscape:cx="225" inkscape:cy="225" inkscape:document-units="px" inkscape:current-layer="layer1" width="451px" height="451px" inkscape:window-width="1280" inkscape:window-height="968" inkscape:window-x="-4" inkscape:window-y="-4"/>
  <metadata id="metadata7">
    <rdf:RDF>
      <cc:Work rdf:about="">
        <dc:format>image/svg+xml</dc:format>
        <dc:type rdf:resource="http://purl.org/dc/dcmitype/StillImage"/>
      </cc:Work>
    </rdf:RDF>
  </metadata>
  <g inkscape:label="Layer 1" inkscape:groupmode="layer" id="layer1">
    <path style="color:black;fill:white;fill-opacity:1;fill-rule:nonzero;stroke:black;stroke-width:1;stroke-linecap:butt;stroke-linejoin:miter;marker:none;marker-start:none;marker-mid:none;marker-end:none;stroke-miterlimit:4;stroke-dashoffset:0;stroke-opacity:1;visibility:visible;display:inline;overflow:visible" d="M 38,0.5 L 413,0.5 C 433.775,0.5 450.5,17.225 450.5,38 L 450.5,413 C 450.5,433.775 433.775,450.5 413,450.5 L 38,450.5 C 17.225,450.5 0.5,433.775 0.5,413 L 0.5,38 C 0.5,17.225 17.225,0.5 38,0.5 z " id="rect1872"/>
    <path style="color:black;fill:#003f87;fill-opacity:1;fill-rule:nonzero;stroke:none;stroke-width:0.8735441;stroke-linecap:butt;stroke-linejoin:miter;marker:none;marker-start:none;marker-mid:none;marker-end:none;stroke-miterlimit:4;stroke-dashoffset:0;stroke-opacity:1;visibility:visible;display:inline;overflow:visible" d="M 38,13 L 413,13 C 426.85,13 438,24.15 438,38 L 438,413 C 438,426.85 426.85,438 413,438 L 38,438 C 24.15,438 13,426.85 13,413 L 13,38 C 13,24.15 24.15,13 38,13 z " id="rect2760"/>
    <path style="font-size:558.67590332px;font-style:normal;font-variant:normal;font-weight:normal;font-stretch:normal;text-align:center;line-height:125%;writing-mode:lr-tb;text-anchor:middle;fill:white;fill-opacity:1;font-family:Roadgeek 2005 Series EM" d="M 302.73003,412.99994 L 302.73003,248.4474 L 148.26974,248.4474 L 148.26974,412.99994 L 74.647527,412.99994 L 74.647527,37.999816 L 148.26974,37.999816 L 148.26974,173.44736 L 302.73003,173.44736 L 302.73003,37.999816 L 376.35224,37.999816 L 376.35224,412.99994 L 302.73003,412.99994 z " id="text4691"/>
  </g>
</svg>