<?xml version="1.0" encoding="UTF-8" standalone="no"?>
<!-- Created with Inkscape (http://www.inkscape.org/) -->
<svg xmlns:dc="http://purl.org/dc/elements/1.1/" xmlns:cc="http://creativecommons.org/ns#" xmlns:rdf="http://www.w3.org/1999/02/22-rdf-syntax-ns#" xmlns:svg="http://www.w3.org/2000/svg" xmlns="http://www.w3.org/2000/svg" xmlns:sodipodi="http://sodipodi.sourceforge.net/DTD/sodipodi-0.dtd" xmlns:inkscape="http://www.inkscape.org/namespaces/inkscape" width="502.90005" height="502.90002" id="svg2" version="1.1" inkscape:version="0.48.4 r9939" sodipodi:docname="Ajax.svg">
  <defs id="defs4"/>
  <sodipodi:namedview id="base" pagecolor="#ffffff" bordercolor="#666666" borderopacity="1.0" inkscape:pageopacity="0.0" inkscape:pageshadow="2" inkscape:zoom="0.9899495" inkscape:cx="267.36125" inkscape:cy="210.09084" inkscape:document-units="px" inkscape:current-layer="layer1" showgrid="false" fit-margin-top="1.45" fit-margin-left="1.45" fit-margin-bottom="1.45" fit-margin-right="1.45" inkscape:window-width="1280" inkscape:window-height="1001" inkscape:window-x="-8" inkscape:window-y="-8" inkscape:window-maximized="1" showguides="true" inkscape:guide-bbox="true"/>
  <metadata id="metadata7">
    <rdf:RDF>
      <cc:Work rdf:about="">
        <dc:format>image/svg+xml</dc:format>
        <dc:type rdf:resource="http://purl.org/dc/dcmitype/StillImage"/>
        <dc:title/>
      </cc:Work>
    </rdf:RDF>
  </metadata>
  <g inkscape:label="Layer 1" inkscape:groupmode="layer" id="layer1" transform="translate(-2.9999999e-7,-171.16221)">
    <path inkscape:connector-curvature="0" style="fill:#ffffff;fill-opacity:1;fill-rule:nonzero;stroke:#000000;stroke-opacity:1;stroke-width:2.50000000000000000;stroke-miterlimit:4;stroke-dasharray:none" d="m 501.45005,203.86221 c 0,-17.2593 -13.9907,-31.25 -31.25,-31.25 l -437.50005,0 c -17.259,0 -31.2499997,13.9907 -31.2499997,31.25 l 0,437.50001 c 0,17.2589 13.9909997,31.25 31.2499997,31.25 l 437.50005,0 c 17.2593,0 31.25,-13.9911 31.25,-31.25 z" id="path11-1" sodipodi:nodetypes="sssssssss"/>
    <path inkscape:connector-curvature="0" style="fill:#000000;fill-rule:nonzero;stroke:none" d="m 470.20005,664.27892 c 12.6364,0 22.9167,-10.2801 22.9167,-22.9167 l 0,-437.50001 c 0,-12.6364 -10.2803,-22.9167 -22.9167,-22.9167 l -437.50005,0 c -12.6366,0 -22.9166997,10.2803 -22.9166997,22.9167 l 0,437.50001 c 0,12.6366 10.2800997,22.9167 22.9166997,22.9167 z" id="path13-7" sodipodi:nodetypes="sssssssss"/>
    <path inkscape:connector-curvature="0" style="fill:#ffffff;fill-opacity:1;fill-rule:nonzero;stroke:none" d="m 470.20005,651.77892 c 5.7438,0 10.4167,-4.6736 10.4167,-10.4167 l 0,-437.50001 c 0,-5.7438 -4.6729,-10.4167 -10.4167,-10.4167 l -437.50005,0 c -5.743,0 -10.4167,4.6729 -10.4167,10.4167 l 0,437.50001 c 0,5.7431 4.6737,10.4167 10.4167,10.4167 z" id="path15-4" sodipodi:nodetypes="sssssssss"/>
    <path style="fill:#000000;fill-opacity:1;fill-rule:evenodd;stroke:none" d="m 242.34066,230.79663 c -47.06432,0.0106 -93.06642,18.72178 -127.08333,50.69442 L 97.549002,259.09522 c -2.333333,-2.67361 -4.61111,-4.65972 -7.986109,-4.68749 -5.048611,-0.0344 -9.180554,4.14582 -9.201387,9.20138 l -1.041667,114.4097 106.597221,-41.49305 c 4.70833,-1.82639 7.02083,-7.27083 5.20833,-11.97916 -1.27777,-3.29167 -3.75,-4.45139 -7.46527,-5.72917 l -27.08333,-8.85416 c 25.52772,-20.97222 59.46526,-31.97222 92.70831,-30.20833 24.81939,1.31945 50.21527,10.72223 70.13888,24.47916 l 26.56249,-41.49304 c -27.14583,-18.00694 -61.04171,-30.02082 -94.0972,-31.77082 -3.14328,-0.16667 -6.411,-0.17434 -9.54861,-0.17361 z m 111.97914,60.06942 -16.14583,113.36803 c -0.72222,4.99306 2.81945,9.6875 7.8125,10.41667 3.48611,0.5 5.75,-1.21528 8.68055,-3.81944 l 21.00694,-19.27083 c 5.75,32.53471 -1.42366,67.54859 -19.27082,95.65971 -13.31945,20.96528 -33.95839,38.52777 -55.72916,49.13194 l 23.26388,43.40277 c 28.99994,-14.80556 55.86805,-38.54861 73.6111,-66.49305 26.993,-42.51387 35.01388,-95.22221 23.09027,-143.57637 l 28.29861,-4.51389 c 3.47222,-0.72222 6.14583,-1.76389 7.8125,-4.6875 2.51389,-4.375 1.08333,-9.99305 -3.29861,-12.5 L 354.3198,290.86605 z M 58.660122,404.06047 c -1.74305,32.52084 5.05556,66.29167 20.312495,95.65972 23.208323,44.69444 64.861123,78.20832 112.673613,92.18748 l -10.24306,26.5625 c -1.11111,3.36111 -1.69444,6.28472 0,9.20138 2.52778,4.36806 8.13195,5.83333 12.5,3.29861 l 99.13192,-57.11804 -89.75692,-70.65971 c -3.94445,-3.14583 -9.70833,-2.5625 -12.84722,1.38889 -2.18056,2.76389 -2,5.52778 -1.21528,9.375 l 6.07639,27.95138 C 164.27818,530.54657 137.71569,506.7063 122.37539,477.15075 110.924,455.09518 106.02817,428.54658 107.79206,404.4077 l -49.131933,-0.34723 z" id="path8248" inkscape:connector-curvature="0"/>
  </g>
</svg>