<?xml version="1.0" encoding="UTF-8" standalone="no"?>
<svg xmlns:dc="http://purl.org/dc/elements/1.1/" xmlns:cc="http://creativecommons.org/ns#" xmlns:rdf="http://www.w3.org/1999/02/22-rdf-syntax-ns#" xmlns:svg="http://www.w3.org/2000/svg" xmlns="http://www.w3.org/2000/svg" xmlns:sodipodi="http://sodipodi.sourceforge.net/DTD/sodipodi-0.dtd" xmlns:inkscape="http://www.inkscape.org/namespaces/inkscape" width="89.985161" height="90.000931" viewBox="0 0 253.95815 254.00261" version="1.1" id="svg2" inkscape:version="0.48.2 r9819" sodipodi:docname="MUTCD W11-11.svg">
  <metadata id="metadata62">
    <rdf:RDF>
      <cc:Work rdf:about="">
        <dc:format>image/svg+xml</dc:format>
        <dc:type rdf:resource="http://purl.org/dc/dcmitype/StillImage"/>
        <dc:title/>
      </cc:Work>
    </rdf:RDF>
  </metadata>
  <defs id="defs60"/>
  <sodipodi:namedview pagecolor="#ffffff" bordercolor="#666666" borderopacity="1" objecttolerance="10" gridtolerance="10" guidetolerance="10" inkscape:pageopacity="0" inkscape:pageshadow="2" inkscape:window-width="1280" inkscape:window-height="1004" id="namedview58" showgrid="false" fit-margin-top="0" fit-margin-left="0" fit-margin-right="0" fit-margin-bottom="0" inkscape:zoom="5.8194445" inkscape:cx="3.4260201" inkscape:cy="37.332999" inkscape:window-x="-8" inkscape:window-y="-8" inkscape:window-maximized="1" inkscape:current-layer="svg2" showguides="true" inkscape:guide-bbox="true"/>
  <!-- draw the bicycle -->
  <!-- RIGHT -->
  <!-- LANE -->
  <!-- ONLY -->
  <path inkscape:connector-curvature="0" d="M 3.3615264,118.7608 118.71636,3.4025018 c 4.54025,-4.5367 11.94153,-4.5367 16.48178,0 L 250.55296,118.7608 c 4.54025,4.5367 4.54025,11.938 0,16.4783 L 135.19814,250.5974 c -4.54025,4.5403 -11.94153,4.5403 -16.48178,0 L 3.3615264,135.2391 c -4.48027,-4.4803 -4.4838,-11.9945 0,-16.4783" style="fill:#fecf33;fill-opacity:1;fill-rule:nonzero;stroke:none" id="path3260"/>
  <path inkscape:connector-curvature="0" d="M 5.6764564,121.0211 120.97837,5.7227018 c 3.27025,-3.2702 8.68892,-3.2632 11.95917,0 L 248.23591,121.0211 c 3.27378,3.2738 3.25967,8.6819 0,11.9592 L 132.93754,248.2786 c -3.27731,3.2632 -8.68187,3.2703 -11.95917,0 L 5.6764564,132.9803 c -3.25614,-3.2773 -3.27025,-8.6854 0,-11.9592" style="fill:#000000;fill-opacity:1;fill-rule:evenodd;stroke:none" id="path3272"/>
  <path inkscape:connector-curvature="0" d="M 8.9220164,124.1837 124.13926,8.9665018 c 1.524,-1.5734 4.11339,-1.5734 5.63739,0 L 244.99036,124.1837 c 1.57339,1.5205 1.57339,4.1134 0,5.6339 L 129.77665,245.0313 c -1.524,1.5769 -4.11692,1.5804 -5.63739,0 L 8.9220164,129.8176 c -1.56986,-1.5205 -1.56986,-4.1134 0,-5.6339" style="fill:#fecf33;fill-opacity:1;fill-rule:evenodd;stroke:none" id="path3276"/>
  <path d="m 144.21117,98.39851 13.75128,0 0,30.51528 -13.75128,4.69195 0,-35.20723 z m 6.5158,58.70928 c -1.778,1.58398 -4.09222,2.59645 -6.62869,2.71287 l 0,-9.34156 6.62869,6.62869 z m 3.59128,-7.41539 c -0.14464,2.54353 -1.17828,4.85775 -2.79753,6.6287 l -6.63574,-6.6287 9.43327,0 z m -2.75519,-7.7858 c 1.61219,1.78505 2.63878,4.11339 2.75519,6.67103 l -9.43327,0 6.67808,-6.67103 z m -18.70075,6.67103 c 0.11641,-2.53648 1.12183,-4.84364 2.71286,-6.6287 l 6.62869,6.6287 -9.34155,0 z m 2.75519,7.70114 c -1.59103,-1.77095 -2.61055,-4.064 -2.74814,-6.58637 l 9.3345,0 -6.58636,6.58637 z m 7.37306,-15.23295 -0.33161,0 -4.94595,-0.93839 c -0.4833,0.3175 -0.93133,0.67028 -1.35114,1.04775 l 6.6287,6.63575 0,-6.74511 z m 7.70819,0 -6.60047,0 0,6.74511 6.67808,-6.67455 c -0.0282,-0.0212 -0.0564,-0.0423 -0.0776,-0.0706 m -11.55347,-1.72862 3.69358,0.73025 -0.007,-1.67569 c -1.30175,0.0988 -2.55058,0.41981 -3.68652,0.94544 m 57.20292,17.94934 c -1.78505,1.59103 -4.09222,2.59644 -6.62869,2.71286 l 0,-9.34156 6.62869,6.6287 z m 3.58422,-7.41539 c -0.14111,2.54353 -1.17827,4.85775 -2.794,6.63575 l -6.63222,-6.63575 9.42622,0 z m -2.75166,-7.78581 c 1.61219,1.78506 2.63172,4.11339 2.75519,6.67809 l -9.42975,0 6.67456,-6.67809 z m -1.83092,-1.61925 c 0.36336,0.254 0.71614,0.53623 1.0407,0.83256 l -6.67103,6.67103 0,-6.90386 5.63033,0 0,-0.59973 z m -13.37381,0.87489 c 0.0952,-0.0952 0.20461,-0.18697 0.31045,-0.27516 l 6.31825,0 0,6.90386 -6.6287,-6.6287 z m -3.50308,7.42245 c 0.127,-2.54353 1.13242,-4.8507 2.71639,-6.6287 l 6.62869,6.6287 -9.34508,0 z m 2.75872,7.69408 c -1.59103,-1.77094 -2.61408,-4.064 -2.75166,-6.58636 l 9.33802,0 -6.58636,6.58636 z m 7.37306,3.54189 c -2.52236,-0.14464 -4.81895,-1.16417 -6.58989,-2.75519 l 6.58989,-6.58637 0,9.34156 z M 59.149382,115.4024 c -1.411111,0.83256 -2.973917,1.30881 -4.808362,1.15006 l -2.226028,-0.42687 -1.185333,-0.82197 -0.620889,-0.85372 0.416278,-0.59972 2.2225,-0.55034 0.663222,-0.11288 0.490361,-0.20462 1.781529,0.17287 1.11125,-0.14464 0.846667,-0.28223 0.289278,-0.12347 0.172861,0.28222 0.663222,2.00378 c 0.116417,0.29634 0.07408,0.2152 0.183444,0.51153 m 54.049088,19.67795 -2.95628,-0.64206 -0.19402,1.39347 0,1.46756 0.14463,0.66675 0.64912,1.06892 0.55033,0.66675 0.79022,0.51858 1.46756,0.68086 1.34408,0.69497 0.25047,0.29634 0.15875,1.27 0.92781,3.45722 1.07597,2.9845 1.06186,2.22603 0.83256,1.25941 0.85372,0.9525 0.45508,0.56445 0.10936,0.68086 -0.15875,0.69497 0.15875,0.44097 0.35278,0.17287 0.36689,-0.15875 0.24695,-0.18345 0.80433,-0.20814 0.64911,0.12347 0.69497,0.66323 0.34573,0.83961 0.36336,1.02658 0.27164,1.45345 0,0.82197 -0.33162,0.39158 -3.27377,-1.6263 -0.45509,-0.61384 -0.37747,-0.69497 -0.50447,-0.51153 -0.635,-0.29633 -0.7232,-0.20461 -0.55739,-0.33161 -0.45508,-0.55034 -0.44097,-1.18533 -1.10772,-2.59292 -1.32292,-2.69875 -1.12536,-2.06728 -0.76906,-1.23472 -0.73025,-0.90311 -1.24883,-1.13594 -1.10067,-0.88195 -1.22061,-1.18533 -2.25425,-2.00378 -1.88031,-1.21355 -1.33702,-1.08303 -0.19403,0.77964 0,1.6898 0.22225,1.69334 0.70908,1.6898 0.19403,1.25942 0.06,0.52211 -0.14464,0.40922 -1.32997,1.17122 -4.303889,3.6442 -1.661584,1.85208 -1.090083,1.32292 -0.631473,1.09008 -0.366889,0.58561 -0.515055,0.30339 -0.490361,0.06 -0.130528,0.18698 0.254,0.44097 0.395111,0.49036 0.144639,0.66675 -0.07761,0.56444 -0.08114,0.49036 -1.591028,1.11125 -1.17475,0.57856 -0.899584,0.23989 -0.599722,-0.15875 0,-0.34572 0.585611,-2.57528 0.218722,-0.42686 0.47625,-0.94545 0.331612,-0.68086 0.01411,-0.70908 0.144639,-1.06186 0.522111,-0.7232 1.040694,-0.86783 1.308806,-1.17122 0.772583,-0.70909 1.404056,-1.58044 1.612195,-1.97556 0.79375,-1.13241 0.246944,-1.43934 -0.342194,-0.99836 -0.917222,-2.16253 -0.694973,-1.6898 -0.490361,-1.34409 -0.585611,-2.6035 -0.08467,-2.84691 -2.656417,1.19239 -2.942167,1.0548 -3.721806,1.06186 -4.554361,1.34409 -2.240139,0.39158 -2.278945,0.007 -0.324556,3.45369 -0.268111,2.45887 -0.08467,3.44311 0.289278,1.54516 0.585611,0.99836 0.881945,0.75848 1.502833,1.13594 1.555751,1.02659 0.73025,0.70908 0.172861,0.53975 0.123472,0.68086 0.462139,0.35983 0.504472,-0.0494 0.331611,-0.31044 0.709084,-0.33867 0.508,0.0988 0.836083,0.59972 1.012473,1.13595 0.744361,1.6898 0.123472,0.64559 -0.268111,0.254 -0.79375,0.0141 -1.799167,-0.21872 -1.072445,-0.35984 -0.945444,-0.42686 -1.026584,-0.64558 -0.635,-0.46214 -0.867833,-0.8502 -0.881945,-1.01247 -1.686278,-1.73566 -2.197805,-1.84503 -1.075973,-0.93839 -0.47625,-0.68792 -0.296333,-0.98072 -0.144639,-1.65806 c -0.211658,-1.09012 -0.14463,-0.82907 -0.282213,-1.68984 l -0.09525,-0.77612 -0.3175,-2.05669 -0.345723,-2.38125 -0.41275,-3.07975 -1.135944,-0.42686 -0.04939,0.508 -0.673806,0.47625 -2.652889,2.12725 c -1.125361,0.59972 -2.176639,1.16417 -3.252611,1.83444 l -1.075973,0.83256 -1.418167,1.12536 -0.839611,0.76906 -0.712611,1.04775 -0.645583,1.32291 -0.772584,1.95792 -0.331611,1.83092 0,1.34408 -0.1905,1.26294 -0.22225,0.9137 -0.342195,0.3175 -0.243416,0.52564 0.144639,0.70908 0.331611,0.23283 0.268111,1.15712 0.04939,0.75847 -0.585611,0.89605 -1.185334,0.96662 -1.213556,0.58561 -0.998361,0.24694 -0.490361,-0.17286 0.08467,-0.70908 0.472722,-2.44475 0.395111,-0.58562 0.3175,-0.80786 0.03881,-0.81844 -0.01411,-1.17122 0.194028,-1.29823 1.026583,-3.04447 0.405694,-1.6263 0.758473,-3.39725 0.243416,-1.18534 0.486834,-0.6738 0.694972,-0.69498 0.440972,-0.42686 0.575028,-0.72319 2.935112,-4.45911 0.941916,-1.33703 0.254,-0.46214 0,-0.3175 -2.402416,-4.29331 -0.137584,-0.91369 0.137584,-1.46756 0.398638,-1.73566 0,-0.67028 0,-0.5327 -1.467555,-3.85586 -1.252362,-4.18041 c -0.973666,1.11477 -2.550583,2.12725 -4.776612,1.5628 -0.903111,-0.13758 -1.562805,-0.51858 -2.465917,-0.66322 l -1.993194,-0.99131 -0.709084,-1.25236 -0.47625,0.14464 -0.268111,-0.0353 -0.486833,-0.14111 -0.6985,-0.36336 -1.150056,-0.36336 -0.130528,-0.41275 -0.331611,-0.0282 -0.268111,-0.49036 -0.07408,-0.80786 0,-0.41275 0.123472,-0.64206 0.04939,-0.71261 0.218722,-0.61383 0.680861,-0.42687 0.836084,-0.39511 2.69875,-2.44828 1.262944,-1.31233 0.04586,-0.64911 0.352777,-0.37747 0.737306,-0.39159 1.820334,-1.29822 1.340556,-0.88194 -0.144639,-0.254 -0.927806,-1.34409 -0.395111,-0.783163 0,-0.8255 0.250472,-0.127 0.659694,0.536223 0.698501,0.684389 0.934861,0.391581 -0.289278,-0.94897 -0.123472,-0.931334 0.254,-0.405694 0.553861,0 0.536223,0.673805 0.804333,1.075973 0.758472,0.65969 0.53975,0.67028 0.536223,0.79728 10.84439,10.37872 3.831167,2.16959 c 2.010833,-0.0847 2.335389,0.68086 3.309056,0.93486 l 19.131141,-0.35631 1.277056,0.53622 2.155467,0.50448 2.95628,1.19944 1.7145,0.9137 1.59809,0.33513 1.12536,0 1.17828,-0.20108 2.18369,0 1.70039,0.56445 2.03906,1.18533 1.26294,1.05833 1.24531,2.03553 0.635,2.46592 0.50447,4.42383 0.14464,2.667 0.26811,1.88031 -0.0917,0.5715 16.97214,3.63008 c 1.78505,-1.2065 3.89114,-1.96144 6.16655,-2.09903 l -0.1658,-38.325778 -8.11036,0 0,-4.801306 60.80125,0 0,44.894504 c 3.73239,2.14489 6.25475,6.17008 6.25475,10.76325 0,6.82978 -5.57389,12.39661 -12.40367,12.39661 -6.82625,0 -12.39308,-5.56683 -12.39308,-12.39661 0,-3.13972 1.17828,-6.01486 3.12208,-8.20561 l -26.92047,0 c 1.85208,2.16958 2.97391,4.98122 2.97391,8.04686 0,6.82978 -5.56683,12.39661 -12.39308,12.39661 -6.82978,0 -12.39661,-5.56683 -12.39661,-12.39661 0,-3.75355 1.68275,-7.12258 4.32858,-9.398 l -15.58572,-3.15383 0.62442,1.45344 0.84314,1.62631 0.97719,2.05316 0.49036,1.89442 -0.14464,1.89442 -0.75847,1.19944 -0.56444,0.28928 -0.49037,0.42686 -1.13594,1.53106 -0.20814,-1.46756 -0.85372,-2.10255 -1.24531,-1.28059 -1.19944,-1.46755 -0.27164,-1.62631 -0.13758,-1.6898 -0.5715,-1.48873 -1.19945,-1.74978 -0.76905,-0.34572 -0.12348,-0.6103 z m -2.79753,-1.75684 2.6035,0.56445 -0.10936,-1.49578 -0.0635,-2.45181 0.41981,-2.94922 -0.0741,-1.83444 -0.635,-1.97556 -0.91722,-1.18533 -1.25942,-0.69497 -1.28764,-0.32456 0.70203,0.99131 0.80433,2.12725 0.25753,1.32997 0,1.48166 -0.13406,2.90689 -0.24694,3.06917 -0.06,0.44097 z m 32.58962,26.49009 c -2.52236,-0.13758 -4.81542,-1.15711 -6.58636,-2.74814 l 6.58636,-6.58636 0,9.3345 z" style="fill:#000000;fill-opacity:1;fill-rule:evenodd;stroke:none" id="path3548" inkscape:connector-curvature="0"/>
</svg>