<?xml version="1.0" encoding="UTF-8"?>
<!-- Generator: Adobe Illustrator 27.7.0, SVG Export Plug-In . SVG Version: 6.00 Build 0)  -->
<svg version="1.1" xmlns="http://www.w3.org/2000/svg" xmlns:xlink="http://www.w3.org/1999/xlink" x="0px" y="0px" viewBox="0 0 238.7 210.6" style="enable-background:new 0 0 238.7 210.6;" xml:space="preserve">
<style type="text/css">
	.st0{fill:#FFFFFF;}
	.st1{fill:#BF311A;}
</style>
<g id="Layer_1">
</g>
<g id="For_Sheets">
	<g>
		<g>
			<path class="st0" d="M119.3,210.4c-5.3,0-10-2.7-12.6-7.3L2.1,21.9c-2.6-4.5-2.6-10,0-14.5c2.6-4.5,7.3-7.3,12.6-7.3H224     c5.3,0,10,2.7,12.6,7.3c2.6,4.5,2.6,10,0,14.5L131.9,203.2C129.3,207.7,124.6,210.4,119.3,210.4z"/>
			<path d="M224,0.2c11.1,0,18,12,12.5,21.6L131.8,203.1c-2.8,4.8-7.6,7.2-12.5,7.2c-4.8,0-9.7-2.4-12.5-7.2L2.2,21.8     C-3.3,12.2,3.6,0.2,14.7,0.2H224 M224,0H14.7C9.4,0,4.6,2.7,2,7.3C-0.7,11.9-0.7,17.4,2,22l104.7,181.3c2.6,4.6,7.4,7.3,12.7,7.3     c5.3,0,10-2.7,12.7-7.3L236.7,22c2.6-4.6,2.6-10.1,0-14.6C234,2.7,229.3,0,224,0L224,0z"/>
		</g>
		<path class="st1" d="M127.1,200.4L231.8,19.2c3.5-6-0.9-13.5-7.8-13.5H14.7c-6.9,0-11.3,7.5-7.8,13.5l104.7,181.3    C115,206.4,123.7,206.4,127.1,200.4z"/>
		<path class="st0" d="M127.1,128.4l42.3-73.3c3.5-6-0.9-13.5-7.8-13.5H77c-6.9,0-11.3,7.5-7.8,13.5l42.3,73.3    C115,134.4,123.7,134.4,127.1,128.4z"/>
		<g>
			<path class="st1" d="M93.8,77.6h-3.1v-9.8l-5.3-11.8h3.3l3.6,7.8l3.6-7.8h3.3l-5.4,11.8V77.6z"/>
			<path class="st1" d="M102.2,56.1h3v21.6h-3V56.1z"/>
			<path class="st1" d="M110,56.1h10.2v3h-7.1v5.5h4.5v3h-4.5v7.1h7.9v3h-11V56.1z"/>
			<path class="st1" d="M124.7,56.1h3.1v18.7h7.9v2.9h-11V56.1z"/>
			<path class="st1" d="M138.7,77.6V56.1h6.2c1.3,0,5.9,0.1,5.9,10.8c0,9.8-4.3,10.8-5.7,10.8H138.7z M144.3,59.1h-2.4v15.5h2.2     c2.5,0,3.8-1.1,3.8-7.7C147.8,59.4,145.9,59.1,144.3,59.1z"/>
		</g>
	</g>
</g>
</svg>