<?xml version="1.0" encoding="UTF-8" standalone="no"?>
<!-- Created with Inkscape (http://www.inkscape.org/) -->
<svg xmlns:dc="http://purl.org/dc/elements/1.1/" xmlns:cc="http://creativecommons.org/ns#" xmlns:rdf="http://www.w3.org/1999/02/22-rdf-syntax-ns#" xmlns:svg="http://www.w3.org/2000/svg" xmlns="http://www.w3.org/2000/svg" xmlns:inkscape="http://www.inkscape.org/namespaces/inkscape" version="1.0" width="600" height="600" id="svg2">
  <title id="title4">Ohio State Route 88</title>
  <defs id="defs13"/>
  <metadata id="metadata6">
    <rdf:RDF>
      <cc:Work rdf:about="">
        <dc:format>image/svg+xml</dc:format>
        <dc:type rdf:resource="http://purl.org/dc/dcmitype/StillImage"/>
        <dc:title>Ohio State Route 88</dc:title>
      </cc:Work>
    </rdf:RDF>
  </metadata>
  <g id="g3766">
    <rect width="600" height="600" rx="37.5" ry="37" x="0" y="0" id="rect3760" style="fill:#000000;fill-rule:nonzero"/>
    <path d="m 35.684,35.525 h 152.8 c 11.878,7.4633 25.825,13.302 41.064,17.82 15.239,4.518 32.952,-5.8749 50.001,-3.6927 8.5243,1.0911 15.405,7.394 24.091,7.5722 8.6859,0.17818 19.177,-5.7684 27.83,-5.5406 17.307,0.4556 22.538,17.336 49.188,14.902 15.962,-1.4579 27.536,-10.302 43.373,-16.182 15.836,-5.8802 35.987,-8.0005 52.714,-7.8043 32.029,0.37571 64.058,-16.015 96.087,-22.952 l 1.6713,226.42 c -16.88,11.321 -4.2266,30.351 -5.3553,48.012 -0.61683,9.6524 -1.9248,19.637 -9.3038,24.781 -7.3505,5.1248 -6.6474,17.268 -3.1851,31.198 4.5833,18.44 -3,36.947 -6.632,55.024 -3.6319,18.077 -11.016,35.099 -25.602,49.873 -14.268,14.453 -35.577,38.832 -60.761,42.639 -32.51,4.9138 -43.364,19.832 -60.825,38.85 -8.0529,8.7704 -11.805,11.253 -30.617,12.924 -10.486,0.93144 -7.7747,9.0298 -31.157,10.416 -23.075,1.368 -44.484,14.745 -58.221,14.722 -38.506,-0.0634 -70.102,-51.29 -120.86,-58.384 -25.336,-3.5407 -48.786,-14.768 -71.752,-27.008 -11.533,-6.15 -22.595,-18.33 -35.338,-20.54 -15.347,-2.65 -18.672,-15.13 -29.395,-20.39 v -401.76 c -0.3649,-7.3923 4.2841,-11.024 10.187,-10.895 z" inkscape:connector-curvature="0" id="path8" style="fill:#ffffff;stroke-width:0;stroke-miterlimit:4"/>
  </g>
  <g id="routenum" style="font-size:446.42999268px;font-style:normal;font-variant:normal;font-weight:normal;font-stretch:normal;text-align:center;line-height:100%;letter-spacing:0px;word-spacing:0px;writing-mode:lr-tb;text-anchor:middle;fill:#000000;font-family:Roadgeek 2005 Series C">
    <path d="m 269.89,344.46 c -2.3e-4,13.691 -2.8276,26.637 -8.4821,38.839 -5.3574,12.202 -12.798,22.917 -22.321,32.143 -9.2264,9.2262 -19.941,16.518 -32.143,21.875 -12.203,5.3571 -25.149,8.0357 -38.839,8.0357 -13.691,0 -26.637,-2.6786 -38.839,-8.0357 -12.202,-5.3571 -23.066,-12.649 -32.589,-21.875 -9.2262,-9.2262 -16.667,-19.94 -22.321,-32.143 -5.3572,-12.202 -8.0357,-25.149 -8.0357,-38.839 -2.9e-5,-14.286 2.9762,-27.083 8.9286,-38.393 5.9523,-11.607 14.434,-21.875 25.446,-30.804 -14.583,-15.476 -21.875,-33.631 -21.875,-54.464 -4.2e-5,-11.607 2.3809,-22.47 7.1429,-32.589 4.7619,-10.416 11.161,-19.494 19.196,-27.232 8.3332,-8.0354 17.857,-14.285 28.571,-18.75 10.714,-4.464 22.172,-6.6961 34.375,-6.6964 11.905,3.1e-4 23.363,2.2324 34.375,6.6964 11.012,4.4646 20.536,10.715 28.571,18.75 8.3331,7.7384 14.881,16.816 19.643,27.232 5.0593,10.119 7.5891,20.982 7.5893,32.589 -2.2e-4,10.417 -2.0836,20.238 -6.25,29.464 -3.8693,8.9288 -9.524,17.262 -16.964,25 11.607,8.9287 20.238,19.345 25.893,31.25 5.9522,11.607 8.9283,24.256 8.9286,37.946 m -59.821,-125 c -1.8e-4,-9.8212 -4.1668,-18.155 -12.5,-25 -8.0359,-7.1426 -17.857,-10.714 -29.464,-10.714 -11.607,2.5e-4 -21.577,3.5717 -29.911,10.714 -8.0358,6.8455 -12.054,15.179 -12.054,25 -9e-5,8.9288 4.0178,16.667 12.054,23.214 8.3332,6.2502 18.303,9.3752 29.911,9.375 11.607,1.8e-4 21.428,-3.1248 29.464,-9.375 8.3332,-6.5474 12.5,-14.286 12.5,-23.214 m 12.5,125.89 c -1.9e-4,-6.2499 -1.4883,-12.053 -4.4643,-17.411 -2.9764,-5.6546 -6.9942,-10.417 -12.054,-14.286 -4.7621,-4.1665 -10.417,-7.4403 -16.964,-9.8214 -6.5478,-2.3808 -13.542,-3.5713 -20.982,-3.5714 -7.4406,1.4e-4 -14.435,1.1906 -20.982,3.5714 -6.2501,2.3811 -11.905,5.6549 -16.964,9.8214 -4.762,3.8692 -8.631,8.6311 -11.607,14.286 -2.6786,5.3572 -4.0179,11.161 -4.0178,17.411 -8e-5,7.1429 1.3392,13.839 4.0178,20.089 2.9761,6.2501 6.8452,11.756 11.607,16.518 5.0594,4.762 10.714,8.4822 16.964,11.161 6.5475,2.6786 13.542,4.0179 20.982,4.0179 7.4403,4e-5 14.434,-1.3392 20.982,-4.0179 6.8451,-2.6785 12.649,-6.3988 17.411,-11.161 5.0594,-4.7618 8.9284,-10.268 11.607,-16.518 2.976,-6.2499 4.4641,-12.946 4.4643,-20.089" inkscape:connector-curvature="0" id="path2988"/>
    <path d="m 527.79,344.46 c -2.3e-4,13.691 -2.8276,26.637 -8.4821,38.839 -5.3574,12.202 -12.798,22.917 -22.321,32.143 -9.2264,9.2262 -19.941,16.518 -32.143,21.875 -12.203,5.3571 -25.149,8.0357 -38.839,8.0357 -13.691,0 -26.637,-2.6786 -38.839,-8.0357 -12.202,-5.3571 -23.066,-12.649 -32.589,-21.875 -9.2262,-9.2262 -16.667,-19.94 -22.321,-32.143 -5.3572,-12.202 -8.0358,-25.149 -8.0357,-38.839 -3e-5,-14.286 2.9762,-27.083 8.9286,-38.393 5.9523,-11.607 14.434,-21.875 25.446,-30.804 -14.583,-15.476 -21.875,-33.631 -21.875,-54.464 -4e-5,-11.607 2.3809,-22.47 7.1429,-32.589 4.7618,-10.416 11.161,-19.494 19.196,-27.232 8.3332,-8.0354 17.857,-14.285 28.571,-18.75 10.714,-4.464 22.172,-6.6961 34.375,-6.6964 11.905,3.1e-4 23.363,2.2324 34.375,6.6964 11.012,4.4646 20.536,10.715 28.571,18.75 8.3331,7.7384 14.881,16.816 19.643,27.232 5.0593,10.119 7.5891,20.982 7.5893,32.589 -2.2e-4,10.417 -2.0836,20.238 -6.25,29.464 -3.8693,8.9288 -9.524,17.262 -16.964,25 11.607,8.9287 20.238,19.345 25.893,31.25 5.9522,11.607 8.9283,24.256 8.9286,37.946 m -59.821,-125 c -1.8e-4,-9.8212 -4.1668,-18.155 -12.5,-25 -8.0359,-7.1426 -17.857,-10.714 -29.464,-10.714 -11.607,2.5e-4 -21.577,3.5717 -29.911,10.714 -8.0358,6.8455 -12.054,15.179 -12.054,25 -9e-5,8.9288 4.0178,16.667 12.054,23.214 8.3332,6.2502 18.303,9.3752 29.911,9.375 11.607,1.8e-4 21.428,-3.1248 29.464,-9.375 8.3332,-6.5474 12.5,-14.286 12.5,-23.214 m 12.5,125.89 c -1.9e-4,-6.2499 -1.4883,-12.053 -4.4643,-17.411 -2.9764,-5.6546 -6.9942,-10.417 -12.054,-14.286 -4.7621,-4.1665 -10.417,-7.4403 -16.964,-9.8214 -6.5478,-2.3808 -13.542,-3.5713 -20.982,-3.5714 -7.4406,1.4e-4 -14.435,1.1906 -20.982,3.5714 -6.2501,2.3811 -11.905,5.6549 -16.964,9.8214 -4.762,3.8692 -8.631,8.6311 -11.607,14.286 -2.6786,5.3572 -4.0179,11.161 -4.0178,17.411 -8e-5,7.1429 1.3392,13.839 4.0178,20.089 2.9761,6.2501 6.8452,11.756 11.607,16.518 5.0594,4.762 10.714,8.4822 16.964,11.161 6.5475,2.6786 13.542,4.0179 20.982,4.0179 7.4403,4e-5 14.434,-1.3392 20.982,-4.0179 6.8451,-2.6785 12.649,-6.3988 17.411,-11.161 5.0594,-4.7618 8.9284,-10.268 11.607,-16.518 2.976,-6.2499 4.4641,-12.946 4.4643,-20.089" inkscape:connector-curvature="0" id="path2990"/>
  </g>
</svg>