<svg xmlns="http://www.w3.org/2000/svg" xml:space="preserve" width="600.996" height="600.996"><path d="M480.398 240.399c0-132.551-107.449-240-240-240-132.55 0-240 107.449-240 240 0 132.55 107.45 240 240 240 132.551 0 240-107.45 240-240z" style="fill:#fff;fill-opacity:1;fill-rule:nonzero;stroke:none" transform="matrix(1.25 0 0 -1.25 0 600.996)"/><path d="M240.398 480.797C107.633 480.797 0 373.164 0 240.399 0 107.633 107.633 0 240.398 0c132.766 0 240.399 107.633 240.399 240.399 0 132.765-107.633 240.398-240.399 240.398zm0-.398c132.551 0 240-107.45 240-240 0-132.551-107.449-240-240-240-132.55 0-240 107.449-240 240 0 132.55 107.45 240 240 240z" style="fill:#000;fill-opacity:1;fill-rule:nonzero;stroke:none" transform="matrix(1.25 0 0 -1.25 0 600.996)"/><path d="M240.398 472.395c-127.746 0-232-104.25-232-231.996 0-127.747 104.254-232 232-232 127.747 0 231.997 104.253 231.997 232 0 127.746-104.25 231.996-231.997 231.996zm0-64.317c92.989 0 167.684-74.691 167.684-167.679 0-92.989-74.695-167.684-167.684-167.684-92.988 0-167.679 74.695-167.679 167.684 0 92.988 74.691 167.679 167.679 167.679z" style="fill:#c1121c;fill-opacity:1;fill-rule:nonzero;stroke:none" transform="matrix(1.25 0 0 -1.25 0 600.996)"/><path d="M23.832 456.512v-.024h-.023l.023.024z" style="fill:#000;fill-opacity:1;fill-rule:nonzero;stroke:none" transform="matrix(1.25 0 0 -1.25 0 600.996)"/><path d="M23.809 456.512h.023v-.023h-.023v.023z" style="fill:#000;fill-opacity:1;fill-rule:nonzero;stroke:none" transform="matrix(1.25 0 0 -1.25 0 600.996)"/><path d="M23.809 456.488v.024l.023-.024h-.023zm.023 0-.023.024v-.024h.023z" style="fill:#000;fill-opacity:1;fill-rule:nonzero;stroke:none" transform="matrix(1.25 0 0 -1.25 0 600.996)"/><path d="M23.859 456.488h-.05.023v.024l.027-.024z" style="fill:#000;fill-opacity:1;fill-rule:nonzero;stroke:none" transform="matrix(1.25 0 0 -1.25 0 600.996)"/><path d="M23.809 456.488v.024-.024l.023.024-.023-.024z" style="fill:#000;fill-opacity:1;fill-rule:nonzero;stroke:none" transform="matrix(1.25 0 0 -1.25 0 600.996)"/><path d="M23.809 456.512h.023v-.023h-.023v.023zM23.859 456.512v-.047h-.05l.05.047z" style="fill:#000;fill-opacity:1;fill-rule:nonzero;stroke:none" transform="matrix(1.25 0 0 -1.25 0 600.996)"/><path d="M23.809 456.512h.051v-.047h-.051v.047z" style="fill:#000;fill-opacity:1;fill-rule:nonzero;stroke:none" transform="matrix(1.25 0 0 -1.25 0 600.996)"/><path d="M23.809 456.465v.047l.05-.047h-.05zm.05 0-.05.047v-.047h.05z" style="fill:#000;fill-opacity:1;fill-rule:nonzero;stroke:none" transform="matrix(1.25 0 0 -1.25 0 600.996)"/><path d="M23.859 456.465h-.05.023v.047l.027-.047z" style="fill:#000;fill-opacity:1;fill-rule:nonzero;stroke:none" transform="matrix(1.25 0 0 -1.25 0 600.996)"/><path d="M23.809 456.465v.047-.047l.05.047-.05-.047z" style="fill:#000;fill-opacity:1;fill-rule:nonzero;stroke:none" transform="matrix(1.25 0 0 -1.25 0 600.996)"/><path d="M23.809 456.512h.051v-.047h-.051v.047z" style="fill:#000;fill-opacity:1;fill-rule:nonzero;stroke:none" transform="matrix(1.25 0 0 -1.25 0 600.996)"/><path d="M23.859 456.512v-.047h-.05l.05.047z" style="fill:#000;fill-opacity:1;fill-rule:nonzero;stroke:none" transform="matrix(1.25 0 0 -1.25 0 600.996)"/><path d="M23.809 456.512h.051v-.047h-.051v.047z" style="fill:#000;fill-opacity:1;fill-rule:nonzero;stroke:none" transform="matrix(1.25 0 0 -1.25 0 600.996)"/><path d="M23.809 456.465v.047l.05-.047h-.05zm.05 0-.05.047v-.047h.05z" style="fill:#000;fill-opacity:1;fill-rule:nonzero;stroke:none" transform="matrix(1.25 0 0 -1.25 0 600.996)"/><path d="M23.859 456.465h-.05.023v.047l.027-.047z" style="fill:#000;fill-opacity:1;fill-rule:nonzero;stroke:none" transform="matrix(1.25 0 0 -1.25 0 600.996)"/><path d="M23.809 456.465v.047-.047l.05.047-.05-.047z" style="fill:#000;fill-opacity:1;fill-rule:nonzero;stroke:none" transform="matrix(1.25 0 0 -1.25 0 600.996)"/><path d="M23.809 456.512h.051v-.047h-.051v.047z" style="fill:#000;fill-opacity:1;fill-rule:nonzero;stroke:none" transform="matrix(1.25 0 0 -1.25 0 600.996)"/><path d="M23.859 456.512v-.047h-.05l.05.047z" style="fill:#000;fill-opacity:1;fill-rule:nonzero;stroke:none" transform="matrix(1.25 0 0 -1.25 0 600.996)"/><path d="M23.809 456.512h.051v-.047h-.051v.047z" style="fill:#000;fill-opacity:1;fill-rule:nonzero;stroke:none" transform="matrix(1.25 0 0 -1.25 0 600.996)"/><path d="M23.809 456.465v.047l.05-.047h-.05zm.05 0-.05.047v-.047h.05z" style="fill:#000;fill-opacity:1;fill-rule:nonzero;stroke:none" transform="matrix(1.25 0 0 -1.25 0 600.996)"/><path d="M23.859 456.465h-.05.023v.047l.027-.047z" style="fill:#000;fill-opacity:1;fill-rule:nonzero;stroke:none" transform="matrix(1.25 0 0 -1.25 0 600.996)"/><path d="M23.809 456.465v.047-.047l.05.047-.05-.047z" style="fill:#000;fill-opacity:1;fill-rule:nonzero;stroke:none" transform="matrix(1.25 0 0 -1.25 0 600.996)"/><path d="M23.809 456.512h.051v-.047h-.051v.047zM190.871 303.672v-88.707h183.754v88.707H190.871zm-12.664-22.164-54.918-3.43a6.335 6.335 0 0 1-5.527-4.105l-13.989-37.274a25.378 25.378 0 0 1-1.589-8.898v-35c0-3.504 2.82-6.344 6.32-6.344h3.18c0 15.75 12.761 28.508 28.511 28.508s28.508-12.758 28.508-28.508h114.055c0 8.613 3.894 16.77 10.582 22.188H178.207v72.863zm-22.187-11.113v-31.672l-42.063-4.938c-.121-.011-.238-.039-.359-.039a3.178 3.178 0 0 0-3.18 3.18c0 .375.078.766.207 1.117l10.621 28.317a3.154 3.154 0 0 0 2.762 2.046l32.012 1.989zm-15.825-61.75c-12.25 0-22.187-9.938-22.187-22.188 0-12.246 9.937-22.168 22.187-22.168 12.246 0 22.164 9.922 22.164 22.168 0 12.25-9.918 22.188-22.164 22.188zm171.051 0c-12.246 0-22.168-9.938-22.168-22.188 0-12.246 9.922-22.168 22.168-22.168 12.25 0 22.188 9.922 22.188 22.168 0 12.25-9.938 22.188-22.188 22.188zm17.945 0a28.566 28.566 0 0 0 10.582-22.188h15.848l19.004 6.344v15.844h-45.434z" style="fill:#000;fill-opacity:1;fill-rule:nonzero;stroke:none" transform="matrix(1.25 0 0 -1.25 0 600.996)"/></svg>