<svg xmlns="http://www.w3.org/2000/svg" xmlns:xlink="http://www.w3.org/1999/xlink" xml:space="preserve" width="600.996" height="600.996" viewBox="0 0 600.996 600.996">
  <path fill="#fff" d="M600.498 300.498c0 165.688-134.312 300-300 300s-300-134.312-300-300 134.312-300 300-300 300 134.312 300 300z"/>
  <path d="M300.498 0C134.54 0 0 134.541 0 300.498s134.541 300.498 300.498 300.498 300.498-134.541 300.498-300.498S466.455 0 300.497 0zm0 .498c165.688 0 300 134.312 300 300s-134.312 300-300 300-300-134.312-300-300 134.312-300 300-300z"/>
  <path fill="#c1121c" d="M300.498 10.498c-159.683 0-290 130.317-290 290s130.317 290 290 290 290-130.317 290-290-130.317-290-290-290zm0 80.4c116.236 0 209.6 93.365 209.6 209.6 0 116.236-93.364 209.6-209.6 209.6-116.235 0-209.6-93.364-209.6-209.6 0-116.235 93.365-209.6 209.6-209.6z"/>
  <path fill="#fff" d="m329.14 319.199 13.116-30.121a3.85 3.85 0 0 1 3.515-2.3h90.771c1.534 0 2.897.907 3.502 2.3l13.115 30.12"/>
  <path d="M323.735 194.15a30.314 30.314 0 0 0-34.511 1.406l-8.98 6.754-11.328 1.621v-17.735l20.684-2.948V168.48l-20.899 2.984c3.243-16.436 19.204-27.139 35.635-23.887 16.445 3.242 27.139 19.205 23.896 35.635a30.521 30.521 0 0 1-4.497 10.937zm30.171 179.575c-64.472-1.889-97.969 3.155-104.439-28.5l-1.313-6.011c-7.573-27.593-33.91-45.738-62.383-42.964-10.112-20.502-20.228-41.992 48.038-62.607a43.908 43.908 0 0 0-1.255 10.937l59.711-44.995c11.147-8.404 27.003-6.176 35.396 4.98l31.558 41.861-33.56 25.293-34.634-45.996-52.929 39.877a44.272 44.272 0 0 0 29.258 21.778c.532-6.572 6.015-11.63 12.602-11.63h48.765l33.544-25.28 12.34 16.387a24.989 24.989 0 0 1 4.286 8.893h49.615c3.496 0 6.313 4.526 6.313 10.11 0 5.592-2.817 10.118-6.313 10.118h-18.96c-32.486 0-58.794 26.324-58.794 58.789a58.536 58.536 0 0 0 3.154 18.96zm90.395-18.96c0-19.199-15.556-34.77-34.755-34.77-19.205 0-34.776 15.571-34.776 34.77 0 19.205 15.571 34.771 34.776 34.771 19.199 0 34.755-15.566 34.755-34.771zm18.975 0c0 29.669-24.067 53.736-53.73 53.736-29.682 0-53.736-24.067-53.736-53.736 0-29.682 24.054-53.73 53.736-53.73 29.663 0 53.73 24.048 53.73 53.73zm-237.051 0c0-19.199-15.556-34.77-34.775-34.77-19.185 0-34.756 15.571-34.756 34.77 0 19.205 15.571 34.771 34.756 34.771 19.219 0 34.775-15.566 34.775-34.771zm18.975 0c0 29.669-24.067 53.736-53.75 53.736-29.662 0-53.73-24.067-53.73-53.736 0-29.682 24.068-53.73 53.73-53.73 29.683 0 53.75 24.048 53.75 53.73"/>
</svg>
