<svg xmlns="http://www.w3.org/2000/svg" xmlns:xlink="http://www.w3.org/1999/xlink" xml:space="preserve" width="600.995" height="600.995" viewBox="0 0 600.995 600.995">
  <path fill="#fff" d="M600.498 300.497c0 165.69-134.312 300-300 300s-300-134.31-300-300c0-165.687 134.312-300 300-300s300 134.313 300 300z"/>
  <path d="M300.498 0C134.54 0 0 134.541 0 300.497c0 165.958 134.541 300.5 300.498 300.5s300.498-134.542 300.498-300.5C600.996 134.541 466.455 0 300.497 0zm0 .497c165.688 0 300 134.313 300 300 0 165.69-134.312 300-300 300s-300-134.31-300-300c0-165.687 134.312-300 300-300z"/>
  <path fill="#c1121c" d="M300.498 10.497c-159.683 0-290 130.318-290 290 0 159.684 130.317 290 290 290s290-130.316 290-290c0-159.682-130.317-290-290-290zm0 80.402c116.236 0 209.6 93.363 209.6 209.598 0 116.237-93.364 209.6-209.6 209.6-116.235 0-209.6-93.363-209.6-209.6 0-116.235 93.365-209.598 209.6-209.598z"/>
  <path d="M29.761 30.356h.064v.059h-.064v-.059zM323.32 142.422c0 15.732-12.754 28.487-28.491 28.487-15.733 0-28.486-12.755-28.486-28.487 0-15.737 12.753-28.49 28.486-28.49 15.737 0 28.491 12.753 28.491 28.49zM210.381 306.235c77.158-120.4 69.868-123.794 98.697-124.644 16.786.514 17.295 5.089 45.786 27.476 35.102 25.772 32.559 26.114 32.05 54.434-.17 34.081 2.202 31.538-24.931 44.258v-57.485l-23.907-21.368v80.889l-56.982-.508-.508-64.102c-46.802 72.241-43.75 68.17-70.205 61.05zm71.733 11.7h55.45c0 12.719 4.072 11.699 33.579 67.152 31.03 57.15 31.542 53.248 13.735 85.978l-76.822-137.866c-72.748 140.746-63.588 136.508-103.778 133.793l40.19-75.293c34.423-62.232 36.288-62.402 37.646-73.764z"/>
</svg>
