<svg xmlns="http://www.w3.org/2000/svg" xml:space="preserve" width="600.995" height="600.995"><path d="M480.398 240.398c0-132.551-107.449-240-240-240-132.55 0-240 107.449-240 240 0 132.55 107.45 240 240 240 132.551 0 240-107.45 240-240z" style="fill:#fff;fill-opacity:1;fill-rule:nonzero;stroke:none" transform="matrix(1.25 0 0 -1.25 0 600.995)"/><path d="M240.398 480.796C107.633 480.796 0 373.163 0 240.398 0 107.632 107.633-.001 240.398-.001c132.766 0 240.399 107.633 240.399 240.399 0 132.765-107.633 240.398-240.399 240.398zm0-.398c132.551 0 240-107.45 240-240 0-132.551-107.449-240-240-240-132.55 0-240 107.449-240 240 0 132.55 107.45 240 240 240z" style="fill:#000;fill-opacity:1;fill-rule:nonzero;stroke:none" transform="matrix(1.25 0 0 -1.25 0 600.995)"/><path d="M240.398 472.394c-127.746 0-232-104.25-232-231.996 0-127.747 104.254-231.997 232-231.997 127.747 0 231.997 104.25 231.997 231.997 0 127.746-104.25 231.996-231.997 231.996zm0-64.317c92.989 0 167.684-74.691 167.684-167.679 0-92.989-74.695-167.684-167.684-167.684-92.988 0-167.679 74.695-167.679 167.684 0 92.988 74.691 167.679 167.679 167.679z" style="fill:#c1121c;fill-opacity:1;fill-rule:nonzero;stroke:none" transform="matrix(1.25 0 0 -1.25 0 600.995)"/><path d="M23.832 456.511v-.024h-.023l.023.024z" style="fill:#000;fill-opacity:1;fill-rule:nonzero;stroke:none" transform="matrix(1.25 0 0 -1.25 0 600.995)"/><path d="M23.809 456.511h.023v-.023h-.023v.023z" style="fill:#000;fill-opacity:1;fill-rule:nonzero;stroke:none" transform="matrix(1.25 0 0 -1.25 0 600.995)"/><path d="M23.809 456.487v.024l.023-.024h-.023zm.023 0-.023.024v-.024h.023z" style="fill:#000;fill-opacity:1;fill-rule:nonzero;stroke:none" transform="matrix(1.25 0 0 -1.25 0 600.995)"/><path d="M23.859 456.487h-.05.023v.024l.027-.024z" style="fill:#000;fill-opacity:1;fill-rule:nonzero;stroke:none" transform="matrix(1.25 0 0 -1.25 0 600.995)"/><path d="M23.809 456.487v.024-.024l.023.024-.023-.024z" style="fill:#000;fill-opacity:1;fill-rule:nonzero;stroke:none" transform="matrix(1.25 0 0 -1.25 0 600.995)"/><path d="M23.809 456.511h.023v-.023h-.023v.023zM23.859 456.511v-.047h-.05l.05.047z" style="fill:#000;fill-opacity:1;fill-rule:nonzero;stroke:none" transform="matrix(1.25 0 0 -1.25 0 600.995)"/><path d="M23.809 456.511h.051v-.047h-.051v.047z" style="fill:#000;fill-opacity:1;fill-rule:nonzero;stroke:none" transform="matrix(1.25 0 0 -1.25 0 600.995)"/><path d="M23.809 456.464v.047l.05-.047h-.05zm.05 0-.05.047v-.047h.05z" style="fill:#000;fill-opacity:1;fill-rule:nonzero;stroke:none" transform="matrix(1.25 0 0 -1.25 0 600.995)"/><path d="M23.859 456.464h-.05.023v.047l.027-.047z" style="fill:#000;fill-opacity:1;fill-rule:nonzero;stroke:none" transform="matrix(1.25 0 0 -1.25 0 600.995)"/><path d="M23.809 456.464v.047-.047l.05.047-.05-.047z" style="fill:#000;fill-opacity:1;fill-rule:nonzero;stroke:none" transform="matrix(1.25 0 0 -1.25 0 600.995)"/><path d="M23.809 456.511h.051v-.047h-.051v.047z" style="fill:#000;fill-opacity:1;fill-rule:nonzero;stroke:none" transform="matrix(1.25 0 0 -1.25 0 600.995)"/><path d="M23.859 456.511v-.047h-.05l.05.047z" style="fill:#000;fill-opacity:1;fill-rule:nonzero;stroke:none" transform="matrix(1.25 0 0 -1.25 0 600.995)"/><path d="M23.809 456.511h.051v-.047h-.051v.047z" style="fill:#000;fill-opacity:1;fill-rule:nonzero;stroke:none" transform="matrix(1.25 0 0 -1.25 0 600.995)"/><path d="M23.809 456.464v.047l.05-.047h-.05zm.05 0-.05.047v-.047h.05z" style="fill:#000;fill-opacity:1;fill-rule:nonzero;stroke:none" transform="matrix(1.25 0 0 -1.25 0 600.995)"/><path d="M23.859 456.464h-.05.023v.047l.027-.047z" style="fill:#000;fill-opacity:1;fill-rule:nonzero;stroke:none" transform="matrix(1.25 0 0 -1.25 0 600.995)"/><path d="M23.809 456.464v.047-.047l.05.047-.05-.047z" style="fill:#000;fill-opacity:1;fill-rule:nonzero;stroke:none" transform="matrix(1.25 0 0 -1.25 0 600.995)"/><path d="M23.809 456.511h.051v-.047h-.051v.047z" style="fill:#000;fill-opacity:1;fill-rule:nonzero;stroke:none" transform="matrix(1.25 0 0 -1.25 0 600.995)"/><path d="M23.859 456.511v-.047h-.05l.05.047z" style="fill:#000;fill-opacity:1;fill-rule:nonzero;stroke:none" transform="matrix(1.25 0 0 -1.25 0 600.995)"/><path d="M23.809 456.511h.051v-.047h-.051v.047z" style="fill:#000;fill-opacity:1;fill-rule:nonzero;stroke:none" transform="matrix(1.25 0 0 -1.25 0 600.995)"/><path d="M23.809 456.464v.047l.05-.047h-.05zm.05 0-.05.047v-.047h.05z" style="fill:#000;fill-opacity:1;fill-rule:nonzero;stroke:none" transform="matrix(1.25 0 0 -1.25 0 600.995)"/><path d="M23.859 456.464h-.05.023v.047l.027-.047z" style="fill:#000;fill-opacity:1;fill-rule:nonzero;stroke:none" transform="matrix(1.25 0 0 -1.25 0 600.995)"/><path d="M23.809 456.464v.047-.047l.05.047-.05-.047z" style="fill:#000;fill-opacity:1;fill-rule:nonzero;stroke:none" transform="matrix(1.25 0 0 -1.25 0 600.995)"/><path d="M23.809 456.511h.051v-.047h-.051v.047zM82.125 244.398v8.023h316.539v-8.023H82.125zM252.41 371.226a15.718 15.718 0 0 1-17.844-.715l-4.64-3.504-5.852-.836v9.16l10.696 1.527v7.633l-10.805-1.539c1.672 8.504 9.922 14.031 18.426 12.36 8.492-1.688 14.031-9.938 12.347-18.442a15.691 15.691 0 0 0-2.328-5.644zm15.594-92.828c-33.316.98-50.641-1.637-53.988 14.73l-.676 3.113c-3.914 14.262-17.52 23.641-32.25 22.211-5.223 10.586-10.457 21.707 24.836 32.36a22.775 22.775 0 0 1-.645-5.661l30.86 23.262c5.765 4.352 13.968 3.199 18.304-2.566l16.309-21.653-17.336-13.058-17.922 23.769-27.355-20.621a22.937 22.937 0 0 1 15.121-11.254 6.534 6.534 0 0 0 6.519 6.008h25.199l17.348 13.074 6.387-8.468a13.013 13.013 0 0 0 2.215-4.606h25.648c1.805 0 3.258-2.336 3.258-5.219 0-2.898-1.453-5.234-3.258-5.234h-9.812c-16.782 0-30.399-13.594-30.399-30.387 0-3.332.559-6.64 1.637-9.8zm46.742 9.8c0 9.922-8.058 17.969-17.98 17.969s-17.969-8.047-17.969-17.969 8.047-17.968 17.969-17.968 17.98 8.046 17.98 17.968zm9.801 0c0-15.336-12.445-27.769-27.781-27.769-15.34 0-27.782 12.433-27.782 27.769 0 15.34 12.442 27.782 27.782 27.782 15.336 0 27.781-12.442 27.781-27.782zm-122.535 0c0 9.922-8.059 17.969-17.981 17.969-9.922 0-17.965-8.047-17.965-17.969s8.043-17.968 17.965-17.968 17.981 8.046 17.981 17.968zm9.801 0c0-15.336-12.442-27.769-27.782-27.769-15.336 0-27.765 12.433-27.765 27.769 0 15.34 12.429 27.782 27.765 27.782 15.34 0 27.782-12.442 27.782-27.782M192.707 224.355a9.503 9.503 0 0 1-8.746-5.715l-15.106-34.699a34.084 34.084 0 0 0-3.996-6.891l-2.289-3.047a11.442 11.442 0 0 1-2.308-6.871v-24.801a9.537 9.537 0 0 1 9.539-9.539H311c5.258 0 9.543 4.27 9.543 9.539v24.801c0 2.48-.813 4.883-2.293 6.871l-2.309 3.047a34.918 34.918 0 0 0-4.011 6.891l-15.09 34.699a9.523 9.523 0 0 1-8.742 5.715h-95.391zm2.309-9.52h90.769a3.87 3.87 0 0 0 3.524-2.293l13.097-30.156H178.395l13.121 30.156a3.834 3.834 0 0 0 3.5 2.293zm-13.762-41.969c6.324 0 11.453-5.148 11.453-11.472 0-6.313-5.129-11.453-11.453-11.453s-11.453 5.14-11.453 11.453c0 6.324 5.129 11.472 11.453 11.472zm118.293 0c6.324 0 11.453-5.148 11.453-11.472 0-6.313-5.129-11.453-11.453-11.453s-11.449 5.14-11.449 11.453c0 6.324 5.125 11.472 11.449 11.472zm-129.746-43.898v-20.977c0-3.16 2.554-5.734 5.719-5.734h11.453a5.743 5.743 0 0 1 5.734 5.734v20.977h-22.906zm118.297 0v-20.977c0-3.16 2.554-5.734 5.715-5.734h11.453a5.743 5.743 0 0 1 5.734 5.734v20.977h-22.902z" style="fill:#000;fill-opacity:1;fill-rule:nonzero;stroke:none" transform="matrix(1.25 0 0 -1.25 0 600.995)"/></svg>