<svg xmlns="http://www.w3.org/2000/svg" xmlns:xlink="http://www.w3.org/1999/xlink" xml:space="preserve" width="600.996" height="600.996" viewBox="0 0 600.996 600.996">
  <path fill="#fff" d="M600.498 300.498c0 165.688-134.312 300-300 300s-300-134.312-300-300 134.312-300 300-300 300 134.312 300 300z"/>
  <path fill="#154889" d="M562.471 306.88c0 141.514-114.722 256.235-256.236 256.235S50 448.394 50 306.88 164.721 50.645 306.235 50.645 562.471 165.366 562.471 306.88z"/>
  <path d="M300.498 0C134.54 0 0 134.541 0 300.498s134.541 300.498 300.498 300.498 300.498-134.541 300.498-300.498S466.455 0 300.497 0zm0 .498c165.688 0 300 134.312 300 300s-134.312 300-300 300-300-134.312-300-300 134.312-300 300-300z"/>
  <path fill="#c1121c" d="M300.498 10.503c-159.683 0-290 130.312-290 289.995s130.317 290 290 290 289.996-130.317 289.996-290S460.18 10.503 300.498 10.503zm0 80.396c116.236 0 209.605 93.364 209.605 209.599 0 47.236-15.42 90.698-41.53 125.65L174.85 132.426C209.8 106.32 253.26 90.9 300.498 90.9zm-168.076 83.955 293.725 293.72c-34.95 26.109-78.412 41.529-125.65 41.529-116.235 0-209.598-93.37-209.598-209.605 0-47.237 15.42-90.693 41.523-125.644z"/>
</svg>
