<svg xmlns="http://www.w3.org/2000/svg" xml:space="preserve" width="847.159" height="743.623" viewBox="0 0 847.159 743.623">
  <path fill="#fff" d="M423.584.498c-9.39 0-18.784 3.583-25.948 10.747a36.682 36.682 0 0 0-5.884 7.69l-19.057 32.696h-.088L6.23 686.681c-.068.12-.121.243-.19.365a36.752 36.752 0 0 0-4.283 9.888c-5.243 19.57 6.373 39.692 25.948 44.936a36.547 36.547 0 0 0 9.673 1.25H809.96c20.269 0 36.694-16.426 36.694-36.695a36.5 36.5 0 0 0-4.849-18.222.922.922 0 0 1-.062-.122L461.284 27.57c-4.829-8.331-7.065-11.631-11.758-16.324C442.364 4.081 432.974.498 423.584.498z"/>
  <path fill="#c1121c" d="M423.584 9.693c-8.906-.064-18.686 4.487-23.476 13.007L13.49 692.564c-2.231 4.56-3.169 8.525-3.198 13.061a27.5 27.5 0 0 0 9.81 21.05c5.478 4.243 10.668 6.45 17.65 6.45h772.383c4.713.044 9.434-1.089 13.721-3.916a26.94 26.94 0 0 0 13.013-23.033c-.23-4.867-1.43-10-3.599-13.612L446.88 22.588c-.034-.06-.074-.118-.112-.175a7.206 7.206 0 0 1-.118-.182c-1.371-2.192-3.09-4.13-5.049-5.79a27.49 27.49 0 0 0-16.03-6.646 24.694 24.694 0 0 0-1.987-.102zM37.754 733.125H35.85h1.942-.038zm385.43-590.669 294.628 510.67H128.14l295.044-510.67z"/>
  <path d="M423.584 0c-9.521 0-19.038 3.633-26.299 10.894a37.21 37.21 0 0 0-5.966 7.792l-18.911 32.447h-.09L5.802 686.43c-.084.148-.142.274-.201.376a37.241 37.241 0 0 0-4.325 9.995c-5.313 19.84 6.464 40.235 26.299 45.553a37.353 37.353 0 0 0 9.803 1.269h772.584c20.537 0 37.198-16.66 37.198-37.198a37.033 37.033 0 0 0-4.918-18.466c-.015-.024-.033-.064-.063-.123L461.724 27.32c-4.839-8.335-7.119-11.704-11.836-16.425C442.627 3.633 433.104 0 423.587 0h-.004zm0 .498c9.39 0 18.78 3.583 25.942 10.747 4.693 4.693 6.929 7.993 11.758 16.324L841.739 688.08c.023.044.043.083.067.122a36.511 36.511 0 0 1 4.849 18.222c0 20.269-16.425 36.695-36.694 36.695H37.377a36.547 36.547 0 0 1-9.672-1.25C8.13 736.626-3.486 716.504 1.758 696.934a36.596 36.596 0 0 1 4.282-9.888c.069-.122.123-.245.19-.366L372.607 51.631h.088l19.057-32.696a36.682 36.682 0 0 1 5.884-7.69C404.8 4.081 414.19.498 423.584.498z"/>
  <path d="m423.579 549.795-67.949 67.949V481.826h-70.479v-40.263h70.479v-78.038l67.949-67.949 67.974 67.95v78.037h70.473v40.263h-70.473v135.918"/>
</svg>
