<?xml version="1.0" encoding="utf-8"?>
<!-- Svg Vector Icons : http://www.onlinewebfonts.com/icon -->
<svg xmlns="http://www.w3.org/2000/svg" viewBox="0 0 1000 1000" xml:space="preserve">
    <metadata> Svg Vector Icons : http://www.onlinewebfonts.com/icon </metadata>
    <path d="M974.4 775.5H25.6c-8.6 0-15.6 7-15.6 15.6v122.7c0 42.1 34.1 76.3 76.3 76.3h827.4c42.1 0 76.3-34.2 76.3-76.3V791c0-8.6-7-15.5-15.6-15.5zM42 706.9h916c6 0 11.4-3.4 14-8.8 2.6-5.4 1.9-11.7-1.8-16.4L774.1 432.6c-14.5-18.4-36.6-29.1-59.9-29.1h-79.4v131.4c-.1 55.1-53 90.7-134.8 90.7S365.4 590 365.3 534.8V403.5h-79.4c-23.4 0-45.5 10.7-59.9 29.1L29.8 681.7c-3.7 4.7-4.4 11.1-1.8 16.4 2.6 5.4 8.1 8.8 14 8.8z"/>
    <path fill='red' d="M430.6 318.9v215.9c0 14.1 31.1 25.5 69.4 25.5 38.3 0 69.4-11.4 69.4-25.5V318.9c54.9-26.1 93.1-81.6 93.1-146.4C662.5 82.8 589.7 10 500 10S337.5 82.8 337.5 172.5c0 64.8 38.2 120.3 93.1 146.4z"/>
</svg>
