<svg xmlns="http://www.w3.org/2000/svg" width="451" height="451" version="1.0"><path d="M38 .5h375c20.775 0 37.5 16.725 37.5 37.5v375c0 20.775-16.725 37.5-37.5 37.5H38C17.225 450.5.5 433.775.5 413V38C.5 17.225 17.225.5 38 .5z" style="color:#000;fill:#fff;fill-opacity:1;fill-rule:nonzero;stroke:#000;stroke-width:1;stroke-linecap:butt;stroke-linejoin:miter;marker:none;marker-start:none;marker-mid:none;marker-end:none;stroke-miterlimit:4;stroke-dashoffset:0;stroke-opacity:1;visibility:visible;display:inline;overflow:visible"/><path d="M38 13h375c13.85 0 25 11.15 25 25v375c0 13.85-11.15 25-25 25H38c-13.85 0-25-11.15-25-25V38c0-13.85 11.15-25 25-25z" style="color:#000;fill:#003f87;fill-opacity:1;fill-rule:nonzero;stroke:none;stroke-width:.8735441;stroke-linecap:butt;stroke-linejoin:miter;marker:none;marker-start:none;marker-mid:none;marker-end:none;stroke-miterlimit:4;stroke-dashoffset:0;stroke-opacity:1;visibility:visible;display:inline;overflow:visible"/><path d="M302.73 413V248.447H148.27V413H74.648V38h73.622v135.447h154.46V38h73.622v375H302.73z" style="font-size:558.67590332px;font-style:normal;font-variant:normal;font-weight:400;font-stretch:normal;text-align:center;line-height:125%;writing-mode:lr-tb;text-anchor:middle;fill:#fff;fill-opacity:1;font-family:Roadgeek 2005 Series EM"/></svg>