<svg xmlns="http://www.w3.org/2000/svg" xml:space="preserve" width="601" height="601" version="1.0" viewBox="0 0 600 599.999"><g style="fill:#fff;fill-opacity:1;stroke:#000;stroke-width:.99999923;stroke-miterlimit:4;stroke-dasharray:none;stroke-opacity:1"><path d="M80.753 0c34.676 10.583 71.485 16.277 109.624 16.277C228.516 16.277 265.324 10.583 300 0c34.676 10.583 71.484 16.277 109.623 16.277 38.139 0 74.948-5.694 109.624-16.277C569.813 63.908 600 144.678 600 232.5c0 181.424-128.83 332.754-300 367.499C128.83 565.254 0 413.924 0 232.5 0 144.678 30.188 63.908 80.753 0z" style="fill:#fff;fill-opacity:1;stroke:#000;stroke-width:.99999923;stroke-miterlimit:4;stroke-dasharray:none;stroke-opacity:1" transform="matrix(.99834 0 0 .99834 .5 .499)"/><path d="M80.753 0c34.676 10.583 71.485 16.277 109.624 16.277C228.516 16.277 265.324 10.583 300 0c34.676 10.583 71.484 16.277 109.623 16.277 38.139 0 74.948-5.694 109.624-16.277C569.813 63.908 600 144.678 600 232.5c0 181.424-128.83 332.754-300 367.499C128.83 565.254 0 413.924 0 232.5 0 144.678 30.188 63.908 80.753 0z" style="fill:#fff;fill-opacity:1;stroke:#000;stroke-width:.99999923;stroke-linecap:round;stroke-linejoin:round;stroke-miterlimit:4;stroke-dasharray:none;stroke-opacity:1" transform="matrix(.99834 0 0 .99834 .5 .499)"/></g><path d="M15 232.5c0-31.979 4.17-62.984 11.995-92.501h546.01C580.83 169.516 585 200.521 585 232.5c0 173.105-122.174 317.672-285 352.177C137.174 550.172 15 405.605 15 232.5z" style="fill:#003f87;fill-opacity:1;stroke:none;stroke-opacity:1" transform="matrix(1.0071 0 0 1.01028 -2.128 -3.669)"/><path d="M31.324 124.999C43.58 85.779 62.363 49.44 86.403 17.259c33.101 9.134 67.968 14.013 103.974 14.013 38.06 0 74.848-5.451 109.623-15.617 34.775 10.166 71.563 15.617 109.623 15.617 36.006 0 70.873-4.88 103.975-14.012 24.039 32.18 42.823 68.518 55.078 107.739H31.324z" style="fill:#af1e2d;fill-opacity:1;stroke:none;stroke-opacity:1" transform="matrix(1.01255 0 0 1.02715 -3.764 -3.102)"/><path d="M291.254 440.389v-202.27h-22.725v-31.66h2.603c5.214 0 10.428-1.365 15.643-4.098 5.214-2.732 9.56-6.583 13.039-11.555h31.66v249.583h-40.22z" style="font-size:372.50445557px;font-style:normal;font-variant:normal;font-weight:400;font-stretch:normal;text-align:center;line-height:125%;writing-mode:lr-tb;text-anchor:middle;fill:#fff;fill-opacity:1;font-family:Roadgeek 2005 Series D"/><path d="M108.869 112.812V50.416h8.74v62.396h-8.74zm50.7 0-19.25-41.814v41.814h-8.928V50.416h8.928l17.11 37.437V50.416h8.93v62.396h-6.79zm35.848-54.106v54.106h-9.02V58.706h-11.346v-8.29h31.712v8.29h-11.346zm19.888 54.106V50.416H244.6v8.756h-20.365v15.736h12.927v8.569h-12.927v20.581h22.783v8.754h-31.712zm67.9 0-8.279-29.335h-8.554v29.335h-8.928V50.416h18.6c2.418 0 4.635.404 6.65 1.21 2.015.808 3.75 1.926 5.208 3.354 1.456 1.429 2.572 3.183 3.347 5.262.775 2.08 1.162 4.361 1.162 6.845 0 3.725-.744 6.892-2.232 9.5-1.488 2.607-3.72 4.47-6.696 5.585l8.928 30.64h-9.206zm.465-45.725c0-2.421-.744-4.346-2.232-5.773-1.488-1.428-3.441-2.142-5.859-2.142h-9.207v15.736h9.207c2.603 0 4.603-.667 5.998-2.002 1.395-1.335 2.093-3.274 2.093-5.819zm50.894 28.681c0 2.547-.45 4.922-1.348 7.125-.899 2.204-2.138 4.112-3.72 5.727a18.492 18.492 0 0 1-5.486 3.865c-2.078.962-4.326 1.444-6.743 1.444-2.729 0-5.177-.528-7.347-1.583-2.169-1.056-3.997-2.483-5.486-4.283-1.488-1.8-2.635-3.88-3.44-6.24a22.602 22.602 0 0 1-1.21-7.356h8.741c0 1.303.17 2.591.511 3.863.34 1.273.868 2.421 1.581 3.446a8.214 8.214 0 0 0 2.698 2.469c1.085.62 2.402.93 3.952.93 1.178 0 2.31-.248 3.395-.744a8.334 8.334 0 0 0 2.79-2.05 10.329 10.329 0 0 0 1.859-3.026 9.477 9.477 0 0 0 .697-3.587c0-1.8-.372-3.398-1.116-4.794-.743-1.396-2.045-2.809-3.905-4.237-.31-.311-.434-.482-.372-.513.063-.032-.123-.202-.557-.512-.435-.31-1.35-.915-2.745-1.816-1.395-.9-3.673-2.437-6.835-4.608-2.541-1.74-4.447-3.773-5.719-6.102-1.271-2.328-1.907-4.89-1.907-7.682 0-2.235.403-4.33 1.21-6.286a16.093 16.093 0 0 1 3.394-5.168 15.925 15.925 0 0 1 5.068-3.493c1.922-.838 3.999-1.258 6.23-1.258 2.232 0 4.294.404 6.185 1.21a15.083 15.083 0 0 1 4.928 3.354c1.395 1.43 2.51 3.137 3.348 5.123.837 1.987 1.287 4.16 1.35 6.518h-8.557c-.123-2.173-.867-3.911-2.231-5.215-1.364-1.303-3.039-1.955-5.023-1.955-2.046 0-3.781.683-5.207 2.049-1.425 1.366-2.138 3.073-2.138 5.121 0 1.552.403 2.855 1.209 3.91.806 1.056 2.355 2.236 4.649 3.539 6.014 3.477 10.4 7.015 13.16 10.616 2.758 3.601 4.137 7.667 4.137 12.2zm25.957-37.062v54.106h-9.02V58.706h-11.346v-8.29h31.712v8.29h-11.346zm45.927 54.106-4.37-17.044h-13.393l-4.09 17.044h-9.022l15.53-62.396h8.744l15.53 62.396h-8.929zm-11.159-43.77-4.37 17.973h8.928l-4.558-17.973zm44.242-10.336v54.106h-9.02V58.706h-11.346v-8.29h31.712v8.29h-11.346zm19.889 54.106V50.416h29.294v8.756h-20.366v15.736h12.927v8.569h-12.927v20.581h22.784v8.754H459.42z" style="font-size:93.21589661px;font-style:normal;font-variant:normal;font-weight:400;font-stretch:normal;text-align:center;line-height:125%;writing-mode:lr-tb;text-anchor:middle;fill:#fff;fill-opacity:1;font-family:Roadgeek 2005 Series C"/></svg>