<svg xmlns="http://www.w3.org/2000/svg" width="600" height="600" viewBox="0 0 6.667 6.667"><rect width="6.667" height="6.667" rx=".417" style="fill:#006b54;fill-opacity:1;stroke-width:0"/><path d="M562.906 27.594a11.348 11.348 0 0 0-5.343 1.75 152.17 152.17 0 0 1-76.375 23.562l-31.313 1.063a123.563 123.563 0 0 0-50.781 12.812 42.773 42.773 0 0 1-46.75-5.75 27.302 27.302 0 0 0-31.75-2.656 17.16 17.16 0 0 1-19.406-1.219 47.377 47.377 0 0 0-51.157-4.718 36.59 36.59 0 0 1-38.687-3.032 36.513 36.513 0 0 0-21.031-7.156L42.875 39.406a8.332 8.332 0 0 0-8.5 8.344v412.313a8.332 8.332 0 0 0 9.188 8.28 21.793 21.793 0 0 1 21.062 10.688 71.023 71.023 0 0 0 23.75 24.469 144.495 144.495 0 0 0 53.063 19.938 380.605 380.605 0 0 0 43.656 4.593 51.58 51.58 0 0 1 36.125 17.25 82.983 82.983 0 0 0 81.5 25.532 52.735 52.735 0 0 1 26.625.468 25.032 25.032 0 0 0 19.375-2.468l9.5-5.563a26.89 26.89 0 0 0 4.437-3.219 12.08 12.08 0 0 1 13.125-1.968 17.043 17.043 0 0 0 22.594-8.282 78.088 78.088 0 0 1 51.313-42.718 137.623 137.623 0 0 0 101.937-152.157 43.413 43.413 0 0 1 8.063-31.719 35.405 35.405 0 0 0 1.406-39.906 10.815 10.815 0 0 1 4.25-15.437A17.595 17.595 0 0 0 575 252.156V38.937a11.348 11.348 0 0 0-12.094-11.343zM126.594 141.063c9.542 0 17.666 2.171 24.375 6.5 6.709 4.328 12.447 11.12 17.219 20.375 3.13 6.716 5.585 14.544 7.375 23.5 1.788 8.955 2.687 18.128 2.687 27.53 0 11.941-1.417 23.355-4.25 34.25-2.833 10.896-6.844 19.722-12.063 26.438-8.349 11.194-20.415 16.781-36.218 16.781-10.586 0-19.33-2.171-26.188-6.5-6.858-4.328-12.527-11.12-17-20.375-3.13-6.417-5.655-14.176-7.594-23.28-1.938-9.254-2.906-18.358-2.906-27.313 0-12.388 1.418-23.872 4.25-34.469 2.982-10.597 6.994-19.492 12.063-26.656 4.472-5.672 9.793-9.845 15.906-12.531 6.262-2.836 13.696-4.25 22.344-4.25zm333.719 0c9.541 0 17.665 2.171 24.375 6.5 6.708 4.328 12.447 11.12 17.218 20.375 3.131 6.716 5.586 14.544 7.375 23.5 1.79 8.955 2.688 18.128 2.688 27.53 0 11.941-1.418 23.355-4.25 34.25-2.833 10.896-6.845 19.722-12.063 26.438-8.349 11.194-20.446 16.781-36.25 16.781-10.585 0-19.298-2.171-26.156-6.5-6.858-4.328-12.527-11.12-17-20.375-3.13-6.417-5.656-14.176-7.594-23.28-1.938-9.254-2.906-18.358-2.906-27.313 0-12.388 1.417-23.872 4.25-34.469 2.982-10.597 6.993-19.492 12.063-26.656 4.472-5.672 9.762-9.845 15.875-12.531 6.261-2.836 13.727-4.25 22.375-4.25zm-248.875 2.687h23.718v60.438h54.563V143.75h23.687v150H289.72v-65.375h-54.563v65.375h-23.719v-150zm137.593 0h24.156v150h-24.156v-150zm-225 21.469c-4.876.098-9.014 1.45-12.406 4.062-3.876 2.985-7.09 7.815-9.625 14.531-1.938 4.478-3.425 9.926-4.469 16.344a133.035 133.035 0 0 0-1.344 18.813c0 8.06.729 15.818 2.22 23.281 1.49 7.463 3.736 13.599 6.718 18.375 2.385 3.88 5.22 6.778 8.5 8.719 3.28 1.94 7.323 2.906 12.094 2.906 5.516 0 10.046-1.484 13.625-4.469 3.727-2.985 6.871-7.846 9.406-14.562.746-1.94 1.473-4.251 2.219-6.938a81.888 81.888 0 0 0 1.781-8.719 101.91 101.91 0 0 0 1.344-9.406c.298-3.134.469-6.202.469-9.187 0-8.508-.76-16.336-2.25-23.5-1.492-7.314-3.738-13.52-6.72-18.594-2.385-3.88-5.118-6.709-8.25-8.5-2.981-1.79-6.714-2.826-11.187-3.125a29.613 29.613 0 0 0-2.125-.031zm333.688 0c-4.876.098-9.015 1.45-12.406 4.062-3.877 2.985-7.06 7.815-9.594 14.531-1.938 4.478-3.425 9.926-4.469 16.344a133.035 133.035 0 0 0-1.344 18.813c0 8.06.729 15.818 2.219 23.281 1.49 7.463 3.737 13.599 6.719 18.375 2.385 3.88 5.22 6.778 8.5 8.719 3.28 1.94 7.291 2.906 12.062 2.906 5.517 0 10.078-1.484 13.656-4.469 3.728-2.985 6.84-7.846 9.375-14.562.747-1.94 1.505-4.251 2.25-6.938a81.888 81.888 0 0 0 1.782-8.719 101.91 101.91 0 0 0 1.344-9.406c.297-3.134.437-6.202.437-9.187 0-8.508-.728-16.336-2.219-23.5-1.49-7.314-3.737-13.52-6.719-18.594-2.385-3.88-5.15-6.709-8.28-8.5-2.983-1.79-6.684-2.826-11.157-3.125a30.487 30.487 0 0 0-2.156-.031zM53.969 337.5H98.5v11.625H82.562V425H69.876v-75.875H53.969V337.5zm56.531 0h12.531v62.938c0 4.179 1.112 7.537 3.375 10.062 2.264 2.525 5.25 3.781 8.906 3.781 3.396 0 6.168-1.256 8.344-3.781 2.264-2.525 3.406-5.883 3.406-10.063V337.5h12.532v61.375c0 1.741-.076 3.326-.25 4.719a26.475 26.475 0 0 1-.531 3.906 25.502 25.502 0 0 1-1.063 3.406 29.259 29.259 0 0 1-1.563 3.375c-2.176 3.57-5.169 6.525-9 8.875-3.743 2.264-7.695 3.406-11.875 3.406-4.353 0-8.488-1.142-12.406-3.406-3.83-2.263-6.854-5.218-9.031-8.875a29.228 29.228 0 0 1-1.563-3.375 25.28 25.28 0 0 1-1.03-3.406 45.833 45.833 0 0 1-.657-3.906 76.919 76.919 0 0 1-.125-4.719V337.5zm68.094 0h26.125c3.395 0 6.464.556 9.25 1.688 2.873 1.131 5.31 2.716 7.312 4.718 2.09 2.003 3.674 4.478 4.719 7.438 1.132 2.873 1.687 6.048 1.688 9.531 0 5.224-1.036 9.656-3.125 13.313-2.09 3.656-5.228 6.276-9.407 7.843L227.687 425H214.75l-11.594-41.125h-12.031V425h-12.531v-87.5zm63.75 0h12.562l24.031 52.5v-52.5h12.532V425h-9.531l-27.032-58.625V425h-12.562v-87.5zm68.125 0h26.125c3.395 0 6.464.625 9.25 1.844 2.873 1.132 5.31 2.76 7.312 4.937 2.09 2.09 3.674 4.672 4.719 7.719 1.132 3.047 1.687 6.406 1.688 10.063 0 8.01-1.995 14.102-6 18.28-3.918 4.18-9.569 6.25-16.97 6.25H323V425h-12.531v-87.5zm61.219 0h12.28V425h-12.28v-87.5zm31.625 0h12.53v35l19.97-35h14.5l-18.157 30.688L452.406 425H439.22l-15.406-42.719-7.97 14.781V425h-12.53v-87.5zm63.75 0h41.156v12.281h-28.594v22.063h18.156v12.031h-18.156v28.844h32V425h-44.563v-87.5zm-275.938 12.281v22.063h12.938c3.656 0 6.428-.922 8.343-2.75 2.003-1.916 3-4.65 3-8.219 0-3.395-1.035-6.091-3.125-8.094-2.09-2.002-4.823-3-8.219-3h-12.937zm131.875 0v24.813h12.938c3.656 0 6.428-1.105 8.343-3.281 2.003-2.177 3-5.245 3-9.25 0-3.657-1.035-6.643-3.125-8.907-2.09-2.263-4.823-3.375-8.219-3.375H323z" style="fill:#fff;stroke-width:0" transform="scale(.01111)"/></svg>