<svg xmlns="http://www.w3.org/2000/svg" viewBox="0.95 0.95 36.1 24.1"><rect width="36" height="24" x="1" y="1" fill="#fff" stroke="#000" stroke-width=".1" ry="1.5"/><rect width="34.5" height="22.5" x="1.75" y="1.75" fill="#a6192e" ry=".75"/><path fill="#fff" d="m27.063 14.5-2.076 3.39v2.61h-.954v-2.61l-2.094-3.39h1.128l1.44 2.322 1.446-2.322zm-5.42 6h-1.008l-.594-1.686h-1.872l-.588 1.686h-1.014l2.064-6h.948zm-1.932-2.652-.594-1.686-.606 1.686zm-3.44-3.348-.882 6h-.846l-.954-3.852-.924 3.852h-.846l-.882-6h.978l.462 3.162.75-3.162h.936l.768 3.162.462-3.162zm16.042-4.788q0 .81-.537 1.35t-1.365.54q-.678 0-1.098-.258t-.69-.828q-.402-.822-.396-2.004 0-.72.183-1.38t.495-1.056q.552-.678 1.53-.678.696 0 1.14.306t.738 1.02l-.9.354q-.198-.39-.414-.552t-.564-.162q-.72 0-1.008.738-.228.564-.228 1.41 0 1.05.288 1.644.27.486.822.48.45 0 .75-.258t.3-.666v-.258h-1.092v-.942h2.046zM26.819 11.5h-.846l-2.292-4.062V11.5h-.942v-6h.942l2.19 3.834V5.5h.948zm-5.488-2.988q0 .732-.171 1.386t-.477 1.038q-.492.666-1.458.666-.624 0-1.044-.258t-.684-.81q-.42-.822-.42-2.022 0-1.512.654-2.436.522-.678 1.53-.678 1.11 0 1.668 1.074.402.828.402 2.04zm-.948 0q0-1.08-.36-1.686-.246-.432-.78-.462-.666-.03-.966.738-.228.564-.228 1.41 0 1.098.354 1.662.27.462.822.462.624 0 .924-.762.234-.6.234-1.362zM16.089 11.5h-1.026l-.978-2.61h-1.134v2.61h-.942v-6h1.974q.678 0 1.08.192.39.198.645.618t.255.876q0 .474-.255.9t-.669.618zm-1.08-4.314q0-.432-.372-.63-.198-.114-.552-.114h-1.134v1.482h1.134q.372 0 .552-.102.372-.192.372-.636zM11.021 5.5l-.882 6h-.846l-.954-3.852-.924 3.852h-.846l-.882-6h.978l.462 3.162.75-3.162h.936l.768 3.162.462-3.162z"/></svg>