<svg xmlns="http://www.w3.org/2000/svg" width="2170" height="2170"><path fill="#fff" stroke="#000" stroke-width="10" d="M2165 2030c0 74.563-60.438 135-135 135H140c-74.56 0-135-60.438-135-135V140C5 65.44 65.44 5 140 5h1890c74.563 0 135 60.44 135 135v1890z"/><path fill="#005597" d="M140 2120c-49.627 0-90-40.375-90-90V140c0-49.627 40.373-90 90-90h1890c49.625 0 90 40.373 90 90v1890c0 49.625-40.375 90-90 90H140z"/><path fill="#fff" d="M1643.975 1335.9c-13.775 45.7-55.537 75.15-111.087 75.15-64.425 0-104.425-26.525-124.425-84-17.763-53.05-26.65-139.26-26.65-240.944 0-57.476 6.662-141.475 15.55-190.107 17.775-97.261 55.537-134.841 131.087-134.841 71.088 0 117.75 44.21 124.413 121.578h-82.2c-2.225-26.527-17.775-39.79-39.988-39.79-28.887 0-44.45 19.895-53.325 61.898-11.112 50.842-13.337 97.264-13.337 181.262 0 88.42 2.225 126.002 13.337 179.057 8.875 42 24.438 64.1 51.1 64.1 28.875 0 42.212-22.1 42.212-77.368h82.2c0 48.63-2.212 61.893-8.887 84.005zm104.65 64.1V770h230.763v81.79H1827.75v161.369h101.1v84.002h-101.1v221.051h160.438V1400h-239.563zm-544.478 0V770h81.903v630h-81.903zm-310.117 0V770h79.121v557.05h160.437V1400H894.03zM653.335 842.946c-72.95 0-63.013 196.736-63.013 240.948 0 42-9.937 245.369 63.013 245.369 70.74 0 60.804-203.37 60.804-245.37 0-50.842-1.119-240.947-60.804-240.947zm0 568.104c-156.952 0-144.805-223.262-144.805-327.156 0-108.315-9.936-322.739 144.805-322.739s144.804 216.632 144.804 322.739c0 103.893 9.937 327.156-144.804 327.156zm-348.71-559.263h-43.16v192.317h43.16c48.678 0 66.377-24.314 66.377-90.633 0-70.736-22.126-101.684-66.377-101.684zm0 274.107h-43.16V1400h-79.651V770h122.811c35.401 0 68.59 8.84 88.505 26.524 35.401 28.737 59.741 88.422 59.741 156.947 0 103.899-59.741 172.423-148.246 172.423z"/></svg>