<svg xmlns="http://www.w3.org/2000/svg" xml:space="preserve" style="enable-background:new 0 0 173.3 216.5" viewBox="0 0 173.3 216.5"><path d="M11.1 216.4c-6 0-10.9-4.9-10.9-10.9V11.1C.1 5 5 .1 11.1.1h151.2c6 0 10.9 4.9 10.9 10.9v194.4c0 6-4.9 10.9-10.9 10.9H11.1z" style="fill:#fff"/><path d="M162.2.2C168.1.2 173 5.1 173 11v194.4c0 5.9-4.9 10.8-10.8 10.8H11c-5.9 0-10.8-4.9-10.8-10.8V11C.2 5.1 5.1.2 11 .2h151.2m0-.2H11C5 0 0 5 0 11v194.4c0 6.1 5 11.1 11 11.1h151.2c6.1 0 11-5 11-11.1V11c.1-6-4.9-11-11-11z"/><path d="M11 213.5c-4.5 0-8.1-3.6-8.1-8.1V11c0-4.5 3.6-8.1 8.1-8.1h151.2c4.5 0 8.1 3.6 8.1 8.1v194.4c0 4.5-3.6 8.1-8.1 8.1H11zm151.2-4.5c2 0 3.6-1.6 3.6-3.6V11c0-2-1.6-3.6-3.6-3.6H11C9 7.4 7.4 9 7.4 11v194.4c0 2 1.6 3.6 3.6 3.6h151.2z"/><path d="M60.3 116.8c-2.1 5.3-7.2 9-13.2 9s-11.1-3.7-13.2-9c-9.5-24.4-14.8-50.9-14.8-78.7h56c-.1 27.8-5.3 54.3-14.8 78.7z" style="fill-rule:evenodd;clip-rule:evenodd"/><path d="m152.3 76.4-36.9-54.6-36.8 54.6c-.6.9-.9 1.9-.9 3 0 3 2.4 5.4 5.4 5.4.7 0 1.3-.1 1.9-.4l16.1-6v15.4c0 6.7-1.1 13.2-3.1 19.5-2 6.1-4.9 11.8-8.6 17-5.4 7.6-9.7 16-12.6 24.8-3 9.2-4.5 18.7-4.5 28.4v12.7h28.8v-12.7c0-6.7 1.1-13.2 3.1-19.5 2-6.1 4.9-11.8 8.6-17 5.4-7.6 9.7-16 12.6-24.8 3-9.2 4.5-18.7 4.5-28.4V78.5l16.1 6c.6.2 1.3.4 1.9.4 3 0 5.4-2.4 5.4-5.4-.1-1.2-.4-2.2-1-3.1z"/></svg>