<svg xmlns="http://www.w3.org/2000/svg" width="81.596" height="81.596" viewBox="0 0 230.281 230.281"><path d="m315 205 80 170-80 170-80-170z" style="fill:none;stroke:#fff;stroke-width:40" transform="translate(28002.865 4907.866)"/><path d="M21.105.844h188.087c11.141 0 20.257 9.116 20.257 20.257v188.087c0 11.144-9.116 20.26-20.257 20.26H21.105c-11.14 0-20.256-9.116-20.256-20.26V21.1C.849 9.96 9.965.844 21.105.844" style="fill:#fff;fill-opacity:1;fill-rule:nonzero;stroke:#000;stroke-width:1.69333339;stroke-miterlimit:4;stroke-opacity:1;stroke-dasharray:none"/><path d="M21.105 6.633h188.087c7.959 0 14.468 6.509 14.468 14.468v188.087c0 7.962-6.51 14.47-14.468 14.47H21.105c-7.958 0-14.47-6.508-14.47-14.47V21.1c0-7.96 6.512-14.468 14.47-14.468" style="fill:#155196;fill-opacity:1;fill-rule:evenodd;stroke:none"/><path d="M40.674 165.967h-13.23v-101.6h13.23v101.6zM99.128 165.965H86.954L68.7 107.75v58.215H55.47v-101.6h13.184l17.244 54.663V64.365h13.229v101.6zM113.8 165.965v-101.6h38.611v13.23h-25.403v27.432h15.282v13.229h-15.282v47.71H113.8zM179.385 76.536c-3.987 0-6.76 3.56-8.315 10.675-1.22 5.761-1.828 15.078-1.828 27.958 0 11.317.237 18.905.713 22.768 1.418 10.573 4.562 15.858 9.43 15.858 4.734 0 7.807-5.285 9.236-15.858.606-4.473.906-12.061.906-22.768 0-12.88-.603-22.197-1.824-27.958-1.559-7.115-4.328-10.675-8.318-10.675m0-13.229c9.419 0 15.857 4.78 19.307 14.337 2.71 7.461 4.064 19.967 4.064 37.525 0 17.149-1.217 29.351-3.658 36.604-3.45 10.167-10.022 15.25-19.713 15.25-9.892 0-16.528-5.284-19.918-15.86-2.3-7.12-3.454-19.117-3.454-35.994 0-17.22 1.457-29.725 4.371-37.525 3.588-9.557 9.92-14.337 19-14.337" style="fill:#fff;fill-opacity:1;fill-rule:nonzero;stroke:none"/></svg>