<svg xmlns="http://www.w3.org/2000/svg" width="502.9" height="502.9"><path d="M501.45 203.862c0-17.26-13.99-31.25-31.25-31.25H32.7c-17.259 0-31.25 13.99-31.25 31.25v437.5c0 17.26 13.991 31.25 31.25 31.25h437.5c17.26 0 31.25-13.99 31.25-31.25z" style="fill:#fff;fill-opacity:1;fill-rule:nonzero;stroke:#000;stroke-opacity:1;stroke-width:2.5;stroke-miterlimit:4;stroke-dasharray:none" transform="translate(0 -171.162)"/><path d="M470.2 664.279c12.636 0 22.917-10.28 22.917-22.917v-437.5c0-12.636-10.28-22.916-22.917-22.916H32.7c-12.637 0-22.917 10.28-22.917 22.916v437.5c0 12.637 10.28 22.917 22.917 22.917z" style="fill:#000;fill-rule:nonzero;stroke:none" transform="translate(0 -171.162)"/><path d="M470.2 651.779c5.744 0 10.417-4.674 10.417-10.417v-437.5c0-5.744-4.673-10.416-10.417-10.416H32.7c-5.743 0-10.417 4.672-10.417 10.416v437.5c0 5.743 4.674 10.417 10.417 10.417z" style="fill:#fff;fill-opacity:1;fill-rule:nonzero;stroke:none" transform="translate(0 -171.162)"/><path d="M242.34 230.797c-47.064.01-93.066 18.721-127.083 50.694L97.55 259.095c-2.333-2.673-4.611-4.66-7.986-4.687-5.049-.035-9.18 4.146-9.201 9.201L79.32 378.02l106.597-41.493c4.708-1.827 7.02-7.271 5.208-11.98-1.277-3.291-3.75-4.45-7.465-5.729l-27.083-8.854c25.528-20.972 59.465-31.972 92.708-30.208 24.82 1.32 50.215 10.722 70.139 24.48l26.562-41.494c-27.145-18.007-61.041-30.02-94.097-31.77-3.143-.167-6.41-.175-9.548-.174zm111.98 60.069-16.146 113.368c-.722 4.993 2.82 9.688 7.812 10.417 3.487.5 5.75-1.216 8.681-3.82l21.007-19.27c5.75 32.534-1.424 67.548-19.27 95.66-13.32 20.964-33.96 38.527-55.73 49.131l23.264 43.403c29-14.806 55.868-38.549 73.611-66.493 26.993-42.514 35.014-95.222 23.09-143.577l28.299-4.513c3.472-.723 6.146-1.764 7.812-4.688 2.514-4.375 1.084-9.993-3.298-12.5l-99.132-57.118zM58.66 404.06c-1.743 32.521 5.056 66.292 20.313 95.66 23.208 44.695 64.86 78.209 112.673 92.188l-10.243 26.562c-1.11 3.361-1.694 6.285 0 9.202 2.528 4.368 8.132 5.833 12.5 3.298l99.132-57.118-89.757-70.66c-3.944-3.145-9.708-2.562-12.847 1.39-2.18 2.763-2 5.527-1.215 9.374l6.076 27.952c-31.014-11.361-57.576-35.202-72.917-64.757-11.451-22.056-16.347-48.604-14.583-72.743l-49.132-.348z" style="fill:#000;fill-opacity:1;fill-rule:evenodd;stroke:none" transform="translate(0 -171.162)"/></svg>