<svg xmlns="http://www.w3.org/2000/svg" xml:space="preserve" width="86.187" height="128.937" viewBox="0 -0.321 86.187 128.938"><path d="M11.027.033h64.125c5.886 0 10.687 4.801 10.687 10.688v106.875c0 5.886-4.8 10.686-10.687 10.686H11.027c-5.886 0-10.688-4.8-10.688-10.686V10.72C.34 4.908 5.213.033 11.027.033" style="fill:#fff;stroke:#000;stroke-width:.70000017;stroke-linecap:butt;stroke-linejoin:miter;stroke-miterlimit:4;stroke-opacity:1;stroke-dasharray:none"/><path d="M11.06 2.705h64.057c4.415.017 8.022 3.642 8.051 8.05V117.56c-.029 4.41-3.636 8.027-8.051 8.05H11.06c-4.403-.023-8.033-3.64-8.048-8.05V10.755c.015-4.408 3.645-8.033 8.048-8.05" style="fill:#bf2519;fill-opacity:1;fill-rule:evenodd;stroke:none"/><path d="M11.1 5.826h63.978a4.98 4.98 0 0 1 4.968 4.968v106.728c-.015 2.737-2.218 4.97-4.968 4.967H11.1c-2.749.002-4.954-2.23-4.969-4.967V10.794a4.981 4.981 0 0 1 4.97-4.968" style="fill:#fff;fill-opacity:1;fill-rule:evenodd;stroke:none"/><path d="M70.626 113.099H25.991l.892 3.362c.021.023.042.036.048.065a.865.865 0 0 1 .052.135c-.023.193-.065.371-.187.528-.212.292-.505.378-.855.362a.672.672 0 0 1-.34-.1l-10.197-7.025 10.196-6.932a1 1 0 0 1 .42-.185c.299-.063.626.17.798.413.1.143.15.293.165.47-.015.058-.015.122-.044.178a.519.519 0 0 1-.056.115l-.892 3.27h44.635v5.344zM53.6 71.977l-2.306-5.168h-2.136l3.438 7.795v6.455h2.008v-6.455l3.44-7.795h-2.137l-2.306 5.168zM40.957 71.508l4.27 9.551h1.517V66.81h-2.009v8.521l-3.778-8.52h-2.01v14.25h2.01v-9.552zM61.26 87.524v-1.986h-6.558v14.25h7.113v-1.99H56.71v-4.699h2.884v-1.985H56.71v-3.59h4.55zM50.532 85.538h-2.009l-2.605 8.01-2.606-8.01h-2.008v14.25h2.008v-8.013l2.606 8.013 2.605-8.013v8.013h2.009v-14.25zM37.132 85.537h-2.006v14.25h2.006v-14.25zM31.552 87.44v-1.902h-7.113v1.901h2.585v12.349h2.006V87.439h2.522zM77.958 44.853c-.289-2.692-1.73-4.197-4.069-4.197-2.02 0-3.269.897-3.974 2.82-.736 1.985-.96 3.875-.96 8.2 0 4.358.224 6.25.897 8.234.705 1.986 1.922 2.825 4.037 2.825 1.89 0 3.331-.934 3.749-2.44.191-.672.32-1.794.32-2.787v-5.48h-3.876v2.79h1.216v2.818c0 1.474-.544 2.307-1.506 2.307-.928 0-1.473-.705-1.697-2.115-.288-1.794-.385-3.235-.385-6.152 0-2.947.097-4.388.417-6.118.256-1.41.865-2.115 1.826-2.115.737 0 1.217.512 1.345 1.41h2.66zM66.534 41.007h-2.659v10.67l-3.685-10.67h-2.658v21.375h2.658V49.69l4.102 12.692h2.242V41.007zM55.111 41.007h-2.659v21.375h2.66V41.007zM47.02 48.377l3.462-7.37h-3.047l-3.298 6.826v-6.826h-2.66v21.376h2.66v-8.015l.993-2.114 2.818 10.129h2.884L47.02 48.377zM31.758 20.29l6.409 14.326h2.275V13.241h-3.013v12.783L31.76 13.24h-3.01v21.375h3.01V20.29zM51.142 15.869c-1.281 0-2.114.801-2.629 2.595-.478 1.666-.64 3.076-.64 5.479 0 2.338.162 3.716.64 5.382.515 1.826 1.317 2.659 2.63 2.659 1.25 0 2.082-.833 2.594-2.626.48-1.7.64-3.013.64-5.447 0-2.403-.16-3.813-.64-5.383-.545-1.858-1.345-2.66-2.595-2.66m0-2.98c2.435 0 3.876 1.058 4.965 3.653.865 2.083 1.185 4.102 1.185 7.37 0 3.3-.32 5.35-1.185 7.432-1.057 2.53-2.562 3.626-4.965 3.626-2.467 0-3.941-1.095-4.999-3.658-.865-2.082-1.185-4.132-1.185-7.4 0-3.268.353-5.447 1.218-7.466 1.09-2.499 2.564-3.556 4.966-3.556M32.714 49.594h1.73c1.44 0 1.891-.64 1.891-2.66 0-2.434-.514-3.139-2.309-3.139h-1.312v5.799zm4.165 2.115 2.114 10.674h-2.724L33.93 52.38h-1.217v10.002h-2.66V41.008h4.069c3.267 0 4.935 2.018 4.935 5.958 0 2.435-.612 3.75-2.18 4.743M23.916 53.92l-1.152-5.64-1.154 5.64h2.306zm.578 2.787h-3.46l-1.153 5.676h-2.787l4.292-21.376h2.755l4.294 21.376h-2.789l-1.152-5.676zM11.051 50.267h1.41c1.635 0 2.21-.801 2.21-3.044 0-2.37-.705-3.427-2.21-3.427h-1.41v6.471zm0 2.788v9.327H8.394V41.007h4.067c1.218 0 2.275.321 2.948.866 1.217.993 1.987 3.044 1.987 5.318 0 3.524-1.987 5.864-4.935 5.864h-1.41zM33.075 75.16l-1.004-4.123-1.004 4.123h2.008zm.49 1.986h-2.97l-.96 3.914h-2.008l3.481-14.252h1.944l3.481 14.252h-2.006l-.962-3.914z" style="fill:#bf2519;fill-opacity:1;fill-rule:evenodd;stroke:none"/></svg>