<svg xmlns="http://www.w3.org/2000/svg" xml:space="preserve" width="86.219" height="128.937" viewBox="0 -0.321 86.219 128.938"><path d="M11.047.033h64.125c5.886 0 10.687 4.801 10.687 10.688v106.875c0 5.886-4.801 10.686-10.687 10.686H11.047c-5.887 0-10.688-4.8-10.688-10.686V10.72C.359 4.908 5.234.033 11.047.033" style="fill:#fff;fill-opacity:1;fill-rule:nonzero;stroke:#000;stroke-width:.70000017;stroke-linecap:butt;stroke-linejoin:miter;stroke-miterlimit:4;stroke-opacity:1;stroke-dasharray:none"/><path d="M11.08 2.705h64.058c4.414.017 8.022 3.642 8.049 8.05V117.56c-.027 4.41-3.635 8.027-8.05 8.05H11.08c-4.405-.023-8.035-3.64-8.048-8.05V10.755c.013-4.408 3.643-8.033 8.048-8.05" style="fill:#bf2519;fill-opacity:1;fill-rule:evenodd;stroke:none"/><path d="M11.12 5.826h63.977a4.982 4.982 0 0 1 4.97 4.968v106.728c-.018 2.737-2.22 4.97-4.97 4.967H11.12c-2.75.003-4.955-2.23-4.968-4.967V10.794a4.98 4.98 0 0 1 4.968-4.968" style="fill:#fff;fill-opacity:1;fill-rule:evenodd;stroke:none"/><path d="M51.156 14.25c-2.402 0-3.846 1.065-4.937 3.563C45.355 19.83 45 22.012 45 25.28s.322 5.294 1.188 7.375c1.056 2.564 2.502 3.657 4.968 3.657 2.404 0 3.913-1.094 4.969-3.626.866-2.082 1.188-4.106 1.188-7.406 0-3.268-.322-5.292-1.188-7.375-1.089-2.593-2.533-3.656-4.969-3.656zm0 2.969c1.25 0 2.049.797 2.594 2.656.481 1.569.656 3.003.656 5.406 0 2.434-.175 3.739-.656 5.438-.511 1.794-1.344 2.625-2.594 2.625-1.312 0-2.112-.83-2.625-2.657-.481-1.666-.625-3.036-.625-5.375 0-2.402.144-3.833.625-5.5.513-1.793 1.344-2.593 2.625-2.593z" style="fill:#bf2519;fill-opacity:1;fill-rule:evenodd;stroke:none" transform="translate(0 -.321)"/><path d="m31.787 21.324 6.408 14.326h2.275V14.277h-3.013v12.782l-5.67-12.782h-3.011V35.65h3.011V21.324zM59.972 113.088l-.89 3.363c-.022.022-.041.036-.049.065a.604.604 0 0 0-.05.135c.02.192.063.37.184.527.213.293.505.379.856.363a.668.668 0 0 0 .34-.1l10.195-7.025-10.195-6.933a.999.999 0 0 0-.42-.185c-.298-.062-.627.171-.797.414a.895.895 0 0 0-.164.47c.013.057.013.121.044.177.015.044.034.08.056.115l.89 3.27H26.021l.89-3.27c.02-.035.042-.07.055-.115.03-.056.03-.12.045-.177a.918.918 0 0 0-.165-.47c-.171-.243-.499-.476-.799-.414a.987.987 0 0 0-.419.185l-10.196 6.933 10.196 7.025a.675.675 0 0 0 .342.1c.35.016.64-.07.855-.363.12-.156.163-.335.186-.527a1.219 1.219 0 0 0-.05-.135c-.008-.03-.03-.043-.05-.065l-.89-3.363h33.951z" style="fill:#bf2519;fill-opacity:1;fill-rule:evenodd;stroke:none"/><path d="M12.61 57.32c-2.497 0-3.997-2.099-3.997-4.447h2c0 1.198.598 2.448 1.997 2.448 1.098 0 2-1 2-2.148 0-.8-.302-1.4-1.15-2.05-.3-.299.5.251-2.397-1.698-1.15-.8-1.75-1.9-1.75-3.149 0-2.048 1.6-3.697 3.647-3.697 1.998 0 3.546 1.549 3.596 3.697H14.61c-.052-1-.75-1.648-1.65-1.648-.948 0-1.698.698-1.698 1.648 0 .7.3 1.1 1.348 1.7 2.748 1.6 3.946 3.147 3.946 5.197 0 2.297-1.746 4.147-3.946 4.147M21.802 44.727V57.07h-2.049V44.727h-2.597V42.83H24.4v1.898h-2.598zM29.043 47.076l-.998 4.098h2.047l-1.049-4.098zm2.548 9.994-.999-3.898h-3.049l-.947 3.898h-2.048l3.545-14.241h2l3.544 14.24h-2.046zM41.33 57.07l-4.394-9.545v9.545h-2.049V42.829h2.049l3.894 8.545v-8.545h2.048v14.24h-1.547zM50.868 46.277c-.348-1-.946-1.45-1.846-1.45h-1.697v10.245h1.697c1.198 0 1.846-.95 2.048-2.05.1-.9.2-1.9.2-2.998 0-1.599-.15-3.149-.402-3.747m.353 10.143c-.501.45-1.2.65-2 .65h-3.945V42.828h3.645c1.2 0 1.799.15 2.3.55.847.6 1.447 1.699 1.696 3.149.2 1.048.35 2.297.35 3.397 0 3.299-.649 5.398-2.046 6.496M55.363 42.828h2V57.07h-2V42.83zM66.253 57.07l-4.396-9.545v9.545h-2.046V42.829h2.046l3.898 8.545v-8.545h2.047v14.24h-1.549zM77.436 55.321c-.549 1.249-1.699 1.999-3.146 1.999-1.7 0-2.948-.85-3.647-2.449-.45-1.05-.748-3.047-.748-4.897 0-1.998.148-3.448.65-4.797.497-1.5 1.947-2.598 3.595-2.598 2.047 0 3.596 1.498 3.696 3.597h-2.049c-.05-.949-.7-1.599-1.697-1.599-.7 0-1.25.35-1.598 1.05-.4.7-.649 2.298-.649 3.997 0 1.2.1 2.448.298 3.548.3 1.4 1.001 2.15 2.099 2.15 1.048 0 1.547-.7 1.547-2.2v-.948H74.19v-2h3.646v2.948c0 1-.1 1.6-.4 2.2M31.795 68.414l-1 4.097h2.05l-1.05-4.097zm2.547 9.994-1-3.898h-3.047l-.95 3.898h-2.047l3.548-14.242h1.999l3.545 14.242h-2.048zM45.58 78.408l-4.397-9.544v9.544h-2.047V64.165h2.047l3.898 8.547v-8.547h2.047v14.243h-1.547zM55.468 71.961v6.447h-2.046V71.96l-3.497-7.795h2.147l2.398 5.147 2.347-5.147h2.199l-3.548 7.795zM30.786 87.43v12.343h-2.049V87.43H26.14v-1.899h7.243v1.9h-2.597zM35.332 85.53h1.996v14.243h-1.996V85.531zM47.818 99.773v-7.996l-2.647 7.996-2.646-7.996v7.996h-2.05V85.531h2.05l2.646 7.996 2.647-7.996h2.05v14.242h-2.05zM52.963 99.773V85.531h6.693v2H55.01v3.597h2.947v1.949h-2.947v4.696h5.195v2h-7.243z" style="fill:#bf2519;fill-opacity:1;fill-rule:nonzero;stroke:none"/></svg>