<svg xmlns="http://www.w3.org/2000/svg" xml:space="preserve" style="enable-background:new 0 0 173.3 216.5" viewBox="0 0 173.3 216.5"><path d="M11.1 216.4c-6 0-10.9-4.9-10.9-10.9V11C.1 5 5 .1 11.1.1h151.2c6 0 10.9 4.9 10.9 10.9v194.4c0 6-4.9 10.9-10.9 10.9H11.1z" style="fill:#fff"/><path d="M162.2.2C168.1.2 173 5.1 173 11v194.4c0 5.9-4.9 10.8-10.8 10.8H11c-5.9 0-10.8-4.9-10.8-10.8V11.1C.2 5.1 5.1.2 11 .2h151.2m0-.2H11C5 0 0 5 0 11.1v194.4c0 6.1 5 11 11 11h151.2c6.1 0 11-5 11-11V11.1c.1-6.1-4.9-11.1-11-11.1z"/><path d="M11 213.6c-4.5 0-8.1-3.6-8.1-8.1V11.1C2.9 6.6 6.6 3 11 3h151.2c4.5 0 8.1 3.6 8.1 8.1v194.4c0 4.5-3.6 8.1-8.1 8.1H11z"/><path d="M11 209.1c-2 0-3.6-1.6-3.6-3.6V11.1c0-2 1.6-3.6 3.6-3.6h151.2c2 0 3.6 1.6 3.6 3.6v194.4c0 2-1.6 3.6-3.6 3.6H11z" style="fill:#fff"/><path d="M52.3 68.6V25.5h15.6c10.9 0 13.8 14.4 13.8 20.6 0 16.2-8.3 22.6-13.8 22.6H52.3zm14.5-36.3h-7.7v29.4h7.3c6.3 0 8.3-7.6 8.3-15.7 0-3.9-1.1-13.7-7.9-13.7zM42.5 100.6v29.3h-6.8V86.7h6.8l15.8 27.6V86.7H65v43.2h-6l-16.5-29.3zM127.6 129.8h-6.9V92.7h-9.9v-6.1h26.8v6.1h-10v37.1zM121 47c0 1.5.3 22.4-15.3 22.4S90.3 48.6 90.3 47c0-1.5-.3-22.4 15.3-22.4S121 45.5 121 47zm-15.2 15.4c4.7 0 8.4-4.4 8.4-15.4s-3.8-15.4-8.4-15.4c-4.7 0-8.4 4.4-8.4 15.4-.1 11 3.7 15.4 8.4 15.4zM105.2 108.2c0 1.5.3 22.4-15.3 22.4s-15.3-20.8-15.3-22.4c0-1.5-.3-22.4 15.3-22.4s15.3 20.9 15.3 22.4zM90 123.6c4.7 0 8.4-4.4 8.4-15.4S94.6 92.8 90 92.8c-4.7 0-8.4 4.4-8.4 15.4-.1 11 3.7 15.4 8.4 15.4zM33.8 172.3h-8V191H19v-43.2h16.3c10.2 0 13.1 8.3 13.1 12.1 0 2.8-1.5 12.4-14.6 12.4zm-8-7h9.6c5.4 0 6-3.9 6-5.3 0-2-1.5-5.3-5.8-5.3h-9.8v10.6zM76.1 178.9H62.6L58.3 191H51l14.9-43.2h6.9L87.7 191h-7.3l-4.3-12.1zM65 172h8.7l-4.3-12.1L65 172zM91.2 180.9l6.5-2.4c1.8 4.1 5.2 6.4 9.2 6.4 3.9 0 6.7-2.7 6.7-6.4 0-5.8-6.7-6.7-12.3-8.9-2.6-1.1-8.3-3.6-8.3-10.7 0-8.5 5.8-11.7 13.5-11.7 6.1 0 10.1 3.5 12.3 8.8l-6.1 1.8c-1-1.9-3.1-3.8-6.7-3.8-5.2 0-6.3 2.9-6.3 4.4 0 4 3.5 4.8 9.1 6.6 5.8 1.8 11.8 4.5 11.8 13.7 0 9.3-7.6 13.2-13.6 13.2-7.5-.1-12.9-4.5-15.8-11zM124.9 180.9l6.5-2.4c1.8 4.1 5.2 6.4 9.2 6.4 3.9 0 6.7-2.7 6.7-6.4 0-5.8-6.7-6.7-12.3-8.9-2.6-1.1-8.3-3.6-8.3-10.7 0-8.5 5.8-11.7 13.5-11.7 6.1 0 10.1 3.5 12.3 8.8l-6.1 1.8c-1-1.9-3.1-3.8-6.7-3.8-5.2 0-6.3 2.9-6.3 4.4 0 4 3.5 4.8 9.1 6.6 5.8 1.8 11.8 4.5 11.8 13.7 0 9.3-7.6 13.2-13.6 13.2-7.4-.1-12.9-4.5-15.8-11z"/></svg>