<svg xmlns="http://www.w3.org/2000/svg" width="81.596" height="81.596" viewBox="0 0 230.281 230.281"><path d="m315 205 80 170-80 170-80-170z" style="fill:none;stroke:#fff;stroke-width:40" transform="translate(-3032.938 16738.813)"/><path d="M21.175.845h187.92c11.188 0 20.342 9.155 20.342 20.338v187.925c0 11.186-9.154 20.337-20.341 20.337H21.175c-11.187 0-20.338-9.15-20.338-20.337V21.183C.837 10 9.988.845 21.175.845" style="fill:#fff;fill-opacity:1;fill-rule:nonzero;stroke:#000;stroke-width:1.69333334;stroke-miterlimit:4;stroke-opacity:1;stroke-dasharray:none"/><path d="M21.175 5.925h187.92c8.397 0 15.266 6.869 15.266 15.258v187.924c0 8.396-6.869 15.261-15.265 15.261H21.175c-8.39 0-15.254-6.865-15.254-15.26V21.182c0-8.39 6.865-15.258 15.254-15.258" style="fill:#155196;fill-opacity:1;fill-rule:evenodd;stroke:none"/><path d="M40.782 97.88c0-6.658 5.426-12.087 12.086-12.087 6.657 0 12.08 5.43 12.08 12.086 0 6.657-5.423 12.087-12.08 12.087-6.66 0-12.086-5.43-12.086-12.087" style="fill:#fff;fill-opacity:1;fill-rule:evenodd;stroke:none"/><path d="M35.046 152.98H19.883V66.95h15.163v48.341h160.182V87.434h15.155v65.546h-15.155v-16.796H35.046v16.796z" style="fill:#fff;fill-opacity:1;fill-rule:evenodd;stroke:none"/><path d="M71.502 109.966c.949-12.16 5.722-21.45 24.176-20.486 22.807-.134 45.614-.268 68.414-.406 18.482.106 22.564 9.814 24.581 20.892H71.502z" style="fill:#fff;fill-opacity:1;fill-rule:evenodd;stroke:none"/></svg>