<svg xmlns="http://www.w3.org/2000/svg" xmlns:xlink="http://www.w3.org/1999/xlink" viewBox="-15.05 -15.05 30.1 30.1"><defs><clipPath id="a"><circle r="12.5"/></clipPath></defs><rect width="30" height="30" x="-15" y="-15" fill="#fff" stroke="#000" stroke-width=".1" ry="1.875"/><circle r="14.5" fill="#a6192e"/><path fill="#fff" d="M13-2.5v5h-26v-5z" clip-path="url(#a)"/><g fill="none" stroke="#fff" stroke-width="40" transform="matrix(.01563 0 0 .01563 -9.75 -8.5)"><path id="b" d="M90 16a62 62 0 0 1 58.915 42.687A222.289 222.289 0 0 1 160 128a222.289 222.289 0 0 1-11.085 69.313A62 62 0 0 1 90 240a62 62 0 0 1-58.915-42.687A222.289 222.289 0 0 1 20 128a222.289 222.289 0 0 1 11.085-69.313A62 62 0 0 1 90 16Z" transform="translate(230)"/><path id="c" d="M114 124H20M148 20H20v216h136" transform="translate(120 832)"/><path d="M20 20h52.29a72 72 0 0 1 65.77 42.681A160 160 0 0 1 152 128a160 160 0 0 1-13.94 65.319A72 72 0 0 1 72.29 235H20Z"/><use xlink:href="#b" transform="translate(657)"/><use xlink:href="#c" transform="translate(629)"/></g><g fill="#fff" transform="matrix(.01563 0 0 .01563 -9.75 -8.5)"><path id="d" d="M0 0v256h40V86l96 170h36V0h-40v167.566L37.367 0H0" transform="translate(651)"/><path id="e" d="M0 0v36h58v220h40V36h58V0" transform="translate(1108)"/><use xlink:href="#d" transform="translate(-322 832)"/><use xlink:href="#e" transform="translate(-561 832)"/><path d="M956 832v256h40V976h56a72 72 0 0 0 0-144m-56 40h56a32 32 0 0 1 0 64h-56m43.771 28.143L1085.373 1088H1128l-48.602-132"/></g></svg>