<svg xmlns="http://www.w3.org/2000/svg" width="371.394" height="371.383" viewBox="0 0 1048.156 1048.125"><path d="m395 375-80 170-80-170 80-170z" style="fill:none;stroke:#fff;stroke-width:40" transform="translate(19942.347 13008.986)"/><path d="M168.921 1043.124 5.017 879.189l355.118-355.134L5.002 168.906l163.92-163.92 355.133 355.15L879.219 4.986l163.934 163.92-355.179 355.15 355.15 355.118-163.905 163.95-355.164-355.15-355.134 355.15z" style="fill:#fff;fill-opacity:1;fill-rule:nonzero;stroke:none"/><path d="M168.921 1043.124 5.017 879.189l355.118-355.134L5.002 168.906l163.92-163.92 355.133 355.15L879.219 4.986l163.934 163.92-355.179 355.15 355.15 355.118-163.905 163.95-355.164-355.15-355.134 355.15z" style="fill:none;stroke:#000;stroke-width:7.05555534;stroke-linecap:butt;stroke-linejoin:miter;stroke-miterlimit:4;stroke-opacity:1;stroke-dasharray:none"/><path d="m953.175 134.845-20.017-20.017L899.1 148.9l15.81 15.81 18.248-18.246 4.221 4.176c9.108 9.138 8.08 22.846-2.103 33.029-5.961 5.961-12.982 8.08-21.757 5.628-9.502-3.162-21.803-11.922-32.348-22.483-8.428-8.412-16.129-18.973-19.64-27.416-5.295-12.286-3.525-21.046 4.57-29.14 7.716-7.717 15.07-8.791 28.097-4.222l9.123-21.076c-22.498-9.123-37.931-6.31-53.41 9.139-11.24 11.226-15.78 23.542-14.373 36.872 2.088 15.447 13.33 35.828 29.504 51.987 12.286 12.3 27.037 22.15 40.034 26.69 18.625 6.702 33.09 3.615 48.174-11.515 18.263-18.262 18.232-45.027-.075-63.289m-88.42 148.139L764.639 182.883l-15.811 15.796 63.94 63.94-100.45-27.4-15.81 15.81 100.13 100.116 15.797-15.826-67.783-67.783 106.077 29.519 14.026-14.071zm-120.376 120.42-100.115-100.13-16.175 16.158 100.116 100.101 16.174-16.129zm-90.205 32.56c-39.354-39.338-74.107 20.017-94.14 2.83-9.85-8.458-3.873-20.018 3.874-27.053 11.59-10.879 23.527-5.992 23.527-5.992l9.834-18.277c-17.202-7.353-34.784-5.961-48.81 8.11-17.928 17.93-23.905 38.597-4.25 58.281 16.536 16.537 35.858 9.124 44.285 5.629 18.247-7.732 35.813-21.062 49.158-7.732 8.442 8.458 8.442 21.091-.711 30.23-9.472 9.471-22.469 11.938-36.161 6.657l-9.457 20.744c21.742 8.427 44.65 6.006 61.882-11.166 8.398-8.458 13.27-19.05 13.95-29.595.727-11.938-3.828-23.542-12.981-32.666m-106.335 106.38c-39.368-39.399-74.137 19.987-94.154 2.754-9.835-8.413-3.874-19.987 3.888-27.023 11.59-10.893 23.512-5.976 23.512-5.976l9.835-18.262c-17.218-7.368-34.784-5.977-48.825 8.064-17.884 17.93-23.875 38.627-4.206 58.327 16.507 16.522 35.813 9.138 44.255 5.613 18.263-7.731 35.829-21.076 49.173-7.731 8.443 8.457 8.428 21.09-.71 30.23-9.487 9.486-22.484 11.952-36.192 6.672l-9.456 20.728c21.772 8.382 44.664 6.022 61.882-11.211 8.412-8.413 13.284-19.004 13.98-29.55.726-11.937-3.858-23.542-12.982-32.635M399.337 648.648c7.732 7.732 15.796 19.336 18.958 26.72 5.28 12.27 4.57 20.713-2.799 28.081-6.324 6.325-13.011 8.065-21.439 5.962-10.198-2.452-23.194-11.242-33.71-21.773-8.442-8.412-16.159-18.988-19.7-27.4-5.25-12.286-4.19-21.046 3.904-28.43 6.31-5.643 12.27-7.383 20.698-5.265 10.561 2.784 22.832 10.879 34.088 22.105m15.811-15.81c-12.648-12.65-27.763-22.817-40.775-27.386-18.61-5.977-32.999-2.83-45.648 9.82-11.59 11.589-16.144 23.209-14.404 36.871 2.815 16.19 13.345 35.117 29.867 51.654 11.938 11.968 28.082 22.529 40.746 26.705 18.262 6.31 32.726 3.253 46.782-10.803 10.53-10.576 15.04-22.226 12.921-35.57-1.755-15.797-13.693-35.45-29.489-51.292m-154.13 109.92c4.206 4.146 5.961 10.818 4.221 16.81-1.044 3.873-2.466 6.006-7.383 10.878l-18.958 19.004-24.587-24.602 18.958-18.958c5.28-5.295 7.051-6.354 10.894-7.398 5.976-1.755 12.634-.014 16.855 4.266m89.918 54.06-64.272-29.17c4.902-13.345.71-30.185-9.835-40.746-10.183-10.167-27.053-14.404-40.065-9.85-7.338 2.466-13.33 7.036-21.045 14.767l-33.03 33.03 100.116 100.13 15.796-15.856-43.56-43.56 18.974-18.973 59.733 27.446 17.188-17.218zm-138.985 98.27-20.758 9.502c4.236 11.922 2.829 20.335-3.843 27.007-7.02 7.02-14.056 9.124-22.817 7.399-10.197-2.482-23.572-10.91-34.466-21.803-8.397-8.427-15.796-18.625-19.29-27.037-5.266-12.331-3.511-21.061 4.568-29.14 7.732-7.747 12.997-8.807 27.038-5.977l8.412-21.092c-20.728-7.383-36.509-4.19-51.639 10.894-11.211 11.257-15.796 23.558-14.389 36.872 1.756 15.796 13.36 35.828 29.156 51.624 12.649 12.649 28.112 22.529 41.457 26.72 18.61 5.976 33.8 2.194 48.537-12.604 14.404-14.358 16.81-31.652 8.034-52.365M391.772 491.761l14.767-14.737-46.373-46.404 85.349-85.349-15.796-15.795-100.116 100.13 62.17 62.155zm-102.385-102.4 100.116-100.116-16.159-16.144-100.116 100.116 16.159 16.144zM253.392 264.84l-20.032-19.987 38.294-17.96-18.262 37.947zm-11.952 76.558 65.695-134.507-15.796-15.81-134.537 65.71 16.84 16.854 37.946-18.277 31.259 31.244-18.277 37.946 16.87 16.84zm-54.968-198.946c-4.191 4.191-10.894 5.962-16.855 4.207-3.873-1.06-5.976-2.452-10.894-7.384l-18.973-18.958 24.602-24.586 18.958 18.958c5.295 5.265 6.324 7.02 7.383 10.878 1.74 5.977 0 12.664-4.22 16.885m-54.091 89.903 29.156-64.272c13.33 4.902 30.214.696 40.745-9.835 10.198-10.197 14.404-27.037 9.835-40.05-2.467-7.383-7.02-13.344-14.752-21.075l-33.03-33.014-100.1 100.116 15.81 15.81 43.56-43.559 18.974 18.943-27.416 59.734 17.218 17.202zM919.889 919.394c-13.36 13.36-27.416 21.106-39.354 21.076-5.643.045-9.804-2.088-15.115-7.338l-15.796-15.841 68.146-68.146 17.9 17.929c4.236 4.176 5.976 9.471 5.99 14.388-.347 10.198-8.442 24.587-21.771 37.932m16.159 16.159c19.654-19.67 29.488-41.442 28.081-61.126-1.044-9.471-3.843-14.389-14.026-24.602l-32.348-32.287-100.085 100.13 30.547 30.533c2.451 2.451 4.57 4.57 5.629 5.659 5.613 4.872 12.648 8.412 20.032 8.715 20.002 2.481 42.152-6.99 62.17-27.022M816.036 827.509l-20.018-20.048 38.264-17.884-18.246 37.932zm-11.953 76.558 65.695-134.507-15.811-15.826L719.43 819.43l16.87 16.87 37.916-18.292 31.274 31.274-18.262 37.93 16.855 16.856zM742.049 742.28c-7.731 7.716-19.32 15.81-26.704 18.927-12.286 5.266-20.728 4.6-28.097-2.814-6.31-6.279-8.08-12.966-5.976-21.379 2.466-10.197 11.241-23.194 21.787-33.74 8.428-8.427 18.958-16.159 27.386-19.639 12.315-5.325 21.106-4.22 28.46 3.843 5.628 6.325 7.368 12.256 5.28 20.744-2.83 10.515-10.894 22.816-22.136 34.058m15.826 15.796c12.619-12.634 22.802-27.764 27.386-40.716 5.976-18.64 2.814-33.059-9.835-45.693-11.604-11.604-23.21-16.143-36.887-14.388-16.174 2.784-35.132 13.345-51.654 29.821-11.953 11.953-22.453 28.112-26.69 40.76-6.309 18.278-3.222 32.742 10.834 46.783 10.53 10.53 22.196 15.085 35.555 12.936 15.796-1.77 35.465-13.708 51.291-29.503M678.231 634.22c-4.191 4.192-10.879 5.977-16.855 4.192-3.874-1.03-5.992-2.436-10.879-7.354l-18.973-18.973 24.586-24.601 18.989 18.973c5.25 5.265 6.309 7.02 7.353 10.863 1.74 5.992 0 12.68-4.221 16.9m-54.075 89.934 29.14-64.303c13.375 4.932 30.2.68 40.76-9.835 10.183-10.213 14.39-27.052 9.835-40.05-2.45-7.367-7.05-13.344-14.736-21.075l-33.014-33.014L556.01 655.994l15.826 15.78 43.544-43.544 18.973 18.973-27.4 59.749 17.203 17.203z" style="fill:#000;fill-opacity:1;fill-rule:evenodd;stroke:none"/></svg>