<svg xmlns="http://www.w3.org/2000/svg" xml:space="preserve" style="enable-background:new 0 0 173.3 216.5" viewBox="0 0 173.3 216.5"><path d="M11.1 216.4c-6 0-10.9-4.9-10.9-10.9V11C.1 5 5 .1 11.1.1h151.2c6 0 10.9 4.9 10.9 10.9v194.4c0 6-4.9 10.9-10.9 10.9H11.1z" style="fill:#fff"/><path d="M162.2.2C168.1.2 173 5.1 173 11v194.4c0 5.9-4.9 10.8-10.8 10.8H11c-5.9 0-10.8-4.9-10.8-10.8V11.1C.2 5.1 5.1.2 11 .2h151.2m0-.2H11C5 0 0 5 0 11.1v194.4c0 6.1 5 11 11 11h151.2c6.1 0 11-5 11-11V11.1c.1-6.1-4.9-11.1-11-11.1z"/><path d="M11 213.6c-4.5 0-8.1-3.6-8.1-8.1V11.1C2.9 6.6 6.6 3 11 3h151.2c4.5 0 8.1 3.6 8.1 8.1v194.4c0 4.5-3.6 8.1-8.1 8.1H11z"/><path d="M11 209.1c-2 0-3.6-1.6-3.6-3.6V11.1c0-2 1.6-3.6 3.6-3.6h151.2c2 0 3.6 1.6 3.6 3.6v194.4c0 2-1.6 3.6-3.6 3.6H11z" style="fill:#fff"/><path d="M35.6 49.7v18.9h-6.2V25.5h12.9c6.8 0 11.3 4.9 11.3 12.1 0 7.9-4.1 12.1-11.3 12.1h-6.7zm0-5.9H42c3.6 0 5.6-2.3 5.6-6.2 0-3.6-2.3-6.1-5.6-6.1h-6.4v12.3zM77.2 56.8h-9.3L65 68.6h-6.2l10.8-43.2h6.1l10.8 43.2h-6.2l-3.1-11.8zm-7.8-6h6.2l-3.2-12.4-3 12.4zM102.7 41.2c4.7 3 11.8 7.1 11.8 15.6 0 7-5.3 12.6-12 12.6-7.6 0-12.2-6.4-12.2-13.5h6.1c0 3.7 1.8 7.4 6.1 7.4 3.3 0 6.1-3 6.1-6.5 0-9.4-16.1-8.9-16.1-20.9 0-6.2 4.9-11.2 11.1-11.2 6.1 0 10.8 4.7 11 11.2h-5.9c-.2-3-2.3-5-5-5-2.9 0-5.2 2.1-5.2 5-.1 2.8 1.4 3.5 4.2 5.3zM132.1 41.2c4.7 3 11.8 7.1 11.8 15.6 0 7-5.3 12.6-12 12.6-7.6 0-12.2-6.4-12.2-13.5h6.1c0 3.7 1.8 7.4 6.1 7.4 3.3 0 6.1-3 6.1-6.5 0-9.4-16.1-8.9-16.1-20.9 0-6.2 4.9-11.2 11.1-11.2 6.1 0 10.8 4.7 11 11.2h-6c-.2-3-2.3-5-5-5-2.9 0-5.2 2.1-5.2 5 0 2.8 1.5 3.5 4.3 5.3zM55.5 129.8l-4.1-22.6-4.1 22.6h-5.5L35 86.7h6.1l3.7 23 4.3-23H54l4.1 23 3.8-23H68l-7 43.2h-5.5zM73.9 86.7h6v43.2h-6V86.7zM100.1 129.8h-6.2V92.4H86v-5.8h22v5.8h-7.9v37.4zM132.1 110.3h-11.8v19.6h-6.2V86.7h6.2v17.6h11.8V86.7h6.2v43.2h-6.2v-19.6zM46.3 159.4c-.6-4.2-2.3-6.2-5.2-6.2-5 0-6.9 3.9-6.9 15.2 0 12.4 2.1 17.4 7.5 17.4 3.7 0 4.6-3 4.6-6.2h6.2c-.2 7.1-4.7 12.3-10.8 12.3-9.3 0-13.4-7.4-13.4-23.3 0-13.9 4.4-21.4 12.9-21.4 7.9 0 11.1 7.2 11.3 12.3h-6.2zM76.1 179.2h-9.3L63.9 191h-6.2l10.8-43.2h6.1L85.4 191h-6.2l-3.1-11.8zm-7.8-6h6.2l-3.2-12.4-3 12.4zM103.5 170.7h-5.9V191h-6.2v-43.2h12.9c6.8 0 11.3 4.5 11.3 11.5 0 5.2-2.1 8.9-6.2 10.5l6.2 21.2h-6.3l-5.8-20.3zm-5.9-16.8v10.9h6.4c3.6 0 5.6-2 5.6-5.5 0-3.3-2.3-5.5-5.6-5.5h-6.4zM122.9 147.9h20.4v6.1h-14.1v10.9h9v5.9h-9V185H145v6.1h-22v-43.2z"/></svg>