<svg xmlns="http://www.w3.org/2000/svg" xml:space="preserve" style="enable-background:new 0 0 216.5 216.5" viewBox="0 0 216.5 216.5"><path d="M63.5 216.4.2 153.1.1 63.5 63.4.2 153 .1l63.3 63.3.1 89.6-63.4 63.4z" style="fill:#fff"/><path d="m153 .2 63.3 63.3V153L153 216.2H63.5L.2 153V63.5L63.5.2H153m.1-.2H63.4l-.1.1L.1 63.3l-.1.1V153.1l.1.1 63.3 63.3.1.1h89.6l.1-.1 63.3-63.3.1-.1V63.4l-.1-.1L153.1 0z"/><path d="M65.8 210.9 5.6 150.7V65.8L65.8 5.7h84.9l60.1 60.1v84.9l-60.1 60.2z" style="fill:#bf311a"/><path d="M39.7 135.4c5.6 0 10.1-5.1 10.1-10.9 0-15.3-26.9-15.3-26.9-34.9C23 79.3 31.1 71 41.5 71c10.2 0 18 7.8 18.3 18.7h-9.9c-.3-5-3.8-8.3-8.4-8.3-4.8 0-8.6 3.5-8.6 8.3 0 4.3 2.7 6 6.1 8.1 9.7 5.9 20.8 13 20.8 26.7 0 11.7-8.9 21-20 21-12.7 0-20.3-10.7-20.3-22.5h10.2c-.1 6.2 2.9 12.4 10 12.4zM87.2 144.2H76.8V81.9H63.7v-9.6h36.7v9.6H87.2v62.3zM105.6 108.1c0-37.7 17.5-37.1 21.4-37.1s21.1-.6 21.1 37.1c0 38-17.3 37.4-21.1 37.4s-21.4.6-21.4-37.4zm21.2-27c-2.1 0-11.3-.4-11.3 27.1 0 27.7 9.3 27.3 11.3 27.3 2.1 0 11.3.4 11.3-27.3.1-27.5-9.2-27.1-11.3-27.1zM167.1 112.7v31.6h-10.3v-72h21.4c11.3 0 18.9 8.1 18.9 20.2 0 13.1-6.8 20.2-18.9 20.2h-11.1zm0-9.9h10.6c6 0 9.3-3.8 9.3-10.3 0-6.1-3.8-10.1-9.3-10.1h-10.6v20.4z" style="fill:#fff"/></svg>