<svg xmlns="http://www.w3.org/2000/svg" width="90" height="89.999" version="1.0"><path fill="#cdff00" d="m1.97 40.559 38.521-38.52C41.615.772 43.281 0 44.991 0c1.712 0 3.398.749 4.524 2.039l38.516 38.52A6.046 6.046 0 0 1 90 45.01V84c0 3.304-2.695 5.999-5.999 5.999H6c-3.304 0-6-2.695-6-5.999V45.011c0-1.687.729-3.329 1.97-4.452"/><path fill-rule="evenodd" d="m41.619 3.116.199-.212a4.734 4.734 0 0 1 1.68-1.075 6.62 6.62 0 0 1 .337-.11 4.455 4.455 0 0 1 2.21-.032l.23.064a4.524 4.524 0 0 1 1.986 1.228L86.95 41.68l.201.193a4.61 4.61 0 0 1 1.034 1.655c.127.375.206.74.243 1.135.008.12.012.237.013.358l-.005 39.205a6.463 6.463 0 0 1-.085.664 6.72 6.72 0 0 1-.179.63c-.136.345-.29.645-.49.955a6.773 6.773 0 0 1-.396.505 5.436 5.436 0 0 1-.807.699 7.084 7.084 0 0 1-.558.322 5.332 5.332 0 0 1-1.026.347 5.933 5.933 0 0 1-.665.085l-78.208.005a5.869 5.869 0 0 1-.695-.052 6.186 6.186 0 0 1-.641-.146 5.323 5.323 0 0 1-.98-.445 6.63 6.63 0 0 1-.524-.372 5.38 5.38 0 0 1-.736-.773 6.855 6.855 0 0 1-.347-.541 5.373 5.373 0 0 1-.397-1.004c-.05-.22-.087-.43-.116-.651l-.024-.474.002-39.085.012-.232a4.604 4.604 0 0 1 .765-2.168c.178-.256.37-.485.593-.704L41.619 3.116z"/><path fill="#cdff00" fill-rule="evenodd" d="m43.354 4.775.17-.182a2.166 2.166 0 0 1 1.267-.622 2.098 2.098 0 0 1 1.708.635L85.283 43.41l.163.154c.392.405.588.913.595 1.475l-.003 39.067-.022.205a2.085 2.085 0 0 1-.725 1.263 2.16 2.16 0 0 1-.785.402c-.19.045-.36.059-.555.064l-78.057-.003-.204-.021a2.097 2.097 0 0 1-1.262-.722 2.217 2.217 0 0 1-.403-.787 2.695 2.695 0 0 1-.065-.557l.001-38.989a2.115 2.115 0 0 1 .63-1.432L43.354 4.775z"/><path fill-rule="evenodd" d="M54.625 27c-.375.299-.776.568-1.219.75-.45.183-.92.291-1.406.313-.346.015-.69.003-1.031-.063l-.156 1-2.344 2.156-2.906 9.813-4.25 1.75-2.407-5.313-3.687-2.093c-.296.168-.578.342-.906.437a3.505 3.505 0 0 1-.938.156A4.807 4.807 0 0 1 32 35.75h-.094l-2.593 2.75-2.563 8.219-4.906 4.656 1.406 1.344 5.813-3.844.75-3.062.937 2.843L27 60.22l1.313.406-3.907 14.75 2.094.75 5.563-14.75 2.25.156 6.156 14.313 2.187-.656L38.22 61.28c.447-.097.894-.215 1.344-.312.392-.09.773-.22 1.156-.344l-2.25-6.906 5.594-1.344-1.157-5.656h-1.343l.906-1.406-.156-.344 4.812-1.313 1.25-2.187 1.844 7.687-3.594 11.313-1 17.219 3.938.343 1.406-14.312 2.406-5.344 1.844 7.344 6.812 12.719 3.594-1.75-6.406-13.22.656-11.405 6.813-2-1.813-6.657-1.75.25.563-3.593L58.125 29.5l-3-1.344-.5-1.156zm3.094 10.063 3 4.593-.75 2.813-1 .25-1.25-7.656zm-19.563 6.656.75 1.594-.687 2-.906.156.843-3.75zm17.307-20.715c-.04 1.542-.678 2.838-1.964 3.726-1.493 1.03-3.489.996-4.98-.022a4.5 4.5 0 0 1-1.963-3.704c0-1.793 1.097-3.425 2.739-4.13a4.408 4.408 0 0 1 4.213.405c1.21.827 1.99 2.25 1.955 3.725"/><path fill-rule="evenodd" d="M37.23 31.078c-.05 1.735-1.049 3.226-2.655 3.913-1.875.8-4.04.078-5.151-1.612-1.085-1.649-.833-3.926.554-5.316 1.387-1.394 3.668-1.625 5.316-.55 1.151.756 1.979 2.165 1.936 3.565"/></svg>