<svg xmlns="http://www.w3.org/2000/svg" width="81.596" height="81.596" viewBox="0 0 230.281 230.281"><path d="m315 205 80 170-80 170-80-170z" style="fill:none;stroke:#fff;stroke-width:40" transform="translate(-3032.938 16738.813)"/><path d="M21.175.845h187.92c11.188 0 20.342 9.155 20.342 20.338v187.925c0 11.186-9.154 20.337-20.341 20.337H21.175c-11.187 0-20.338-9.15-20.338-20.337V21.183C.837 10 9.988.845 21.175.845" style="fill:#fff;fill-opacity:1;fill-rule:nonzero;stroke:#000;stroke-width:1.69333334;stroke-miterlimit:4;stroke-opacity:1;stroke-dasharray:none"/><path d="M21.175 5.925h187.92c8.397 0 15.266 6.869 15.266 15.258v187.924c0 8.396-6.869 15.261-15.265 15.261H21.175c-8.39 0-15.254-6.865-15.254-15.26V21.182c0-8.39 6.865-15.258 15.254-15.258" style="fill:#155196;fill-opacity:1;fill-rule:evenodd;stroke:none"/><path d="M128.961 19.812c-3.47.17-6.882.572-10.251 1.453-3.888 1.02-7.557 2.548-10.958 4.685-2.8 1.757-5.32 3.793-7.7 6.065l-9.025 36.35c-3.4 13.73-5.528 27.767-6.11 41.91-.222 5.52-.183 11.052.06 16.58.31 7.236.879 14.454 1.782 21.64a50.651 50.651 0 0 0 1.347 6.879l12.206 45.357c2.812 1.838 5.694 3.52 8.75 4.931a56.154 56.154 0 0 0 11.084 3.79c3.178.73 6.378 1.15 9.616 1.365l-11.666-50.942c-2.074-.465-4.057-1.266-5.73-2.61-1.364-1.1-3.823-3.627-3.823-5.602v-67.92c0-3.648 2.222-6.75 5.062-8.87 1.736-1.287 3.697-2.091 5.807-2.532l9.55-52.529z" style="fill:#fff;fill-opacity:1;fill-rule:evenodd;stroke:none"/><path d="M142.935 208.188c.998-.317 1.704-1.054 2.258-1.93a3.78 3.78 0 0 0 .628-2.169 9.322 9.322 0 0 0-.25-1.979l-10.32-42.863c-.31-1.277-.331-1.876-1.584-2.645-.765-.484-1.756-.801-2.645-.537l-8.192 2.382 11.638 51.583 8.467-1.842zM124.424 72.37l7.43 1.581c.437.056.871.1 1.309.138.628.064 1.29-.021 1.834-.381.977-.657 1.397-1.535 1.626-2.657l9.01-43.48c.141-.67.18-1.333-.074-1.979a6.304 6.304 0 0 0-1.033-1.774c-.639-.773-1.606-1.38-2.597-1.545l-7.962-1.316-9.543 51.414z" style="fill:#fff;fill-opacity:1;fill-rule:evenodd;stroke:none"/></svg>