<svg xmlns="http://www.w3.org/2000/svg" width="81.596" height="81.596" viewBox="0 0 230.281 230.281"><path d="m315 205 80 170-80 170-80-170z" style="fill:none;stroke:#fff;stroke-width:40" transform="translate(-3032.938 16738.813)"/><path d="M21.175.845h187.92c11.188 0 20.342 9.155 20.342 20.338v187.925c0 11.186-9.154 20.337-20.341 20.337H21.175c-11.187 0-20.338-9.15-20.338-20.337V21.183C.837 10 9.988.845 21.175.845" style="fill:#fff;fill-opacity:1;fill-rule:nonzero;stroke:#000;stroke-width:1.69333334;stroke-miterlimit:4;stroke-opacity:1;stroke-dasharray:none"/><path d="M21.175 5.925h187.92c8.397 0 15.266 6.869 15.266 15.258v187.924c0 8.396-6.869 15.261-15.265 15.261H21.175c-8.39 0-15.254-6.865-15.254-15.26V21.182c0-8.39 6.865-15.258 15.254-15.258" style="fill:#155196;fill-opacity:1;fill-rule:evenodd;stroke:none"/><path d="M205.686 161.514h-18.595 18.595zm-90.37-48.197-29.864 48.197h59.719l-29.856-48.197zm0 59.726H24.537v-11.53h19.004l71.773-114.726 71.776 114.727h18.595v11.529h-90.37zm-90.778-11.53h19.004-19.004z" style="fill:#fff;fill-opacity:1;fill-rule:evenodd;stroke:none"/></svg>