<svg xmlns="http://www.w3.org/2000/svg" xml:space="preserve" style="enable-background:new 0 0 216.5 259.7" viewBox="0 0 216.5 259.7"><path d="M13.7 259.6C6.2 259.6.1 253.5.1 246V13.7C.1 6.2 6.2.1 13.7.1h189c7.5 0 13.6 6.1 13.6 13.6v232.2c0 7.5-6.1 13.6-13.6 13.6h-189z" style="fill:#fff"/><path d="M202.8.2c7.4 0 13.5 6.1 13.5 13.5v232.2c0 7.4-6.1 13.5-13.5 13.5h-189c-7.4 0-13.5-6.1-13.5-13.5V13.8C.3 6.4 6.4.3 13.8.3h189m0-.3h-189C6.2 0 0 6.2 0 13.8V246c0 7.6 6.2 13.8 13.8 13.8h189c7.6 0 13.8-6.2 13.8-13.8V13.8C216.5 6.2 210.3 0 202.8 0z"/><path d="M202.8 255.8h-189c-5.4 0-9.9-4.5-9.9-9.9V13.7c0-5.4 4.5-9.9 9.9-9.9h189c5.4 0 9.9 4.5 9.9 9.9v232.2c-.1 5.5-4.5 9.9-9.9 9.9zm4.4-9.9V13.7c0-2.5-2-4.5-4.5-4.5h-189c-2.5 0-4.5 2-4.5 4.5v232.2c0 2.5 2 4.5 4.5 4.5h189c2.5 0 4.5-2 4.5-4.5z"/><path d="M82.5 201.4v29.3h-6.8v-43.2h6.8L98.3 215v-27.6h6.8v43.2H99l-16.5-29.2zM112.4 187.4h6.8v36.8h20v6.4h-26.8v-43.2zM163.1 230.6h-6.9v-18.8L141 187.4h8.2l10.4 16.7 10.5-16.7h8.1l-15.1 24.4v18.8zM69 209c0 1.5.3 22.4-15.3 22.4S38.4 210.6 38.4 209c0-1.5-.3-22.4 15.3-22.4S69 207.5 69 209zm-15.2 15.4c4.7 0 8.4-4.4 8.4-15.4s-3.8-15.4-8.4-15.4c-4.7 0-8.4 4.4-8.4 15.4-.1 11 3.7 15.4 8.4 15.4zM142.5 79.3 108.3 29 74 79.3c-2.7 4 1.3 9.1 5.8 7.4L95 81.2v84.7h26.6V81.2l15.1 5.6c4.5 1.6 8.5-3.5 5.8-7.5z"/></svg>