<svg xmlns="http://www.w3.org/2000/svg" xml:space="preserve" style="enable-background:new 0 0 216.5 259.7" viewBox="0 0 216.5 259.7"><path d="M13.7 259.6C6.2 259.6.1 253.5.1 246V13.7C.1 6.2 6.2.1 13.7.1h189c7.5 0 13.6 6.1 13.6 13.6v232.2c0 7.5-6.1 13.6-13.6 13.6h-189z" style="fill:#fff"/><path d="M202.8.2c7.4 0 13.5 6.1 13.5 13.5v232.2c0 7.4-6.1 13.5-13.5 13.5h-189c-7.4 0-13.5-6.1-13.5-13.5V13.8C.3 6.4 6.4.3 13.8.3h189m0-.3h-189C6.2 0 0 6.2 0 13.8V246c0 7.6 6.2 13.8 13.8 13.8h189c7.6 0 13.8-6.2 13.8-13.8V13.8C216.5 6.2 210.3 0 202.8 0z"/><path d="M13.8 255.8c-5.5 0-9.9-4.4-9.9-9.9V13.7c0-5.5 4.4-9.9 9.9-9.9h189c5.5 0 9.9 4.4 9.9 9.9v232.2c0 5.5-4.4 9.9-9.9 9.9h-189zm189-5.4c2.5 0 4.5-2 4.5-4.5V13.7c0-2.5-2-4.5-4.5-4.5h-189c-2.5 0-4.5 2-4.5 4.5v232.2c0 2.5 2 4.5 4.5 4.5h189z"/><path d="m87 48.5 16.5 5.1c36 11 59.2 44.2 59.3 79.8v37.8h-27v-37.8c-.1-24.1-15.8-46.6-40.1-54l-16.7-5 8-25.9z" style="fill-rule:evenodd;clip-rule:evenodd"/><path d="M82 203.2v29.3h-6.8v-43.2H82l15.8 27.6v-27.6h6.8v43.2h-6.1L82 203.2zM115 189.3h6.8v36.8h20v6.4H115v-43.2zM166.4 232.4h-6.9v-18.8l-15.2-24.4h8.2l10.4 16.7 10.5-16.7h8.1l-15.1 24.4v18.8zM65.7 210.8c0 1.5.3 22.4-15.3 22.4S35 212.4 35 210.8c0-1.5-.3-22.4 15.3-22.4s15.4 20.9 15.4 22.4zm-15.3 15.4c4.7 0 8.4-4.4 8.4-15.4s-3.8-15.4-8.4-15.4c-4.7 0-8.4 4.4-8.4 15.4s3.8 15.4 8.4 15.4zM89.7 93.5l-2-30.6 18.8-24.2c3.3-4.2-.8-10.1-5.9-8.5l-59 18.6L80 97.2c3.4 4.2 10.1 1.6 9.7-3.7z"/></svg>