<svg xmlns="http://www.w3.org/2000/svg" xml:space="preserve" width="180.977" height="158.516"><path d="M4345.696 2285.462h127.2c4.627 0 8.4-3.773 8.4-8.399v-109.2c0-4.627-3.773-8.4-8.4-8.4h-127.2c-4.625 0-8.4 3.773-8.4 8.4v109.2c0 4.57 3.833 8.4 8.4 8.4" style="fill:#fff;fill-opacity:1;fill-rule:nonzero;stroke:#000;stroke-width:.80000001;stroke-linecap:butt;stroke-linejoin:miter;stroke-miterlimit:4;stroke-opacity:1;stroke-dasharray:none" transform="matrix(1.25 0 0 -1.25 -5421.133 2857.344)"/><path d="M4472.85 2281.862c2.704-.07 4.786-2.139 4.847-4.846l-.01-109.402c-.184-2.55-2.274-4.539-4.838-4.55l-127.402.01c-2.554.203-4.535 2.257-4.552 4.836l.01 109.403c.193 2.55 2.265 4.543 4.837 4.553h127.109" style="fill:#00674c;fill-opacity:1;fill-rule:evenodd;stroke:none" transform="matrix(1.25 0 0 -1.25 -5421.133 2857.344)"/><path d="M4449.25 2255.474v17.988h-3.22v-6.943h-8.078v6.943h-3.218v-17.988h3.218v7.826l8.078.063v-7.89h3.22zm-24.932 8.963v-3.22h2.966c-.441-1.642-2.02-2.841-3.787-2.841-3.345 0-4.228 3.22-4.228 6.123 0 3.535 1.703 6.06 4.228 6.06 1.578 0 2.715-.884 3.408-2.398l3.284 1.135c-1.264 2.778-3.471 4.483-6.692 4.483-4.482 0-7.447-3.788-7.447-9.28 0-4.67 2.145-9.351 7.447-9.351 3.977 0 7.133 3.039 7.133 6.953v2.336h-6.312zm-12.31 9.025h-3.218v-17.988h3.219v17.988zm-6.815-17.988v3.219h-10.163v4.923h5.364v3.282h-5.364v3.345h9.846v3.219h-13.13v-17.988h13.447zm-16.475 17.988h-3.281l-1.832-11.613-2.778 11.613h-3.218l-2.653-11.613-1.957 11.613h-3.344l3.282-17.988h3.41l2.84 12.055 2.902-12.055h3.41l3.219 17.988zM4463.663 2225.474v17.988h-3.093v-11.865l-8.268 11.865h-3.156v-17.988h3.156v12.37l8.584-12.37h2.777zm-21.84 9.025c0-2.777-.82-6.123-4.228-6.123-2.715 0-4.356 2.274-4.356 6.123 0 3.788 1.64 6.06 4.356 6.06 2.713 0 4.228-2.272 4.228-6.06m3.219.065c0 5.49-3.03 9.215-7.447 9.215-4.734 0-7.64-3.535-7.64-9.28 0-4.545 2.337-9.351 7.64-9.351 4.545 0 7.447 3.797 7.447 9.416m-19.125 8.898h-3.22v-17.988h3.22v17.988zm-6.25-3.156v3.156h-13.508v-3.156h5.176v-14.832h3.156v14.832h5.176zm-21.523-7.385h-5.051l2.527 6.06 2.524-6.06zm6.629-7.447-7.512 17.988h-3.283l-7.574-17.988h3.535l1.767 4.229h7.826l1.768-4.23h3.473zm-19.758 14.832v3.156h-13.508v-3.156h5.176v-14.832h3.156v14.832h5.176zm-15.465-9.594c0 1.957-1.01 3.662-2.588 4.483-1.01.504-2.587 1.009-4.985 1.513-2.21.506-2.84.948-2.84 1.957 0 1.137 1.072 1.83 2.902 1.83 1.705 0 3.157-.568 4.292-1.767l2.399 2.146c-1.83 1.895-4.038 2.778-6.691 2.778-3.66 0-6.185-2.02-6.185-4.987 0-1.136.379-2.21 1.136-3.03.756-.884 1.706-1.325 3.534-1.766l.884-.252.823-.19.82-.252a14.32 14.32 0 0 0 2.145-.695c.757-.38 1.135-.947 1.135-1.641 0-1.326-1.64-2.336-3.913-2.336-2.02 0-3.472.694-4.797 2.272l-2.588-2.02c2.02-2.336 4.356-3.482 7.448-3.482 1.642 0 3.283.453 4.546 1.21 1.703 1.01 2.523 2.399 2.523 4.229M4399.573 2204.683a2.038 2.038 0 0 0-.584.4 1.897 1.897 0 0 0 .01 2.68c.278.275.639.457 1.022.523l28 5.233a1.915 1.915 0 0 0 1.81-.498c.5-.504.639-1.13.504-1.821l-5.453-28.078a1.947 1.947 0 0 0-.512-.898 1.895 1.895 0 0 0-3.064.572l-5.106 10.342-18.736-21.652-8.976 9.02 21.369 19.017-10.284 5.162z" style="fill:#fff;fill-opacity:1;fill-rule:evenodd;stroke:none" transform="matrix(1.25 0 0 -1.25 -5421.133 2857.344)"/></svg>