<svg xmlns="http://www.w3.org/2000/svg" xml:space="preserve" style="enable-background:new 0 0 216.5 259.7" viewBox="0 0 216.5 259.7"><path d="M13.7 259.6C6.2 259.6.1 253.5.1 246V13.7C.1 6.2 6.2.1 13.7.1h189c7.5 0 13.6 6.1 13.6 13.6v232.2c0 7.5-6.1 13.6-13.6 13.6h-189z" style="fill:#fff"/><path d="M202.8.2c7.4 0 13.5 6.1 13.5 13.5v232.2c0 7.4-6.1 13.5-13.5 13.5h-189c-7.4 0-13.5-6.1-13.5-13.5V13.8C.3 6.4 6.4.3 13.8.3h189m0-.3h-189C6.2 0 0 6.2 0 13.8V246c0 7.6 6.2 13.8 13.8 13.8h189c7.6 0 13.8-6.2 13.8-13.8V13.8C216.5 6.2 210.3 0 202.8 0z"/><path d="M13.7 255.8c-5.5 0-9.9-4.4-9.9-9.9V13.7c0-5.5 4.4-9.9 9.9-9.9h189c5.5 0 9.9 4.4 9.9 9.9v232.2c0 5.5-4.4 9.9-9.9 9.9h-189zm189.1-5.4c2.5 0 4.5-2 4.5-4.5V13.7c0-2.5-2-4.5-4.5-4.5h-189c-2.5 0-4.5 2-4.5 4.5v232.2c0 2.5 2 4.5 4.5 4.5h189z"/><path d="m159.3 116.9-23.3 9.6c-35.3 14.6-56.6 48.8-56.7 84.8l-.1 21.1H54.1v-21.1c0-45.9 27.2-89.4 72.3-108.1l23.3-9.6 9.6 23.3z"/><path d="M54.1 64.1h25.2v168.3H54.1z"/><path d="m34.3 66.7 32.4-47.6 32.4 47.6c2.7 4-1.3 9.2-5.9 7.4l-26.6-10-26.6 10c-4.3 1.8-8.4-3.4-5.7-7.4zM136.4 77.6l56.4 11.7-31.5 48.2c-2.7 4.1-9 2.3-9.1-2.6l-.9-28.4-19.4-20.7c-3.5-3.5-.3-9.2 4.5-8.2z"/></svg>