<svg xmlns="http://www.w3.org/2000/svg" viewBox="0.95 0.95 24.1 24.1"><g stroke="#000"><rect width="24" height="24" x="1" y="1" fill="#fff" stroke-width=".1" ry="1.5"/><rect width="22.625" height="22.625" x="1.688" y="1.688" fill="none" stroke-width=".625" ry=".813"/></g><path d="M18.418 10.744q0 1.044-.486 1.914t-1.35 1.35q-1.008.516-2.316.504h-3.132V19H8.782V7h5.604q1.248 0 2.196.516.864.516 1.35 1.368t.486 1.86zm-2.352 0q0-.576-.42-.96T14.578 9.4h-3.444v2.724h3.444q.696 0 1.092-.372t.396-1.008z"/><path fill="none" stroke="#a6192e" stroke-width="2" d="M22.5 13a9.5 9.5 0 0 1-19 0 9.5 9.5 0 0 1 19 0zm-16-6.5 13 13"/></svg>