<svg xmlns="http://www.w3.org/2000/svg" width="81.596" height="81.596" viewBox="0 0 230.281 230.281"><path d="m315 205 80 170-80 170-80-170z" style="fill:none;stroke:#fff;stroke-width:40" transform="translate(-3032.938 16738.813)"/><path d="M21.175.845h187.92c11.188 0 20.342 9.155 20.342 20.338v187.925c0 11.186-9.154 20.337-20.341 20.337H21.175c-11.187 0-20.338-9.15-20.338-20.337V21.183C.837 10 9.988.845 21.175.845" style="fill:#fff;fill-opacity:1;fill-rule:nonzero;stroke:#000;stroke-width:1.69333334;stroke-miterlimit:4;stroke-opacity:1;stroke-dasharray:none"/><path d="M21.175 5.925h187.92c8.397 0 15.266 6.869 15.266 15.258v187.924c0 8.396-6.869 15.261-15.265 15.261H21.175c-8.39 0-15.254-6.865-15.254-15.26V21.182c0-8.39 6.865-15.258 15.254-15.258" style="fill:#155196;fill-opacity:1;fill-rule:evenodd;stroke:none"/><path d="M115.126 20.265c52.602 0 95.504 42.901 95.504 95.5 0 52.61-42.902 95.508-95.504 95.508-52.6 0-95.505-42.898-95.505-95.508 0-52.599 42.905-95.5 95.505-95.5" style="fill:#fff;fill-opacity:1;fill-rule:evenodd;stroke:none"/><path d="M102.655 196.713c.007 4.548-1.662 5.61-4.784 5.624-3.118.017-5.337-1.076-5.344-5.624-.053-35.521 0-71.056 0-106.577-8.252-6.418-11.035-15.47-9.275-26.72 1.778-10.308 3.556-20.623 5.338-30.935.409-.039.818-.078 1.227-.12.046 12.637.085 25.27.13 37.903h2.117l2.371-37.903h1.192c.262 12.682.53 25.354.794 38.033.745-.05 1.496-.088 2.247-.13.614-12.633 1.225-25.266 1.845-37.903h1.186c.483 12.587.966 25.178 1.457 37.772h2.773c-.043-12.594-.089-25.185-.138-37.772h1.32c1.72 10.344 3.439 20.69 5.153 31.034.815 12.375-1.605 22.027-9.771 26.808.056 35.503.088 71.014.162 106.51M139.605 32.333v164.462c-.738 3.348-2.142 4.364-5.306 4.473-3.157.102-5.246-.903-5.39-4.456v-82.084c.3-5.225-.032-10.386-4.717-15.19-2.254-1.507-3.468-4.463-3.655-8.862.138-16.186.268-32.368.402-48.55-.091-11.013 11.06-10.477 18.666-9.793" style="fill:#155196;fill-opacity:1;fill-rule:evenodd;stroke:none"/></svg>