<svg xmlns="http://www.w3.org/2000/svg" xml:space="preserve" style="enable-background:new 0 0 173.3 173.3" viewBox="0 0 173.3 173.3"><path d="M11.1 173.2c-6 0-10.9-4.9-10.9-10.9V11C.1 5 5 .1 11.1.1h151.2c6 0 10.9 4.9 10.9 10.9v151.2c0 6-4.9 10.9-10.9 10.9H11.1z" style="fill:#fff"/><path d="M162.2.2C168.1.2 173 5.1 173 11v151.2c0 5.9-4.9 10.8-10.8 10.8H11C5.1 173 .2 168.1.2 162.2V11.1C.2 5.1 5.1.2 11 .2h151.2m0-.2H11C5 0 0 5 0 11.1v151.2c0 6.1 5 11.1 11 11.1h151.2c6.1 0 11-5 11-11.1V11.1c.1-6.1-4.9-11.1-11-11.1z"/><path d="M11 170.4c-4.5 0-8.1-3.6-8.1-8.1V11.1C2.9 6.6 6.6 3 11 3h151.2c4.5 0 8.1 3.6 8.1 8.1v151.2c0 4.5-3.6 8.1-8.1 8.1H11zm151.2-4.5c2 0 3.6-1.6 3.6-3.6V11.1c0-2-1.6-3.6-3.6-3.6H11c-2 0-3.6 1.6-3.6 3.6v151.2c0 2 1.6 3.6 3.6 3.6h151.2z"/><path d="m100.4 47.5 7.4 19.4-7.4 19.4c-1.3 3.3 2.5 6.3 5.4 4.3l34.8-23.7-34.8-23.7c-2.9-2-6.7 1-5.4 4.3z"/><path d="M72.2 57.4c-8 0-14.4 6.4-14.4 14.4v60.7h18.5V75.9h31.5V57.4H72.2z"/><path d="M86.6 11.1C44.9 11.1 11 44.9 11 86.7s33.8 75.6 75.6 75.6 75.6-33.8 75.6-75.6-33.8-75.6-75.6-75.6zm61.2 75.6c0 14.3-4.9 27.5-13.1 37.9l-86-86c10.4-8.2 23.6-13.1 37.9-13.1 33.8 0 61.2 27.4 61.2 61.2zm-122.4 0c0-14.3 4.9-27.5 13.1-37.9l86 86c-10.4 8.2-23.6 13.1-37.9 13.1-33.7 0-61.2-27.5-61.2-61.2z" style="fill-rule:evenodd;clip-rule:evenodd;fill:#bf311a"/></svg>