<svg xmlns="http://www.w3.org/2000/svg" width="149.281" height="124.781"><path d="M203-2233.134H80.65c-7.092 0-12.86 5.769-12.86 12.86v97.88c0 7.09 5.768 12.859 12.86 12.859H203c7.092 0 12.86-5.769 12.86-12.859v-97.88c0-7.091-5.768-12.86-12.86-12.86" style="fill:#fff;fill-opacity:1;fill-rule:nonzero;stroke:#000;stroke-width:1.20000005;stroke-miterlimit:4;stroke-opacity:1;stroke-dasharray:none" transform="translate(-67.188 2233.719)"/><path d="M80.65-2113.219a9.113 9.113 0 0 1-6.48-2.698 9.102 9.102 0 0 1-2.697-6.477v-97.88a9.11 9.11 0 0 1 2.698-6.48 9.113 9.113 0 0 1 6.478-2.698H203c2.44 0 4.74.958 6.48 2.698a9.11 9.11 0 0 1 2.698 6.48v97.88a9.102 9.102 0 0 1-2.697 6.477 9.114 9.114 0 0 1-6.48 2.698H80.65z" style="fill:#00674c;fill-opacity:1;fill-rule:nonzero;stroke:none" transform="translate(-67.188 2233.719)"/><path d="M97.472-2187.649v-24.47h17.922v4.38h-13.44v4.55h7.322v4.464h-7.323v6.698h13.873v4.378H97.472zM154.327-2212.119h4.405v24.47h-4.405v-24.47zM179.144-2207.826v20.178h-4.287v-20.178h-7.031v-4.292h18.352v4.292h-7.034zM139.818-2187.649l-5.519-8.672-5.433 8.672h-5.175l8.021-12.878-7.331-11.592h5.261l4.657 7.47 4.658-7.47h5.26l-7.245 11.592 8.022 12.878h-5.176zM159.4-2136.897c.01-.02.02-.034.032-.051.061-.114.109-.23.14-.345.005-.011.012-.021.012-.032h-.005c.01-.04.025-.08.033-.12l.055-.395 5.619-29 .076-.547a1.727 1.727 0 0 0-.467-1.45c-.414-.415-.96-.597-1.478-.492l-.362.07-29.088 5.667-.509.082c-.336.077-.596.233-.855.493a1.68 1.68 0 0 0 0 2.38c.08.08.208.156.312.208l.31.174 10.352 6.363-25.304 23.233 8.468 8.468 23.235-25.254v-.05l6.267 10.196.26.372c.077.128.155.258.26.36a1.701 1.701 0 0 0 2.38 0c.105-.102.185-.215.257-.332" style="fill:#fff;fill-opacity:1;fill-rule:nonzero;stroke:none" transform="translate(-67.188 2233.719)"/></svg>