<svg xmlns="http://www.w3.org/2000/svg" xml:space="preserve" width="312.031" height="104.656" viewBox="-0.999 0 312.031 104.656"><path d="M-.486 91.201c0 7.128 5.831 12.959 12.959 12.959h285.092c7.128 0 12.96-5.831 12.96-12.959V13.449c0-7.128-5.832-12.96-12.96-12.96H12.473C5.345.49-.486 6.322-.486 13.45V91.2z" style="fill:#fff;stroke:#000;stroke-width:1;stroke-linecap:butt;stroke-linejoin:miter;stroke-miterlimit:4;stroke-opacity:1;stroke-dasharray:none"/><path d="M3.834 91.201c0 4.751 3.887 8.639 8.638 8.639h285.093c4.752 0 8.64-3.888 8.64-8.639V13.449c0-4.752-3.888-8.64-8.64-8.64H12.472c-4.75 0-8.638 3.888-8.638 8.64V91.2" style="fill:#000;fill-opacity:1;fill-rule:nonzero;stroke:none"/><path d="M284.607 29.647H90.46l3.787-12.114a6.46 6.46 0 0 0-9.856-7.242L16.793 52.324 84.39 94.36a6.46 6.46 0 0 0 9.856-7.244L90.46 75.003h194.147V29.647" style="fill:#fff;fill-opacity:1;fill-rule:nonzero;stroke:none"/><path d="M107.191 40.011c-3.071 0-4.505 1.23-5.734 4.25-.818 2.048-1.332 5.223-1.332 8.14 0 3.635.769 7.373 2.1 9.575 1.075 1.792 2.509 2.662 4.71 2.662 2.56 0 4.147-1.33 5.325-4.352.717-1.843 1.331-5.222 1.331-7.885 0-3.993-.871-12.39-6.4-12.39m8.09 26.317c-1.998 2.61-4.711 3.89-8.346 3.89-4.864 0-7.834-1.945-9.933-6.194-1.434-2.919-2.457-7.526-2.457-11.623 0-5.733 1.433-10.853 3.788-14.08 1.998-2.712 4.864-3.89 8.858-3.89 9.574 0 11.877 10.24 11.877 17.97 0 5.428-1.38 10.854-3.787 13.927M142.11 69.604l-13.209-23.397v23.397h-5.479V35.046h5.48l12.594 22.066V35.046h5.426v34.558h-4.812zM151.925 69.604V35.046h20.378v5.477h-14.9v8.448h10.035v5.58h-10.034v9.472h15.974v5.581h-21.453zM216.255 69.604h-4.864l-5.427-22.168-5.375 22.168h-4.814l-5.119-34.558h5.58L198.9 53.22l4.403-18.175h5.325l4.454 18.175 2.713-18.175h5.53l-5.07 34.558zM235.407 44.62l-3.532 9.727h6.911l-3.379-9.728zm8.704 24.984-3.38-9.676H229.93l-3.38 9.676h-5.836l11.877-34.558h5.479l11.877 34.558h-5.836zM261.827 54.552v15.053h-5.477V54.552l-12.135-19.506h6.554l8.242 13.311 8.396-13.311h6.4l-11.98 19.506z" style="fill:#000;fill-opacity:1;fill-rule:nonzero;stroke:none"/></svg>