<svg xmlns="http://www.w3.org/2000/svg" xml:space="preserve" style="enable-background:new 0 0 238.7 210.6" viewBox="0 0 238.7 210.6"><path d="M119.3 210.4c-5.3 0-10-2.7-12.6-7.3L2.1 21.9c-2.6-4.5-2.6-10 0-14.5S9.4.1 14.7.1H224c5.3 0 10 2.7 12.6 7.3 2.6 4.5 2.6 10 0 14.5L131.9 203.2c-2.6 4.5-7.3 7.2-12.6 7.2z" style="fill:#fff"/><path d="M224 .2c11.1 0 18 12 12.5 21.6L131.8 203.1c-2.8 4.8-7.6 7.2-12.5 7.2-4.8 0-9.7-2.4-12.5-7.2L2.2 21.8C-3.3 12.2 3.6.2 14.7.2H224m0-.2H14.7C9.4 0 4.6 2.7 2 7.3-.7 11.9-.7 17.4 2 22l104.7 181.3c2.6 4.6 7.4 7.3 12.7 7.3 5.3 0 10-2.7 12.7-7.3L236.7 22c2.6-4.6 2.6-10.1 0-14.6C234 2.7 229.3 0 224 0z"/><path d="M127.1 200.4 231.8 19.2c3.5-6-.9-13.5-7.8-13.5H14.7c-6.9 0-11.3 7.5-7.8 13.5l104.7 181.3c3.4 5.9 12.1 5.9 15.5-.1z" style="fill:#bf311a"/><path d="m127.1 128.4 42.3-73.3c3.5-6-.9-13.5-7.8-13.5H77c-6.9 0-11.3 7.5-7.8 13.5l42.3 73.3c3.5 6 12.2 6 15.6 0z" style="fill:#fff"/><path d="M93.8 77.6h-3.1v-9.8L85.4 56h3.3l3.6 7.8 3.6-7.8h3.3l-5.4 11.8v9.8zM102.2 56.1h3v21.6h-3V56.1zM110 56.1h10.2v3h-7.1v5.5h4.5v3h-4.5v7.1h7.9v3h-11V56.1zM124.7 56.1h3.1v18.7h7.9v2.9h-11V56.1zM138.7 77.6V56.1h6.2c1.3 0 5.9.1 5.9 10.8 0 9.8-4.3 10.8-5.7 10.8h-6.4zm5.6-18.5h-2.4v15.5h2.2c2.5 0 3.8-1.1 3.8-7.7-.1-7.5-2-7.8-3.6-7.8z" style="fill:#bf311a"/></svg>