<svg xmlns="http://www.w3.org/2000/svg" width="81.596" height="81.596" viewBox="0 0 230.281 230.281"><path d="m315 205 80 170-80 170-80-170z" style="fill:none;stroke:#fff;stroke-width:40" transform="translate(-3032.938 16738.813)"/><path d="M21.175.845h187.92c11.188 0 20.342 9.155 20.342 20.338v187.925c0 11.186-9.154 20.337-20.341 20.337H21.175c-11.187 0-20.338-9.15-20.338-20.337V21.183C.837 10 9.988.845 21.175.845" style="fill:#fff;fill-opacity:1;fill-rule:nonzero;stroke:#000;stroke-width:1.69333334;stroke-miterlimit:4;stroke-opacity:1;stroke-dasharray:none"/><path d="M21.175 5.925h187.92c8.397 0 15.266 6.869 15.266 15.258v187.924c0 8.396-6.869 15.261-15.265 15.261H21.175c-8.39 0-15.254-6.865-15.254-15.26V21.182c0-8.39 6.865-15.258 15.254-15.258" style="fill:#155196;fill-opacity:1;fill-rule:evenodd;stroke:none"/><path d="M133.262 63.13c-4.4.011-8.623.105-12.436.177-30.5.579-75.745-.074-75.935 16.58-.222 19.421 0 50.688 0 76.024H24.518v5.821h73.113c1.369-11.712 7.327-19.639 21.343-20.814 15.459.498 20.557 9.465 22.754 20.814h56.092c5.482.459 7.437-2.018 7.761-5.82 0-25.98.092-56.858 0-77.876-.052-12.882-41.521-14.98-72.32-14.905zM62.706 86.856H93.84v28.222H62.706V86.855zm61.825 0h61.295v28.222H124.53V86.855z" style="fill:#fff;fill-opacity:1;fill-rule:evenodd;stroke:none"/><path d="M119.592 145.593c-9.11 0-16.493 7.468-16.493 16.58 0 9.112 7.384 16.492 16.493 16.492 9.108 0 16.58-7.38 16.58-16.492 0-9.112-7.472-16.58-16.58-16.58zm0 8.554c4.381 0 8.025 3.641 8.025 8.026s-3.644 7.938-8.025 7.938a7.934 7.934 0 0 1-7.938-7.938c0-4.385 3.55-8.026 7.938-8.026zM39.704 171.427c0-3.285-2.674-5.959-5.955-5.959a5.964 5.964 0 0 0-5.958 5.959 5.964 5.964 0 0 0 5.958 5.958c3.281 0 5.955-2.674 5.955-5.958" style="fill:#fff;fill-opacity:1;fill-rule:evenodd;stroke:none"/></svg>