<svg xmlns="http://www.w3.org/2000/svg" xml:space="preserve" width="204.719" height="272.656" viewBox="-0.999 0 204.719 272.656"><path d="M203.223 255.164c0 9.338-7.64 16.978-16.978 16.978H16.47c-9.337 0-16.977-7.64-16.977-16.978V17.48C-.507 8.14 7.133.5 16.47.5h169.775c9.338 0 16.978 7.64 16.978 16.98v237.684z" style="fill:#fff;fill-opacity:1;fill-rule:nonzero;stroke:#000;stroke-width:1;stroke-miterlimit:4;stroke-opacity:1;stroke-dasharray:none"/><path d="M186.245 4.745H16.47c-7.004 0-12.734 5.73-12.734 12.734v237.685c0 7.004 5.73 12.734 12.734 12.734h169.775c7.004 0 12.734-5.73 12.734-12.734V17.48c0-7.004-5.73-12.734-12.734-12.734m5.66 250.42c0 3.112-2.547 5.658-5.66 5.658H16.47c-3.112 0-5.66-2.546-5.66-5.659V17.48c0-3.112 2.548-5.66 5.66-5.66h169.775c3.113 0 5.66 2.548 5.66 5.66v237.685z" style="fill:#000;fill-opacity:1;fill-rule:nonzero;stroke:none"/><path d="M169.267 222.665H85.794l5.14 15.412a4.957 4.957 0 0 1-7.504 5.659L34.863 209.89l48.569-33.845a4.958 4.958 0 0 1 7.504 5.659l-5.14 15.411h83.472v25.55zM64.57 80.021c-3.27 4.275-7.712 6.372-13.665 6.372-7.964 0-12.826-3.187-16.264-10.144-2.347-4.779-4.023-12.324-4.023-19.03 0-9.39 2.347-17.773 6.203-23.055 3.27-4.443 7.964-6.371 14.503-6.371 15.677 0 19.45 16.767 19.45 29.426 0 8.886-2.264 17.772-6.204 22.802m-13.246-43.09c-5.03 0-7.376 2.012-9.389 6.958-1.341 3.354-2.18 8.551-2.18 13.33 0 5.952 1.258 12.071 3.438 15.676 1.76 2.935 4.107 4.36 7.712 4.36 4.191 0 6.791-2.18 8.719-7.126 1.174-3.018 2.18-8.551 2.18-12.91 0-6.539-1.425-20.288-10.48-20.288M115.544 85.387l-21.63-38.313v38.313h-8.97V28.799h8.97l20.624 36.133V28.799h8.886v56.588h-7.88zM137.684 85.387V28.799h33.366v8.97h-24.396v13.833h16.43v9.137h-16.43v15.51h26.156v9.138h-35.126zM68.992 158.956h-7.964l-8.886-36.3-8.804 36.3h-7.88l-8.383-56.588h9.138l4.359 29.762 7.21-29.762H56.5l7.294 29.762 4.443-29.762h9.055l-8.3 56.588zM120.739 158.956l-5.534-15.845H97.517l-5.533 15.845h-9.558l19.45-56.588h8.97l19.45 56.588h-9.557zm-14.252-40.911-5.785 15.928h11.318l-5.533-15.928zM159.554 134.309v24.647h-8.97V134.31l-19.869-31.94h10.731l13.497 21.796 13.75-21.796h10.478l-19.617 31.94z" style="fill:#000;fill-opacity:1;fill-rule:nonzero;stroke:none"/></svg>