<svg xmlns="http://www.w3.org/2000/svg" width="81.596" height="81.596" viewBox="0 0 230.281 230.281"><path d="m315 205 80 170-80 170-80-170z" style="fill:none;stroke:#fff;stroke-width:40" transform="translate(28002.865 4907.866)"/><path d="M21.105.844h188.087c11.141 0 20.257 9.116 20.257 20.257v188.087c0 11.144-9.116 20.26-20.257 20.26H21.105c-11.14 0-20.256-9.116-20.256-20.26V21.1C.849 9.96 9.965.844 21.105.844" style="fill:#fff;fill-opacity:1;fill-rule:nonzero;stroke:#000;stroke-width:1.69333339;stroke-miterlimit:4;stroke-opacity:1;stroke-dasharray:none"/><path d="M21.105 6.633h188.087c7.959 0 14.468 6.509 14.468 14.468v188.087c0 7.962-6.51 14.47-14.468 14.47H21.105c-7.958 0-14.47-6.508-14.47-14.47V21.1c0-7.96 6.512-14.468 14.47-14.468" style="fill:#155196;fill-opacity:1;fill-rule:evenodd;stroke:none"/><path d="M48.99 186.046h35.165V38.74l.043-.01c0-3.295 2.74-5.944 6.032-5.944.025 0 .018-.042.028-.042l52.928-.035c3.274 0 5.986 2.765 6.022 6.032v10.202l14.312 11.74c2.653 1.998 4.388 5.176 4.561 8.482-.014 20.651 0 39.214 0 55.51 0 18.608 11.042 32.67 11.042 46.802 0 7.105-5.831 12.901-12.894 12.901-5.951 0-11.507-4.688-13.11-10.523-2.51-9.186-1.153-57.545-1.258-68.23h-2.689v80.418h32.177v11.607H48.991v-11.607z" style="fill:#fff;fill-opacity:1;fill-rule:evenodd;stroke:none"/><path d="M158.666 101.57c0-2.703-2.202-4.904-4.851-4.911l-4.773-.184V57.984l2.794 2.159v15.342l9.405-.014c.141 17.456.279 34.904.42 52.352.028 17.378 9.997 32.738 10.297 42.74.1 3.323-2.716 6.035-6.04 6.035-1.7 0-3.975-.867-5.407-3.245-4.047-6.724-1.782-63.066-1.845-71.783M96.824 41.058h39.54a3.88 3.88 0 0 1 3.865 3.87v30.194a3.88 3.88 0 0 1-3.866 3.87h-39.54a3.883 3.883 0 0 1-3.87-3.87V44.928a3.883 3.883 0 0 1 3.87-3.87" style="fill:#155196;fill-opacity:1;fill-rule:evenodd;stroke:none"/></svg>