<svg xmlns="http://www.w3.org/2000/svg" xml:space="preserve" width="227.813" height="285" viewBox="-0.603 0 227.813 285"><path d="M22.744.486h181.14c12.589 0 22.834 10.249 22.834 22.845V261.68c0 12.589-10.245 22.834-22.833 22.834H22.744c-12.6 0-22.85-10.245-22.85-22.834V23.332c0-12.597 10.25-22.846 22.85-22.846z" style="fill:#fff;stroke:#000;stroke-opacity:1"/><path d="M203.794 280.541H22.828c-10.532 0-19.063-8.515-19.063-19.047V23.108c0-10.53 8.53-19.055 19.063-19.055h180.966c10.532 0 19.052 8.525 19.052 19.055v238.386c0 10.517-8.532 19.047-19.052 19.047" clip-rule="evenodd" style="fill:#000;fill-rule:evenodd;stroke:none"/><path d="M203.782 273.419H22.84c-6.587 0-11.905-5.326-11.905-11.894V23.124c0-6.582 5.318-11.9 11.905-11.9h180.942c6.572 0 11.895 5.318 11.895 11.9v238.401a11.881 11.881 0 0 1-11.894 11.894" clip-rule="evenodd" style="fill:#fff;fill-rule:evenodd;stroke:none"/><path d="M50.612 98.152v32.117c0 8.484 1.07 16.944 3.12 25.169 2.741 10.924 7.113 21.452 13.01 31.05 3.59 5.835 7.735 11.285 11.553 16.976a73.008 73.008 0 0 1 5.548 9.873c4.174 9.035 6.455 18.865 6.455 28.819v24.665h39.68v-24.665c0-17.503-3.848-35.038-11.766-50.679a72.21 72.21 0 0 0-7.468-11.832 288.399 288.399 0 0 0-6.133-7.627c-2.685-3.235-5.237-6.447-7.119-10.218-4.94-9.916-6.715-21.115-6.784-32.109l-.14-31.407 23.16 7.588a7.455 7.455 0 0 0 2.218.392c2.93.074 5.552-1.121 7.208-3.581 1.605-2.386 1.691-5.5.48-8.069-.356-.733-.915-1.311-1.373-1.971L71.01 18.636 18.753 92.767c-.4.578-1.574 2.048-1.854 3.018a8.03 8.03 0 0 0-.342 2.499c.035 3.86 2.708 7.208 6.533 7.995 1.458.307 2.955.058 4.36-.407l23.162-7.72M130.333 43.572c.189 7.877.372 15.766.892 23.627a272.24 272.24 0 0 0 5.257 38.27c1.95 9.202 4.399 18.287 6.979 27.333 2.196 7.688 4.822 15.288 8.24 22.535a24.936 24.936 0 0 0 1.936 3.379c2.35 3.448 5.086 5.869 8.988 7.444 4.899 1.963 10.513 1.893 15.39-.155 5.063-2.13 8.658-6.168 10.74-11.219a170.186 170.186 0 0 0 4.994-13.745 351.722 351.722 0 0 0 5.659-20.06c4.435-17.787 8.05-35.802 9.377-54.108.559-7.751.745-15.537.915-23.301h-79.367" clip-rule="evenodd" style="fill:#000;fill-rule:evenodd;stroke:none"/></svg>