<svg xmlns="http://www.w3.org/2000/svg" width="600" height="600" version="1.0"><rect width="600" height="600" rx="37.5" ry="37" style="fill:#000;fill-rule:nonzero"/><path d="M35.684 35.525h152.8c11.878 7.463 25.825 13.302 41.064 17.82 15.239 4.518 32.952-5.875 50.001-3.693 8.524 1.091 15.405 7.394 24.091 7.572 8.686.179 19.177-5.768 27.83-5.54 17.307.456 22.538 17.336 49.188 14.902 15.962-1.458 27.536-10.302 43.373-16.182 15.836-5.88 35.987-8 52.714-7.804 32.029.375 64.058-16.015 96.087-22.952l1.671 226.42c-16.88 11.32-4.226 30.35-5.355 48.012-.617 9.652-1.925 19.637-9.304 24.78-7.35 5.125-6.647 17.269-3.185 31.199 4.583 18.44-3 36.947-6.632 55.024-3.632 18.077-11.016 35.099-25.602 49.873-14.268 14.453-35.577 38.832-60.76 42.639-32.51 4.913-43.365 19.832-60.826 38.85-8.053 8.77-11.805 11.253-30.617 12.924-10.486.931-7.775 9.03-31.157 10.416-23.075 1.368-44.484 14.745-58.22 14.722-38.507-.064-70.103-51.29-120.86-58.384-25.337-3.541-48.787-14.768-71.753-27.008-11.533-6.15-22.595-18.33-35.338-20.54-15.347-2.65-18.672-15.13-29.395-20.39V46.425c-.365-7.393 4.284-11.024 10.187-10.895z" style="fill:#fff;stroke-width:0;stroke-miterlimit:4"/><g style="font-size:446.42999268px;font-style:normal;font-variant:normal;font-weight:400;font-stretch:normal;text-align:center;line-height:100%;letter-spacing:0;word-spacing:0;writing-mode:lr-tb;text-anchor:middle;fill:#000;font-family:Roadgeek 2005 Series C"><path d="M269.89 344.46c0 13.691-2.828 26.637-8.482 38.839-5.358 12.202-12.798 22.917-22.321 32.143-9.227 9.226-19.941 16.518-32.143 21.875-12.203 5.357-25.15 8.036-38.84 8.036-13.69 0-26.636-2.679-38.838-8.036-12.202-5.357-23.066-12.649-32.59-21.875-9.225-9.226-16.666-19.94-22.32-32.143-5.357-12.202-8.036-25.149-8.036-38.839 0-14.286 2.976-27.083 8.929-38.393 5.952-11.607 14.434-21.875 25.446-30.804-14.583-15.476-21.875-33.631-21.875-54.464 0-11.607 2.38-22.47 7.143-32.589 4.762-10.416 11.16-19.494 19.196-27.232 8.333-8.035 17.857-14.285 28.57-18.75 10.715-4.464 22.173-6.696 34.376-6.696 11.905 0 23.363 2.232 34.375 6.696 11.012 4.465 20.536 10.715 28.57 18.75 8.334 7.738 14.882 16.816 19.644 27.232 5.059 10.119 7.589 20.982 7.589 32.589 0 10.417-2.084 20.238-6.25 29.464-3.87 8.929-9.524 17.262-16.964 25 11.607 8.929 20.238 19.345 25.893 31.25 5.952 11.607 8.928 24.256 8.929 37.946m-59.821-125c0-9.821-4.167-18.155-12.5-25-8.036-7.143-17.857-10.714-29.464-10.714s-21.577 3.572-29.911 10.714c-8.036 6.846-12.054 15.179-12.054 25 0 8.929 4.017 16.667 12.054 23.214 8.333 6.25 18.303 9.375 29.91 9.375 11.608 0 21.429-3.125 29.465-9.375 8.333-6.547 12.5-14.286 12.5-23.214m12.5 125.89c0-6.25-1.489-12.053-4.465-17.411-2.976-5.655-6.994-10.417-12.054-14.286-4.762-4.166-10.417-7.44-16.964-9.821-6.547-2.381-13.542-3.572-20.982-3.572-7.44 0-14.435 1.19-20.982 3.572-6.25 2.38-11.905 5.655-16.964 9.821-4.762 3.87-8.63 8.631-11.607 14.286-2.678 5.357-4.018 11.161-4.018 17.411 0 7.143 1.34 13.839 4.018 20.089 2.976 6.25 6.845 11.756 11.607 16.518 5.06 4.762 10.714 8.482 16.964 11.161 6.548 2.679 13.542 4.018 20.982 4.018 7.44 0 14.434-1.34 20.982-4.018 6.845-2.679 12.65-6.399 17.411-11.161 5.06-4.762 8.929-10.268 11.607-16.518 2.976-6.25 4.464-12.946 4.465-20.089M527.79 344.46c0 13.691-2.828 26.637-8.482 38.839-5.357 12.202-12.798 22.917-22.321 32.143-9.227 9.226-19.941 16.518-32.143 21.875-12.203 5.357-25.15 8.036-38.84 8.036-13.69 0-26.636-2.679-38.838-8.036-12.202-5.357-23.066-12.649-32.59-21.875-9.225-9.226-16.666-19.94-22.32-32.143-5.357-12.202-8.036-25.149-8.036-38.839 0-14.286 2.976-27.083 8.929-38.393 5.952-11.607 14.434-21.875 25.446-30.804-14.583-15.476-21.875-33.631-21.875-54.464 0-11.607 2.38-22.47 7.143-32.589 4.761-10.416 11.16-19.494 19.196-27.232 8.333-8.035 17.857-14.285 28.57-18.75 10.715-4.464 22.173-6.696 34.376-6.696 11.905 0 23.363 2.232 34.375 6.696 11.012 4.465 20.536 10.715 28.57 18.75 8.334 7.738 14.882 16.816 19.644 27.232 5.059 10.119 7.589 20.982 7.589 32.589 0 10.417-2.084 20.238-6.25 29.464-3.87 8.929-9.524 17.262-16.964 25 11.607 8.929 20.238 19.345 25.893 31.25 5.952 11.607 8.928 24.256 8.929 37.946m-59.821-125c0-9.821-4.167-18.155-12.5-25-8.036-7.143-17.857-10.714-29.464-10.714s-21.577 3.572-29.911 10.714c-8.036 6.846-12.054 15.179-12.054 25 0 8.929 4.017 16.667 12.054 23.214 8.333 6.25 18.303 9.375 29.91 9.375 11.608 0 21.429-3.125 29.465-9.375 8.333-6.547 12.5-14.286 12.5-23.214m12.5 125.89c0-6.25-1.489-12.053-4.465-17.411-2.976-5.655-6.994-10.417-12.054-14.286-4.762-4.166-10.417-7.44-16.964-9.821-6.548-2.381-13.542-3.572-20.982-3.572-7.44 0-14.435 1.19-20.982 3.572-6.25 2.38-11.905 5.655-16.964 9.821-4.762 3.87-8.63 8.631-11.607 14.286-2.678 5.357-4.018 11.161-4.018 17.411 0 7.143 1.34 13.839 4.018 20.089 2.976 6.25 6.845 11.756 11.607 16.518 5.06 4.762 10.714 8.482 16.964 11.161 6.548 2.679 13.542 4.018 20.982 4.018 7.44 0 14.434-1.34 20.982-4.018 6.845-2.679 12.65-6.399 17.411-11.161 5.06-4.762 8.929-10.268 11.607-16.518 2.976-6.25 4.464-12.946 4.465-20.089"/></g></svg>