<svg xmlns="http://www.w3.org/2000/svg" width="601" height="751" version="1.0"><path d="M38 .5h525c20.775 0 37.5 16.725 37.5 37.5v675c0 20.775-16.725 37.5-37.5 37.5H38C17.225 750.5.5 733.775.5 713V38C.5 17.225 17.225.5 38 .5z" style="color:#000;fill:#fff;fill-opacity:1;fill-rule:nonzero;stroke:#000;stroke-width:1;stroke-linecap:butt;stroke-linejoin:miter;marker:none;marker-start:none;marker-mid:none;marker-end:none;stroke-miterlimit:4;stroke-dashoffset:0;stroke-opacity:1;visibility:visible;display:inline;overflow:visible"/><path d="M38 9.875h525A28.063 28.063 0 0 1 591.125 38v675A28.063 28.063 0 0 1 563 741.125H38A28.063 28.063 0 0 1 9.875 713V38A28.063 28.063 0 0 1 38 9.875z" style="color:#000;fill:#000;fill-opacity:1;fill-rule:nonzero;stroke:none;stroke-width:.8735441;stroke-linecap:butt;stroke-linejoin:miter;marker:none;marker-start:none;marker-mid:none;marker-end:none;stroke-miterlimit:4;stroke-dashoffset:0;stroke-opacity:1;visibility:visible;display:inline;overflow:visible"/><path d="M38 25.5h525c6.925 0 12.5 5.575 12.5 12.5v675c0 6.925-5.575 12.5-12.5 12.5H38c-6.925 0-12.5-5.575-12.5-12.5V38c0-6.925 5.575-12.5 12.5-12.5z" style="color:#000;fill:#fff;fill-opacity:1;fill-rule:nonzero;stroke:none;stroke-width:.8735441;stroke-linecap:butt;stroke-linejoin:miter;marker:none;marker-start:none;marker-mid:none;marker-end:none;stroke-miterlimit:4;stroke-dashoffset:0;stroke-opacity:1;visibility:visible;display:inline;overflow:visible"/><path d="M144.106 171.395c0 10.151-4.79 17.962-14.37 23.434-3.562 2.19-7.586 3.856-12.07 5-4.483 1.142-9.119 1.714-13.907 1.714-8.865 0-16.684-1.567-23.46-4.7-6.774-3.134-13.066-7.985-18.874-14.553l14.673-11.191c3.87 4.376 7.946 7.559 12.226 9.549 4.28 1.99 9.322 2.986 15.127 2.986 6.52 0 11.869-1.219 16.046-3.656 4.177-2.436 6.266-5.546 6.266-9.33 0-3.978-2.14-7.011-6.417-9.1a231.65 231.65 0 0 0-5.732-2.093c-1.987-.697-4.151-1.293-6.492-1.788l-4.739-1.344-4.738-1.047-4.888-1.49c-5.298-1.196-9.45-2.515-12.457-3.958-3.007-1.442-5.58-3.356-7.719-5.743a22.96 22.96 0 0 1-4.813-7.764c-1.07-2.886-1.605-5.92-1.605-9.102 0-4.179.866-7.96 2.598-11.344 1.732-3.384 4.126-6.295 7.183-8.731 3.056-2.437 6.749-4.327 11.079-5.671 4.33-1.344 9.093-2.015 14.292-2.016 7.64 0 14.593 1.244 20.86 3.73 6.266 2.488 11.997 6.368 17.193 11.643l-13.605 11.942c-6.417-6.568-14.567-9.852-24.448-9.852-5.199 0-9.25.92-12.152 2.76-2.902 1.84-4.353 4.353-4.353 7.539 0 1.393.254 2.613.762 3.657.509 1.045 1.374 1.99 2.598 2.835 1.223.846 2.88 1.617 4.967 2.314 2.088.697 4.711 1.393 7.87 2.089 6.825 1.393 12.53 2.786 17.117 4.179 4.586 1.392 8.304 2.785 11.156 4.178 4.586 2.29 8.203 5.648 10.853 10.076 2.649 4.427 3.973 9.376 3.973 14.848zM246.46 131.1c0 2.587-.356 5.174-1.068 7.762a29.118 29.118 0 0 1-3.132 7.312 33.153 33.153 0 0 1-4.967 6.343 27.152 27.152 0 0 1-6.574 4.85c-2.954 1.592-5.78 2.636-8.481 3.134-2.7.498-5.986.747-9.857.747h-29.187V200.5h-18.646v-100h47.833c3.87 0 7.156.3 9.857.898 2.7.598 5.527 1.693 8.481 3.284 4.89 2.587 8.737 6.219 11.539 10.895 2.8 4.676 4.202 9.85 4.202 15.522zm-18.339 0c0-3.88-1.375-6.965-4.125-9.253-2.75-2.288-6.418-3.432-11.004-3.432h-29.798v24.924h29.798c4.586 0 8.254-1.12 11.004-3.36 2.75-2.239 4.125-5.198 4.125-8.879zm35.525 69.4V100.5h74.73v17.914h-56.084v18.506h30.563v18.356h-30.563v27.315h57.92V200.5h-76.566zm97.009 0V100.5h74.729v17.914h-56.083v18.506h30.562v18.356h-30.562v27.315h57.92V200.5h-76.566zm178.92-50.147c0 10.051-2.089 18.807-6.266 26.27-4.177 7.462-10.34 13.43-18.49 17.907-3.566 1.992-7.438 3.485-11.615 4.48a53.937 53.937 0 0 1-12.53 1.49h-33.01V100.5h33.01c8.762 0 16.913 2.091 24.453 6.272 7.944 4.476 14.005 10.37 18.182 17.684 4.177 7.314 6.266 15.946 6.266 25.896zm-18.338 0c0-6.765-1.248-12.437-3.743-17.014-2.495-4.578-6.29-8.259-11.387-11.043-4.686-2.587-9.83-3.88-15.433-3.88H476.31v64.176h14.364c5.398 0 10.338-1.294 14.822-3.881 10.494-5.375 15.74-14.827 15.74-28.358z" style="font-size:151.02735901px;font-style:normal;font-variant:normal;font-weight:400;font-stretch:normal;text-align:center;line-height:125%;writing-mode:lr-tb;text-anchor:middle;font-family:Roadgeek 2005 Series E"/><path d="M117.675 350.5v-100h17.91v84.628h56.869V350.5h-74.779zm91.828 0v-100h17.91v100h-17.91zm120.137 0v-61.043L300.238 350.5l-29.106-61.043V350.5h-17.61v-100h17.61l29.106 59.253L329.64 250.5h17.614v100H329.64zm43.696 0v-100h17.91v100h-17.91zm81.183-82.386V350.5h-17.463v-82.386H408.25V250.5h75.075v17.614h-28.806z" style="font-size:149.25358582px;font-style:normal;font-variant:normal;font-weight:400;font-stretch:normal;text-align:center;line-height:125%;writing-mode:lr-tb;text-anchor:middle;font-family:Roadgeek 2005 Series E"/><path d="M258.96 599.76v50.74h-43.657v-50.74H60.828V559.46L215.303 400.5h43.658V559.46H295.9v40.299h-36.94zM215.304 459.46l-97.392 100h97.392v-100zm324.87 105.216c0 13.186-2.614 25.313-7.84 36.38-5.227 11.07-12.504 20.585-21.83 28.548-9.325 7.963-20.456 14.182-33.392 18.657-12.935 4.476-26.99 6.713-42.165 6.713-17.164 0-33.582-2.3-49.255-6.9-15.672-4.6-31.467-11.626-47.386-21.078l23.502-38.066c22.395 13.687 46.774 20.53 73.139 20.53 18.902 0 33.701-3.918 44.397-11.757 10.696-7.837 16.044-18.847 16.045-33.027 0-6.71-1.43-13.114-4.288-19.21-2.858-6.096-6.652-11.133-11.38-15.11-8.708-6.97-22.266-10.454-40.675-10.454-8.206 0-15.978.746-23.315 2.238-7.337 1.492-15.61 3.98-24.818 7.464l-44.773-11.57 7.834-117.535H520.77l-.752 44.033H396.14l-2.608 35.823c10.195-2.239 18.775-3.856 25.74-4.85 6.965-.995 14.43-1.492 22.393-1.492 14.18 0 27.302 2.3 39.365 6.9 12.062 4.6 22.51 10.943 31.342 19.028 8.832 8.085 15.674 17.661 20.525 28.73 4.85 11.067 7.276 23.07 7.276 36.005z" style="font-size:373.12701416px;font-style:normal;font-variant:normal;font-weight:400;font-stretch:normal;text-align:center;line-height:125%;writing-mode:lr-tb;text-anchor:middle;font-family:Roadgeek 2005 Series E"/></svg>