<svg xmlns="http://www.w3.org/2000/svg" width="601" height="751" version="1.0"><path d="M38 .5h525c20.775 0 37.5 16.725 37.5 37.5v675c0 20.775-16.725 37.5-37.5 37.5H38C17.225 750.5.5 733.775.5 713V38C.5 17.225 17.225.5 38 .5z" style="color:#000;fill:#fff;fill-opacity:1;fill-rule:nonzero;stroke:#000;stroke-width:1;stroke-linecap:butt;stroke-linejoin:miter;marker:none;marker-start:none;marker-mid:none;marker-end:none;stroke-miterlimit:4;stroke-dashoffset:0;stroke-opacity:1;visibility:visible;display:inline;overflow:visible"/><path d="M38 9.875h525A28.063 28.063 0 0 1 591.125 38v675A28.063 28.063 0 0 1 563 741.125H38A28.063 28.063 0 0 1 9.875 713V38A28.063 28.063 0 0 1 38 9.875z" style="color:#000;fill:#000;fill-opacity:1;fill-rule:nonzero;stroke:none;stroke-width:.8735441;stroke-linecap:butt;stroke-linejoin:miter;marker:none;marker-start:none;marker-mid:none;marker-end:none;stroke-miterlimit:4;stroke-dashoffset:0;stroke-opacity:1;visibility:visible;display:inline;overflow:visible"/><path d="M38 25.5h525c6.925 0 12.5 5.575 12.5 12.5v675c0 6.925-5.575 12.5-12.5 12.5H38c-6.925 0-12.5-5.575-12.5-12.5V38c0-6.925 5.575-12.5 12.5-12.5z" style="color:#000;fill:#fff;fill-opacity:1;fill-rule:nonzero;stroke:none;stroke-width:.8735441;stroke-linecap:butt;stroke-linejoin:miter;marker:none;marker-start:none;marker-mid:none;marker-end:none;stroke-miterlimit:4;stroke-dashoffset:0;stroke-opacity:1;visibility:visible;display:inline;overflow:visible"/><path d="M144.106 171.395c0 10.151-4.79 17.962-14.37 23.434-3.562 2.19-7.586 3.856-12.07 5-4.483 1.142-9.119 1.714-13.907 1.714-8.865 0-16.684-1.567-23.46-4.7-6.774-3.134-13.066-7.985-18.874-14.553l14.673-11.191c3.87 4.376 7.946 7.559 12.226 9.549 4.28 1.99 9.322 2.986 15.127 2.986 6.52 0 11.869-1.219 16.046-3.656 4.177-2.436 6.266-5.546 6.266-9.33 0-3.978-2.14-7.011-6.417-9.1a231.65 231.65 0 0 0-5.732-2.093c-1.987-.697-4.151-1.293-6.492-1.788l-4.739-1.344-4.738-1.047-4.888-1.49c-5.298-1.196-9.45-2.515-12.457-3.958-3.007-1.442-5.58-3.356-7.719-5.743a22.96 22.96 0 0 1-4.813-7.764c-1.07-2.886-1.605-5.92-1.605-9.102 0-4.179.866-7.96 2.598-11.344 1.732-3.384 4.126-6.295 7.183-8.731 3.056-2.437 6.749-4.327 11.079-5.671 4.33-1.344 9.093-2.015 14.292-2.016 7.64 0 14.593 1.244 20.86 3.73 6.266 2.488 11.997 6.368 17.193 11.643l-13.605 11.942c-6.417-6.568-14.567-9.852-24.448-9.852-5.199 0-9.25.92-12.152 2.76-2.902 1.84-4.353 4.353-4.353 7.539 0 1.393.254 2.613.762 3.657.509 1.045 1.374 1.99 2.598 2.835 1.223.846 2.88 1.617 4.967 2.314 2.088.697 4.711 1.393 7.87 2.089 6.825 1.393 12.53 2.786 17.117 4.179 4.586 1.392 8.304 2.785 11.156 4.178 4.586 2.29 8.203 5.648 10.853 10.076 2.649 4.427 3.973 9.376 3.973 14.848zM246.46 131.1c0 2.587-.356 5.174-1.068 7.762a29.118 29.118 0 0 1-3.132 7.312 33.153 33.153 0 0 1-4.967 6.343 27.152 27.152 0 0 1-6.574 4.85c-2.954 1.592-5.78 2.636-8.481 3.134-2.7.498-5.986.747-9.857.747h-29.187V200.5h-18.646v-100h47.833c3.87 0 7.156.3 9.857.898 2.7.598 5.527 1.693 8.481 3.284 4.89 2.587 8.737 6.219 11.539 10.895 2.8 4.676 4.202 9.85 4.202 15.522zm-18.339 0c0-3.88-1.375-6.965-4.125-9.253-2.75-2.288-6.418-3.432-11.004-3.432h-29.798v24.924h29.798c4.586 0 8.254-1.12 11.004-3.36 2.75-2.239 4.125-5.198 4.125-8.879zm35.525 69.4V100.5h74.73v17.914h-56.084v18.506h30.563v18.356h-30.563v27.315h57.92V200.5h-76.566zm97.009 0V100.5h74.729v17.914h-56.083v18.506h30.562v18.356h-30.562v27.315h57.92V200.5h-76.566zm178.92-50.147c0 10.051-2.089 18.807-6.266 26.27-4.177 7.462-10.34 13.43-18.49 17.907-3.566 1.992-7.438 3.485-11.615 4.48a53.937 53.937 0 0 1-12.53 1.49h-33.01V100.5h33.01c8.762 0 16.913 2.091 24.453 6.272 7.944 4.476 14.005 10.37 18.182 17.684 4.177 7.314 6.266 15.946 6.266 25.896zm-18.338 0c0-6.765-1.248-12.437-3.743-17.014-2.495-4.578-6.29-8.259-11.387-11.043-4.686-2.587-9.83-3.88-15.433-3.88H476.31v64.176h14.364c5.398 0 10.338-1.294 14.822-3.881 10.494-5.375 15.74-14.827 15.74-28.358z" style="font-size:151.02735901px;font-style:normal;font-variant:normal;font-weight:400;font-stretch:normal;text-align:center;line-height:125%;writing-mode:lr-tb;text-anchor:middle;font-family:Roadgeek 2005 Series E"/><path d="M117.675 350.5v-100h17.91v84.628h56.869V350.5h-74.779zm91.828 0v-100h17.91v100h-17.91zm120.137 0v-61.043L300.238 350.5l-29.106-61.043V350.5h-17.61v-100h17.61l29.106 59.253L329.64 250.5h17.614v100H329.64zm43.696 0v-100h17.91v100h-17.91zm81.183-82.386V350.5h-17.463v-82.386H408.25V250.5h75.075v17.614h-28.806z" style="font-size:149.25358582px;font-style:normal;font-variant:normal;font-weight:400;font-stretch:normal;text-align:center;line-height:125%;writing-mode:lr-tb;text-anchor:middle;font-family:Roadgeek 2005 Series E"/><path d="M69.766 650.5c0-14.924 1.555-28.295 4.663-40.11 3.109-11.816 8.273-23.941 15.492-36.376 11.19-18.409 24.744-33.398 40.663-44.967 15.919-11.569 35.448-20.462 58.586-26.68 14.18-3.977 24.005-8.392 29.475-13.243 5.47-4.85 8.204-11.007 8.204-18.47 0-9.207-4.228-16.36-12.685-21.458-8.457-5.097-20.644-7.646-36.563-7.646-16.42 0-30.724 2.177-42.912 6.53-12.188 4.354-23.63 11.256-34.326 20.707l-30.597-33.956c29.599-25.87 64.674-38.806 105.227-38.806 14.674 0 27.981 1.742 39.923 5.226 11.94 3.485 22.077 8.461 30.409 14.929 8.33 6.468 14.799 14.302 19.403 23.502 4.604 9.201 6.906 19.525 6.906 30.973 0 10.446-2.177 20.333-6.53 29.663-4.354 9.33-10.638 17.6-18.851 24.812-4.229 2.983-9.266 5.969-15.11 8.956-5.846 2.987-13.123 5.847-21.83 8.58-8.456 2.49-15.482 4.667-21.077 6.53-5.595 1.864-10.506 3.792-14.735 5.785-4.228 1.993-8.022 4.17-11.38 6.53-3.36 2.361-6.907 5.158-10.642 8.392-5.716 4.973-10.628 10.072-14.735 15.299-4.107 5.226-8.274 12.068-12.502 20.525h147.392V650.5H69.766zm461.467-126.486c0 16.17-1.926 32.028-5.779 47.575-3.852 15.547-9.946 29.537-18.281 41.972-8.336 12.434-19.094 22.445-32.277 30.033-13.182 7.587-29.228 11.381-48.138 11.381-18.652 0-34.631-3.668-47.939-11.005-13.307-7.337-24.191-17.1-32.652-29.288-8.46-12.187-14.68-26.055-18.657-41.602-3.978-15.547-5.967-31.53-5.967-47.95s2.051-32.403 6.155-47.95c4.103-15.547 10.445-29.29 19.027-41.227 8.582-11.937 19.466-21.576 32.652-28.917 13.186-7.34 28.98-11.01 47.381-11.011 18.66 0 34.58 3.731 47.763 11.193 13.182 7.463 24.003 17.227 32.464 29.293 8.46 12.067 14.617 25.748 18.47 41.044 3.852 15.297 5.778 30.783 5.778 46.459zm-44.773 1.116c0-26.365-5.223-47.01-15.669-61.94-10.445-14.927-25.123-22.392-44.033-22.392-11.19 0-20.64 2.614-28.353 7.84-7.713 5.227-13.932 11.883-18.658 19.967-4.725 8.085-8.145 17.039-10.26 26.862-2.114 9.823-3.17 19.339-3.17 28.547 0 27.86 5.347 49.19 16.044 63.989 10.696 14.8 25.495 22.199 44.397 22.199 9.208 0 17.48-2.052 24.818-6.155 7.337-4.103 13.617-9.948 18.84-17.536 5.222-7.587 9.202-16.666 11.939-27.237 2.736-10.571 4.105-22.324 4.105-35.26v1.116z" style="font-size:373.12701416px;font-style:normal;font-variant:normal;font-weight:400;font-stretch:normal;text-align:center;line-height:125%;writing-mode:lr-tb;text-anchor:middle;font-family:Roadgeek 2005 Series E"/></svg>