<svg xmlns="http://www.w3.org/2000/svg" width="601" height="751" version="1.0"><path d="M38 .5h525c20.775 0 37.5 16.725 37.5 37.5v675c0 20.775-16.725 37.5-37.5 37.5H38C17.225 750.5.5 733.775.5 713V38C.5 17.225 17.225.5 38 .5z" style="color:#000;fill:#fff;fill-opacity:1;fill-rule:nonzero;stroke:#000;stroke-width:1;stroke-linecap:butt;stroke-linejoin:miter;marker:none;marker-start:none;marker-mid:none;marker-end:none;stroke-miterlimit:4;stroke-dashoffset:0;stroke-opacity:1;visibility:visible;display:inline;overflow:visible"/><path d="M38 9.875h525A28.063 28.063 0 0 1 591.125 38v675A28.063 28.063 0 0 1 563 741.125H38A28.063 28.063 0 0 1 9.875 713V38A28.063 28.063 0 0 1 38 9.875z" style="color:#000;fill:#000;fill-opacity:1;fill-rule:nonzero;stroke:none;stroke-width:.8735441;stroke-linecap:butt;stroke-linejoin:miter;marker:none;marker-start:none;marker-mid:none;marker-end:none;stroke-miterlimit:4;stroke-dashoffset:0;stroke-opacity:1;visibility:visible;display:inline;overflow:visible"/><path d="M38 25.5h525c6.925 0 12.5 5.575 12.5 12.5v675c0 6.925-5.575 12.5-12.5 12.5H38c-6.925 0-12.5-5.575-12.5-12.5V38c0-6.925 5.575-12.5 12.5-12.5z" style="color:#000;fill:#fff;fill-opacity:1;fill-rule:nonzero;stroke:none;stroke-width:.8735441;stroke-linecap:butt;stroke-linejoin:miter;marker:none;marker-start:none;marker-mid:none;marker-end:none;stroke-miterlimit:4;stroke-dashoffset:0;stroke-opacity:1;visibility:visible;display:inline;overflow:visible"/><path d="M144.106 171.395c0 10.151-4.79 17.962-14.37 23.434-3.562 2.19-7.586 3.856-12.07 5-4.483 1.142-9.119 1.714-13.907 1.714-8.865 0-16.684-1.567-23.46-4.7-6.774-3.134-13.066-7.985-18.874-14.553l14.673-11.191c3.87 4.376 7.946 7.559 12.226 9.549 4.28 1.99 9.322 2.986 15.127 2.986 6.52 0 11.869-1.219 16.046-3.656 4.177-2.436 6.266-5.546 6.266-9.33 0-3.978-2.14-7.011-6.417-9.1a231.65 231.65 0 0 0-5.732-2.093c-1.987-.697-4.151-1.293-6.492-1.788l-4.739-1.344-4.738-1.047-4.888-1.49c-5.298-1.196-9.45-2.515-12.457-3.958-3.007-1.442-5.58-3.356-7.719-5.743a22.96 22.96 0 0 1-4.813-7.764c-1.07-2.886-1.605-5.92-1.605-9.102 0-4.179.866-7.96 2.598-11.344 1.732-3.384 4.126-6.295 7.183-8.731 3.056-2.437 6.749-4.327 11.079-5.671 4.33-1.344 9.093-2.015 14.292-2.016 7.64 0 14.593 1.244 20.86 3.73 6.266 2.488 11.997 6.368 17.193 11.643l-13.605 11.942c-6.417-6.568-14.567-9.852-24.448-9.852-5.199 0-9.25.92-12.152 2.76-2.902 1.84-4.353 4.353-4.353 7.539 0 1.393.254 2.613.762 3.657.509 1.045 1.374 1.99 2.598 2.835 1.223.846 2.88 1.617 4.967 2.314 2.088.697 4.711 1.393 7.87 2.089 6.825 1.393 12.53 2.786 17.117 4.179 4.586 1.392 8.304 2.785 11.156 4.178 4.586 2.29 8.203 5.648 10.853 10.076 2.649 4.427 3.973 9.376 3.973 14.848zM246.46 131.1c0 2.587-.356 5.174-1.068 7.762a29.118 29.118 0 0 1-3.132 7.312 33.153 33.153 0 0 1-4.967 6.343 27.152 27.152 0 0 1-6.574 4.85c-2.954 1.592-5.78 2.636-8.481 3.134-2.7.498-5.986.747-9.857.747h-29.187V200.5h-18.646v-100h47.833c3.87 0 7.156.3 9.857.898 2.7.598 5.527 1.693 8.481 3.284 4.89 2.587 8.737 6.219 11.539 10.895 2.8 4.676 4.202 9.85 4.202 15.522zm-18.339 0c0-3.88-1.375-6.965-4.125-9.253-2.75-2.288-6.418-3.432-11.004-3.432h-29.798v24.924h29.798c4.586 0 8.254-1.12 11.004-3.36 2.75-2.239 4.125-5.198 4.125-8.879zm35.525 69.4V100.5h74.73v17.914h-56.084v18.506h30.563v18.356h-30.563v27.315h57.92V200.5h-76.566zm97.009 0V100.5h74.729v17.914h-56.083v18.506h30.562v18.356h-30.562v27.315h57.92V200.5h-76.566zm178.92-50.147c0 10.051-2.089 18.807-6.266 26.27-4.177 7.462-10.34 13.43-18.49 17.907-3.566 1.992-7.438 3.485-11.615 4.48a53.937 53.937 0 0 1-12.53 1.49h-33.01V100.5h33.01c8.762 0 16.913 2.091 24.453 6.272 7.944 4.476 14.005 10.37 18.182 17.684 4.177 7.314 6.266 15.946 6.266 25.896zm-18.338 0c0-6.765-1.248-12.437-3.743-17.014-2.495-4.578-6.29-8.259-11.387-11.043-4.686-2.587-9.83-3.88-15.433-3.88H476.31v64.176h14.364c5.398 0 10.338-1.294 14.822-3.881 10.494-5.375 15.74-14.827 15.74-28.358z" style="font-size:151.02735901px;font-style:normal;font-variant:normal;font-weight:400;font-stretch:normal;text-align:center;line-height:125%;writing-mode:lr-tb;text-anchor:middle;font-family:Roadgeek 2005 Series E"/><path d="M117.675 350.5v-100h17.91v84.628h56.869V350.5h-74.779zm91.828 0v-100h17.91v100h-17.91zm120.137 0v-61.043L300.238 350.5l-29.106-61.043V350.5h-17.61v-100h17.61l29.106 59.253L329.64 250.5h17.614v100H329.64zm43.696 0v-100h17.91v100h-17.91zm81.183-82.386V350.5h-17.463v-82.386H408.25V250.5h75.075v17.614h-28.806z" style="font-size:149.25358582px;font-style:normal;font-variant:normal;font-weight:400;font-stretch:normal;text-align:center;line-height:125%;writing-mode:lr-tb;text-anchor:middle;font-family:Roadgeek 2005 Series E"/><path d="M264.147 577.737c0 11.198-2.363 21.522-7.088 30.973-4.726 9.451-11.317 17.597-19.774 24.436-8.457 6.84-18.53 12.188-30.22 16.045-11.691 3.856-24.627 5.784-38.807 5.784-14.925 0-28.792-2.363-41.602-7.088-12.81-4.726-24.317-11.442-34.52-20.15-10.195-8.707-17.718-19.34-22.569-31.9-4.85-12.56-7.276-27.422-7.276-44.586 0-26.372 5.66-50.502 16.978-72.392 11.318-21.89 27.549-40.17 48.69-54.845 7.212-4.98 14.549-9.273 22.011-12.879a138.427 138.427 0 0 1 23.32-8.768c8.085-2.239 16.667-3.856 25.747-4.85 9.079-.995 19.092-1.492 30.038-1.492v44.773H224.6c-13.436 0-25.004 1.183-34.701 3.547-9.698 2.365-18.9 6.159-27.608 11.382-11.448 6.467-20.777 13.869-27.989 22.204s-13.926 19.092-20.144 32.27a577.716 577.716 0 0 1 15.105-3.91c4.604-1.12 9.083-1.929 13.437-2.426 4.353-.497 8.768-.871 13.243-1.122a254.5 254.5 0 0 1 14.182-.376c13.68 0 26.241 1.866 37.685 5.597 11.444 3.731 21.332 8.956 29.663 15.674 8.331 6.719 14.86 14.678 19.586 23.879 4.725 9.2 7.088 19.274 7.088 30.22zm-44.773.752c0-9.451-4.851-17.039-14.553-22.762-9.702-5.724-22.387-8.586-38.055-8.586-15.676 0-28.24 2.8-37.69 8.398-9.452 5.598-14.177 12.998-14.177 22.198 0 9.702 4.725 17.415 14.176 23.139s22.015 8.586 37.691 8.585c15.668 0 28.353-2.799 38.055-8.397 9.702-5.599 14.553-13.124 14.553-22.575zm319.335-54.475c0 16.17-1.927 32.028-5.779 47.575-3.853 15.547-9.947 29.537-18.282 41.972-8.335 12.434-19.094 22.445-32.276 30.033-13.182 7.587-29.228 11.381-48.138 11.381-18.652 0-34.632-3.668-47.94-11.005-13.307-7.337-24.19-17.1-32.651-29.288-8.46-12.187-14.68-26.055-18.658-41.602-3.978-15.547-5.967-31.53-5.966-47.95 0-16.42 2.051-32.403 6.154-47.95 4.103-15.547 10.446-29.29 19.028-41.227 8.582-11.937 19.466-21.576 32.652-28.917 13.186-7.34 28.98-11.01 47.38-11.011 18.66 0 34.58 3.731 47.763 11.193 13.182 7.463 24.004 17.227 32.464 29.293 8.46 12.067 14.617 25.748 18.47 41.044 3.852 15.297 5.779 30.783 5.779 46.459zm-44.774 1.116c0-26.365-5.223-47.01-15.668-61.94-10.446-14.927-25.123-22.392-44.033-22.392-11.19 0-20.641 2.614-28.354 7.84-7.713 5.227-13.932 11.883-18.657 19.967-4.726 8.085-8.146 17.039-10.26 26.862-2.114 9.823-3.171 19.339-3.171 28.547 0 27.86 5.348 49.19 16.044 63.989 10.696 14.8 25.495 22.199 44.398 22.199 9.208 0 17.48-2.052 24.818-6.155 7.336-4.103 13.616-9.948 18.84-17.536 5.222-7.587 9.202-16.666 11.938-27.237 2.737-10.571 4.105-22.324 4.105-35.26v1.116z" style="font-size:373.12701416px;font-style:normal;font-variant:normal;font-weight:400;font-stretch:normal;text-align:center;line-height:125%;writing-mode:lr-tb;text-anchor:middle;font-family:Roadgeek 2005 Series E"/></svg>