<svg xmlns="http://www.w3.org/2000/svg" xml:space="preserve" width="600" height="600" style="overflow:visible"><path d="M300 10.003c23.564 20.075 54.117 32.191 87.5 32.191S451.436 30.075 475 10l115 115c-21.162 30.081-33.588 66.754-33.588 106.326 0 28.464 6.427 55.425 17.91 79.513C584.244 331.664 590 355.395 590 380c0 88.367-71.633 160-160 160h-25.113c-42.345 0-80.136 19.495-104.887 50-24.751-30.505-62.542-50-104.887-50H170c-88.367 0-160-71.633-160-160 0-24.605 5.756-48.336 15.678-69.161 11.483-24.088 17.91-51.049 17.91-79.513C43.588 191.754 31.162 155.081 10 125L125 10c23.564 20.075 54.117 32.194 87.5 32.194s63.936-12.116 87.5-32.191z" style="fill:#fff;fill-opacity:1;fill-rule:evenodd"/><path d="M0 50C0 22.386 22.385 0 50 0h500c27.614 0 50 22.386 50 50v500c0 27.615-22.386 50-50 50H50c-27.615 0-50-22.385-50-50V50z"/><path d="M300 10.003c23.564 20.075 54.117 32.191 87.5 32.191S451.436 30.075 475 10l115 115c-21.162 30.081-33.588 66.754-33.588 106.326 0 28.464 6.427 55.425 17.91 79.513C584.244 331.664 590 355.395 590 380c0 88.367-71.633 160-160 160h-25.113c-42.345 0-80.136 19.495-104.887 50-24.751-30.505-62.542-50-104.887-50H170c-88.367 0-160-71.633-160-160 0-24.605 5.756-48.336 15.678-69.161 11.483-24.088 17.91-51.049 17.91-79.513C43.588 191.754 31.162 155.081 10 125L125 10c23.564 20.075 54.117 32.194 87.5 32.194s63.936-12.116 87.5-32.191z" style="fill:#fff;fill-opacity:1;fill-rule:evenodd;stroke:#000;stroke-linecap:round;stroke-linejoin:round;stroke-miterlimit:3.863693"/><path d="M286.35 437.5V194.366h-27.313v-38.06h3.134c6.269 0 12.537-1.642 18.806-4.925 6.269-3.284 11.493-7.91 15.672-13.881h38.06v300H286.35" style="font-size:447.76119995px;font-style:normal;font-variant:normal;font-weight:400;font-stretch:normal;text-align:center;line-height:125%;writing-mode:lr-tb;text-anchor:middle;font-family:Roadgeek 2005 Series D"/></svg>